NewtSerifDemi-Italic.ufo
<glyph name="exclam" format="1">
  <advance width="263"/>
  <unicode hex="0021"/>
  <outline>
    <contour>
      <point x="170" y="564" type="curve" smooth="yes"/>
      <point x="176" y="587"/>
      <point x="185" y="593"/>
      <point x="200" y="598" type="curve"/>
      <point x="231" y="606"/>
      <point x="261" y="608"/>
      <point x="280" y="608" type="curve" smooth="yes"/>
      <point x="297" y="608"/>
      <point x="309" y="610"/>
      <point x="303" y="588" type="curve" smooth="yes"/>
      <point x="296" y="564"/>
      <point x="238" y="444"/>
      <point x="231" y="427" type="curve" smooth="yes"/>
      <point x="200" y="350"/>
      <point x="176" y="271"/>
      <point x="157" y="202" type="curve" smooth="yes"/>
      <point x="151" y="183"/>
      <point x="142" y="176"/>
      <point x="127" y="173" type="curve" smooth="yes"/>
      <point x="115" y="170"/>
      <point x="110" y="181"/>
      <point x="114" y="203" type="curve" smooth="yes"/>
      <point x="126" y="264"/>
      <point x="147" y="358"/>
      <point x="155" y="419" type="curve" smooth="yes"/>
      <point x="157" y="439"/>
      <point x="166" y="549"/>
    </contour>
    <contour>
      <point x="100" y="91" type="curve" smooth="yes"/>
      <point x="125" y="93"/>
      <point x="156" y="80"/>
      <point x="156" y="52" type="curve" smooth="yes"/>
      <point x="156" y="9"/>
      <point x="120" y="-4"/>
      <point x="98" y="-8" type="curve"/>
      <point x="55" y="-13"/>
      <point x="37" y="12"/>
      <point x="37" y="35" type="curve" smooth="yes"/>
      <point x="37" y="69"/>
      <point x="72" y="88"/>
    </contour>
  </outline>
</glyph>
<glyph name="quotedbl" format="1">
  <advance width="311"/>
  <unicode hex="0022"/>
  <outline>
    <contour>
      <point x="217" y="611" type="curve" smooth="yes"/>
      <point x="237" y="611"/>
      <point x="240" y="598"/>
      <point x="230" y="577" type="curve" smooth="yes"/>
      <point x="208" y="528"/>
      <point x="175" y="468"/>
      <point x="157" y="413" type="curve"/>
      <point x="152" y="394"/>
      <point x="139" y="384"/>
      <point x="129" y="384" type="curve" smooth="yes"/>
      <point x="119" y="384"/>
      <point x="109" y="391"/>
      <point x="114" y="413" type="curve" smooth="yes"/>
      <point x="122" y="457"/>
      <point x="123" y="526"/>
      <point x="123" y="572" type="curve" smooth="yes"/>
      <point x="123" y="601"/>
      <point x="136" y="603"/>
      <point x="152" y="606" type="curve" smooth="yes"/>
      <point x="167" y="609"/>
      <point x="205" y="611"/>
    </contour>
    <contour>
      <point x="369" y="611" type="curve" smooth="yes"/>
      <point x="389" y="611"/>
      <point x="391" y="598"/>
      <point x="381" y="577" type="curve" smooth="yes"/>
      <point x="359" y="528"/>
      <point x="327" y="468"/>
      <point x="309" y="413" type="curve" smooth="yes"/>
      <point x="303" y="394"/>
      <point x="290" y="384"/>
      <point x="280" y="384" type="curve" smooth="yes"/>
      <point x="270" y="384"/>
      <point x="261" y="391"/>
      <point x="265" y="413" type="curve" smooth="yes"/>
      <point x="274" y="457"/>
      <point x="274" y="526"/>
      <point x="274" y="572" type="curve" smooth="yes"/>
      <point x="274" y="601"/>
      <point x="287" y="603"/>
      <point x="304" y="606" type="curve" smooth="yes"/>
      <point x="318" y="609"/>
      <point x="357" y="611"/>
    </contour>
  </outline>
</glyph>
<glyph name="numbersign" format="1">
  <advance width="473"/>
  <unicode hex="0023"/>
  <outline>
    <contour>
      <point x="66" y="417" type="curve" smooth="yes"/>
      <point x="77" y="431"/>
      <point x="89" y="434"/>
      <point x="110" y="434" type="curve" smooth="yes"/>
      <point x="148" y="434" type="line" smooth="yes"/>
      <point x="162" y="434"/>
      <point x="162" y="442"/>
      <point x="165" y="454" type="curve" smooth="yes"/>
      <point x="194" y="569" type="line" smooth="yes"/>
      <point x="198" y="587"/>
      <point x="206" y="593"/>
      <point x="221" y="595" type="curve" smooth="yes"/>
      <point x="229" y="597"/>
      <point x="242" y="595"/>
      <point x="237" y="571" type="curve" smooth="yes"/>
      <point x="237" y="567"/>
      <point x="225" y="523"/>
      <point x="211" y="460" type="curve" smooth="yes"/>
      <point x="207" y="440"/>
      <point x="203" y="436"/>
      <point x="224" y="436" type="curve" smooth="yes"/>
      <point x="259" y="437"/>
      <point x="300" y="439"/>
      <point x="330" y="441" type="curve" smooth="yes"/>
      <point x="343" y="442"/>
      <point x="345" y="445"/>
      <point x="350" y="463" type="curve" smooth="yes"/>
      <point x="360" y="505"/>
      <point x="370" y="544"/>
      <point x="375" y="569" type="curve"/>
      <point x="380" y="587"/>
      <point x="389" y="593"/>
      <point x="403" y="595" type="curve" smooth="yes"/>
      <point x="411" y="597"/>
      <point x="424" y="595"/>
      <point x="419" y="571" type="curve" smooth="yes"/>
      <point x="395" y="464" type="line" smooth="yes"/>
      <point x="391" y="447"/>
      <point x="387" y="446"/>
      <point x="405" y="446" type="curve"/>
      <point x="413" y="447"/>
      <point x="423" y="447"/>
      <point x="431" y="449" type="curve" smooth="yes"/>
      <point x="458" y="453"/>
      <point x="479" y="458"/>
      <point x="476" y="439" type="curve" smooth="yes"/>
      <point x="474" y="431"/>
      <point x="456" y="410"/>
      <point x="439" y="402" type="curve" smooth="yes"/>
      <point x="425" y="395"/>
      <point x="412" y="395"/>
      <point x="399" y="395" type="curve" smooth="yes"/>
      <point x="380" y="395"/>
      <point x="379" y="394"/>
      <point x="374" y="374" type="curve" smooth="yes"/>
      <point x="338" y="220" type="line" smooth="yes"/>
      <point x="335" y="205"/>
      <point x="332" y="203"/>
      <point x="348" y="203" type="curve" smooth="yes"/>
      <point x="358" y="203"/>
      <point x="368" y="204"/>
      <point x="378" y="205" type="curve" smooth="yes"/>
      <point x="405" y="210"/>
      <point x="425" y="215"/>
      <point x="421" y="196" type="curve" smooth="yes"/>
      <point x="419" y="189"/>
      <point x="403" y="167"/>
      <point x="385" y="158" type="curve" smooth="yes"/>
      <point x="372" y="152"/>
      <point x="357" y="152"/>
      <point x="343" y="152" type="curve" smooth="yes"/>
      <point x="326" y="152"/>
      <point x="321" y="147"/>
      <point x="316" y="125" type="curve" smooth="yes"/>
      <point x="309" y="89"/>
      <point x="306" y="72"/>
      <point x="301" y="54" type="curve" smooth="yes"/>
      <point x="295" y="28"/>
      <point x="292" y="15"/>
      <point x="281" y="7" type="curve" smooth="yes"/>
      <point x="267" y="-4"/>
      <point x="246" y="-8"/>
      <point x="233" y="-10" type="curve" smooth="yes"/>
      <point x="216" y="-13"/>
      <point x="227" y="9"/>
      <point x="229" y="14" type="curve" smooth="yes"/>
      <point x="240" y="36"/>
      <point x="249" y="70"/>
      <point x="256" y="93" type="curve" smooth="yes"/>
      <point x="259" y="104"/>
      <point x="262" y="117"/>
      <point x="265" y="136" type="curve" smooth="yes"/>
      <point x="267" y="147"/>
      <point x="269" y="151"/>
      <point x="252" y="151" type="curve" smooth="yes"/>
      <point x="157" y="149" type="line" smooth="yes"/>
      <point x="142" y="148"/>
      <point x="138" y="147"/>
      <point x="136" y="129" type="curve"/>
      <point x="129" y="96"/>
      <point x="120" y="63"/>
      <point x="119" y="54" type="curve"/>
      <point x="113" y="30"/>
      <point x="109" y="15"/>
      <point x="99" y="7" type="curve" smooth="yes"/>
      <point x="85" y="-4"/>
      <point x="63" y="-8"/>
      <point x="51" y="-10" type="curve" smooth="yes"/>
      <point x="34" y="-13"/>
      <point x="45" y="9"/>
      <point x="47" y="14" type="curve" smooth="yes"/>
      <point x="57" y="36"/>
      <point x="66" y="70"/>
      <point x="73" y="93" type="curve" smooth="yes"/>
      <point x="77" y="104"/>
      <point x="79" y="112"/>
      <point x="82" y="130" type="curve" smooth="yes"/>
      <point x="83" y="136"/>
      <point x="87" y="148"/>
      <point x="76" y="149" type="curve" smooth="yes"/>
      <point x="63" y="150"/>
      <point x="51" y="150"/>
      <point x="29" y="149" type="curve" smooth="yes"/>
      <point x="8" y="148"/>
      <point x="3" y="156"/>
      <point x="11" y="168" type="curve" smooth="yes"/>
      <point x="21" y="184"/>
      <point x="35" y="191"/>
      <point x="57" y="191" type="curve" smooth="yes"/>
      <point x="82" y="191" type="line" smooth="yes"/>
      <point x="100" y="191"/>
      <point x="101" y="201"/>
      <point x="104" y="208" type="curve" smooth="yes"/>
      <point x="120" y="262"/>
      <point x="128" y="311"/>
      <point x="145" y="375" type="curve" smooth="yes"/>
      <point x="146" y="380"/>
      <point x="146" y="391"/>
      <point x="136" y="392" type="curve" smooth="yes"/>
      <point x="120" y="393"/>
      <point x="104" y="393"/>
      <point x="83" y="392" type="curve" smooth="yes"/>
      <point x="63" y="391"/>
      <point x="54" y="400"/>
    </contour>
    <contour>
      <point x="192" y="375" type="curve" smooth="yes"/>
      <point x="178" y="316"/>
      <point x="167" y="263"/>
      <point x="153" y="206" type="curve" smooth="yes"/>
      <point x="150" y="191"/>
      <point x="151" y="193"/>
      <point x="166" y="193" type="curve" smooth="yes"/>
      <point x="199" y="194"/>
      <point x="238" y="194"/>
      <point x="267" y="197" type="curve" smooth="yes"/>
      <point x="285" y="199"/>
      <point x="285" y="199"/>
      <point x="288" y="216" type="curve"/>
      <point x="327" y="374" type="line" smooth="yes"/>
      <point x="331" y="391"/>
      <point x="331" y="394"/>
      <point x="317" y="394" type="curve" smooth="yes"/>
      <point x="288" y="394"/>
      <point x="245" y="393"/>
      <point x="213" y="392" type="curve" smooth="yes"/>
      <point x="199" y="392"/>
      <point x="195" y="388"/>
    </contour>
  </outline>
</glyph>
<glyph name="dollar" format="1">
  <advance width="374"/>
  <unicode hex="0024"/>
  <outline>
    <contour>
      <point x="40" y="146" type="curve"/>
      <point x="42" y="181"/>
      <point x="76" y="219"/>
      <point x="105" y="231" type="curve" smooth="yes"/>
      <point x="114" y="235"/>
      <point x="122" y="237"/>
      <point x="129" y="231" type="curve" smooth="yes"/>
      <point x="132" y="229"/>
      <point x="132" y="217"/>
      <point x="126" y="210" type="curve" smooth="yes"/>
      <point x="104" y="181"/>
      <point x="115" y="120"/>
      <point x="165" y="120" type="curve" smooth="yes"/>
      <point x="228" y="120"/>
      <point x="245" y="148"/>
      <point x="246" y="175" type="curve" smooth="yes"/>
      <point x="248" y="223"/>
      <point x="216" y="257"/>
      <point x="165" y="297" type="curve" smooth="yes"/>
      <point x="122" y="331"/>
      <point x="100" y="369"/>
      <point x="100" y="416" type="curve" smooth="yes"/>
      <point x="100" y="449"/>
      <point x="146" y="504"/>
      <point x="207" y="522" type="curve" smooth="yes"/>
      <point x="224" y="527"/>
      <point x="228" y="525"/>
      <point x="233" y="543" type="curve" smooth="yes"/>
      <point x="238" y="558"/>
      <point x="242" y="574"/>
      <point x="246" y="589" type="curve" smooth="yes"/>
      <point x="252" y="609"/>
      <point x="262" y="616"/>
      <point x="277" y="619" type="curve" smooth="yes"/>
      <point x="292" y="621"/>
      <point x="294" y="610"/>
      <point x="290" y="588" type="curve"/>
      <point x="279" y="543" type="line"/>
      <point x="277" y="527"/>
      <point x="274" y="528"/>
      <point x="290" y="524" type="curve" smooth="yes"/>
      <point x="332" y="516"/>
      <point x="345" y="495"/>
      <point x="345" y="473" type="curve" smooth="yes"/>
      <point x="345" y="455"/>
      <point x="331" y="432"/>
      <point x="311" y="417" type="curve" smooth="yes"/>
      <point x="299" y="407"/>
      <point x="289" y="405"/>
      <point x="285" y="408" type="curve" smooth="yes"/>
      <point x="279" y="411"/>
      <point x="278" y="415"/>
      <point x="279" y="428" type="curve" smooth="yes"/>
      <point x="283" y="455"/>
      <point x="271" y="487"/>
      <point x="241" y="487" type="curve" smooth="yes"/>
      <point x="206" y="487"/>
      <point x="180" y="469"/>
      <point x="179" y="437" type="curve" smooth="yes"/>
      <point x="178" y="405"/>
      <point x="206" y="375"/>
      <point x="247" y="343" type="curve" smooth="yes"/>
      <point x="302" y="300"/>
      <point x="323" y="255"/>
      <point x="321" y="199" type="curve"/>
      <point x="317" y="150"/>
      <point x="275" y="93"/>
      <point x="198" y="75" type="curve" smooth="yes"/>
      <point x="178" y="70"/>
      <point x="179" y="73"/>
      <point x="172" y="52" type="curve" smooth="yes"/>
      <point x="166" y="35"/>
      <point x="162" y="19"/>
      <point x="157" y="2" type="curve" smooth="yes"/>
      <point x="152" y="-18"/>
      <point x="142" y="-24"/>
      <point x="127" y="-28" type="curve" smooth="yes"/>
      <point x="122" y="-29"/>
      <point x="105" y="-29"/>
      <point x="113" y="3" type="curve" smooth="yes"/>
      <point x="124" y="53" type="line" smooth="yes"/>
      <point x="128" y="71"/>
      <point x="129" y="70"/>
      <point x="112" y="73" type="curve" smooth="yes"/>
      <point x="74" y="81"/>
      <point x="40" y="103"/>
    </contour>
  </outline>
</glyph>
<glyph name="percent" format="1">
  <advance width="682"/>
  <unicode hex="0025"/>
  <outline>
    <contour>
      <point x="117" y="-28" type="curve"/>
      <point x="98" y="-24"/>
      <point x="105" y="-7"/>
      <point x="141" y="38" type="curve"/>
      <point x="199" y="114"/>
      <point x="450" y="455"/>
      <point x="502" y="531" type="curve" smooth="yes"/>
      <point x="516" y="551"/>
      <point x="533" y="582"/>
      <point x="544" y="604" type="curve"/>
      <point x="552" y="616"/>
      <point x="573" y="616"/>
      <point x="573" y="607" type="curve" smooth="yes"/>
      <point x="572" y="580"/>
      <point x="568" y="549"/>
      <point x="561" y="529" type="curve" smooth="yes"/>
      <point x="552" y="501"/>
      <point x="546" y="490"/>
      <point x="528" y="466" type="curve"/>
      <point x="487" y="415"/>
      <point x="247" y="109"/>
      <point x="175" y="13" type="curve"/>
      <point x="146" y="-24"/>
      <point x="129" y="-29"/>
    </contour>
    <contour>
      <point x="137" y="242" type="curve" smooth="yes"/>
      <point x="96" y="242"/>
      <point x="63" y="278"/>
      <point x="64" y="350" type="curve" smooth="yes"/>
      <point x="65" y="476"/>
      <point x="178" y="605"/>
      <point x="253" y="605" type="curve" smooth="yes"/>
      <point x="313" y="605"/>
      <point x="329" y="551"/>
      <point x="328" y="512" type="curve" smooth="yes"/>
      <point x="327" y="395"/>
      <point x="222" y="242"/>
    </contour>
    <contour>
      <point x="222" y="544" type="curve" smooth="yes"/>
      <point x="178" y="544"/>
      <point x="142" y="446"/>
      <point x="141" y="379" type="curve" smooth="yes"/>
      <point x="141" y="330"/>
      <point x="151" y="310"/>
      <point x="173" y="310" type="curve" smooth="yes"/>
      <point x="207" y="310"/>
      <point x="253" y="370"/>
      <point x="253" y="483" type="curve" smooth="yes"/>
      <point x="253" y="524"/>
      <point x="242" y="544"/>
    </contour>
    <contour>
      <point x="474" y="-16" type="curve" smooth="yes"/>
      <point x="433" y="-16"/>
      <point x="400" y="20"/>
      <point x="401" y="93" type="curve" smooth="yes"/>
      <point x="402" y="218"/>
      <point x="514" y="348"/>
      <point x="590" y="348" type="curve" smooth="yes"/>
      <point x="650" y="348"/>
      <point x="666" y="294"/>
      <point x="665" y="254" type="curve" smooth="yes"/>
      <point x="663" y="137"/>
      <point x="559" y="-16"/>
    </contour>
    <contour>
      <point x="559" y="286" type="curve" smooth="yes"/>
      <point x="514" y="286"/>
      <point x="479" y="189"/>
      <point x="478" y="121" type="curve" smooth="yes"/>
      <point x="477" y="72"/>
      <point x="487" y="52"/>
      <point x="510" y="52" type="curve" smooth="yes"/>
      <point x="544" y="52"/>
      <point x="589" y="113"/>
      <point x="590" y="226" type="curve" smooth="yes"/>
      <point x="590" y="267"/>
      <point x="578" y="286"/>
    </contour>
  </outline>
</glyph>
<glyph name="ampersand" format="1">
  <advance width="483"/>
  <unicode hex="0026"/>
  <outline>
    <contour>
      <point x="227" y="-8" type="curve" smooth="yes"/>
      <point x="100" y="-8"/>
      <point x="42" y="41"/>
      <point x="42" y="139" type="curve" smooth="yes"/>
      <point x="42" y="242"/>
      <point x="153" y="324"/>
      <point x="230" y="348" type="curve" smooth="yes"/>
      <point x="240" y="352"/>
      <point x="244" y="355"/>
      <point x="244" y="359" type="curve" smooth="yes"/>
      <point x="244" y="364"/>
      <point x="240" y="369"/>
      <point x="229" y="371" type="curve" smooth="yes"/>
      <point x="188" y="382"/>
      <point x="157" y="402"/>
      <point x="157" y="448" type="curve" smooth="yes"/>
      <point x="158" y="542"/>
      <point x="284" y="609"/>
      <point x="391" y="609" type="curve" smooth="yes"/>
      <point x="443" y="609"/>
      <point x="514" y="591"/>
      <point x="513" y="529" type="curve" smooth="yes"/>
      <point x="512" y="492"/>
      <point x="481" y="462"/>
      <point x="453" y="444" type="curve" smooth="yes"/>
      <point x="438" y="434"/>
      <point x="421" y="432"/>
      <point x="414" y="434" type="curve" smooth="yes"/>
      <point x="407" y="437"/>
      <point x="402" y="449"/>
      <point x="410" y="459" type="curve"/>
      <point x="418" y="471"/>
      <point x="427" y="487"/>
      <point x="428" y="504" type="curve"/>
      <point x="428" y="537"/>
      <point x="402" y="561"/>
      <point x="364" y="561" type="curve" smooth="yes"/>
      <point x="318" y="561"/>
      <point x="258" y="524"/>
      <point x="258" y="460" type="curve" smooth="yes"/>
      <point x="258" y="398"/>
      <point x="289" y="383"/>
      <point x="334" y="382" type="curve" smooth="yes"/>
      <point x="345" y="382"/>
      <point x="366" y="383"/>
      <point x="372" y="384" type="curve" smooth="yes"/>
      <point x="380" y="385"/>
      <point x="395" y="380"/>
      <point x="386" y="360" type="curve" smooth="yes"/>
      <point x="380" y="348"/>
      <point x="370" y="338"/>
      <point x="352" y="337" type="curve" smooth="yes"/>
      <point x="250" y="332"/>
      <point x="142" y="251"/>
      <point x="142" y="149" type="curve" smooth="yes"/>
      <point x="142" y="85"/>
      <point x="190" y="46"/>
      <point x="244" y="46" type="curve" smooth="yes"/>
      <point x="314" y="46"/>
      <point x="378" y="79"/>
      <point x="381" y="157" type="curve" smooth="yes"/>
      <point x="383" y="191"/>
      <point x="365" y="215"/>
      <point x="334" y="215" type="curve" smooth="yes"/>
      <point x="303" y="215"/>
      <point x="275" y="199"/>
      <point x="275" y="170" type="curve" smooth="yes"/>
      <point x="275" y="154"/>
      <point x="277" y="135"/>
      <point x="287" y="129" type="curve" smooth="yes"/>
      <point x="294" y="125"/>
      <point x="295" y="111"/>
      <point x="286" y="105" type="curve" smooth="yes"/>
      <point x="277" y="98"/>
      <point x="258" y="106"/>
      <point x="247" y="118" type="curve" smooth="yes"/>
      <point x="233" y="133"/>
      <point x="228" y="151"/>
      <point x="230" y="179" type="curve" smooth="yes"/>
      <point x="232" y="234"/>
      <point x="285" y="285"/>
      <point x="368" y="285" type="curve" smooth="yes"/>
      <point x="431" y="285"/>
      <point x="476" y="259"/>
      <point x="473" y="178" type="curve" smooth="yes"/>
      <point x="468" y="76"/>
      <point x="330" y="-8"/>
    </contour>
  </outline>
</glyph>
<glyph name="quotesingle" format="1">
  <advance width="160"/>
  <unicode hex="0027"/>
  <outline>
    <contour>
      <point x="217" y="611" type="curve" smooth="yes"/>
      <point x="237" y="611"/>
      <point x="240" y="598"/>
      <point x="230" y="577" type="curve" smooth="yes"/>
      <point x="208" y="528"/>
      <point x="175" y="468"/>
      <point x="157" y="413" type="curve"/>
      <point x="152" y="394"/>
      <point x="139" y="384"/>
      <point x="129" y="384" type="curve" smooth="yes"/>
      <point x="119" y="384"/>
      <point x="109" y="391"/>
      <point x="114" y="413" type="curve" smooth="yes"/>
      <point x="122" y="457"/>
      <point x="123" y="526"/>
      <point x="123" y="572" type="curve" smooth="yes"/>
      <point x="123" y="601"/>
      <point x="136" y="603"/>
      <point x="152" y="606" type="curve" smooth="yes"/>
      <point x="167" y="609"/>
      <point x="205" y="611"/>
    </contour>
  </outline>
</glyph>
<glyph name="parenleft" format="1">
  <advance width="301"/>
  <unicode hex="0028"/>
  <outline>
    <contour>
      <point x="354" y="635" type="curve"/>
      <point x="359" y="625"/>
      <point x="358" y="611"/>
      <point x="338" y="592" type="curve" smooth="yes"/>
      <point x="262" y="524"/>
      <point x="189" y="369"/>
      <point x="173" y="221" type="curve"/>
      <point x="162" y="141"/>
      <point x="166" y="29"/>
      <point x="192" y="-27" type="curve" smooth="yes"/>
      <point x="197" y="-36"/>
      <point x="200" y="-52"/>
      <point x="189" y="-61" type="curve" smooth="yes"/>
      <point x="179" y="-68"/>
      <point x="164" y="-56"/>
      <point x="150" y="-41" type="curve" smooth="yes"/>
      <point x="96" y="12"/>
      <point x="61" y="125"/>
      <point x="76" y="242" type="curve"/>
      <point x="103" y="415"/>
      <point x="213" y="554"/>
      <point x="301" y="620" type="curve" smooth="yes"/>
      <point x="319" y="634"/>
      <point x="345" y="646"/>
    </contour>
  </outline>
</glyph>
<glyph name="parenright" format="1">
  <advance width="301"/>
  <unicode hex="0029"/>
  <outline>
    <contour>
      <point x="-3" y="-56" type="curve"/>
      <point x="-8" y="-47"/>
      <point x="-7" y="-33"/>
      <point x="14" y="-14" type="curve" smooth="yes"/>
      <point x="89" y="54"/>
      <point x="163" y="210"/>
      <point x="179" y="357" type="curve"/>
      <point x="189" y="438"/>
      <point x="186" y="551"/>
      <point x="159" y="607" type="curve" smooth="yes"/>
      <point x="155" y="616"/>
      <point x="152" y="632"/>
      <point x="162" y="641" type="curve"/>
      <point x="173" y="648"/>
      <point x="188" y="636"/>
      <point x="203" y="621" type="curve" smooth="yes"/>
      <point x="255" y="568"/>
      <point x="291" y="454"/>
      <point x="276" y="338" type="curve"/>
      <point x="249" y="163"/>
      <point x="139" y="24"/>
      <point x="50" y="-42" type="curve" smooth="yes"/>
      <point x="32" y="-56"/>
      <point x="6" y="-69"/>
    </contour>
  </outline>
</glyph>
<glyph name="asterisk" format="1">
  <advance width="412"/>
  <unicode hex="002A"/>
  <outline>
    <contour>
      <point x="280" y="519" type="curve" smooth="yes"/>
      <point x="275" y="504"/>
      <point x="261" y="484"/>
      <point x="253" y="460" type="curve"/>
      <point x="248" y="449"/>
      <point x="254" y="444"/>
      <point x="266" y="446" type="curve" smooth="yes"/>
      <point x="302" y="451"/>
      <point x="350" y="465"/>
      <point x="378" y="477" type="curve" smooth="yes"/>
      <point x="417" y="495"/>
      <point x="416" y="464"/>
      <point x="406" y="437" type="curve" smooth="yes"/>
      <point x="396" y="411"/>
      <point x="375" y="399"/>
      <point x="340" y="399" type="curve"/>
      <point x="325" y="398"/>
      <point x="300" y="399"/>
      <point x="274" y="398" type="curve" smooth="yes"/>
      <point x="264" y="398"/>
      <point x="259" y="392"/>
      <point x="263" y="381" type="curve"/>
      <point x="279" y="347"/>
      <point x="306" y="305"/>
      <point x="324" y="282" type="curve"/>
      <point x="352" y="250"/>
      <point x="320" y="242"/>
      <point x="293" y="245" type="curve"/>
      <point x="266" y="246"/>
      <point x="247" y="266"/>
      <point x="234" y="298" type="curve" smooth="yes"/>
      <point x="228" y="312"/>
      <point x="217" y="346"/>
      <point x="210" y="370" type="curve" smooth="yes"/>
      <point x="206" y="383"/>
      <point x="198" y="380"/>
      <point x="189" y="376" type="curve" smooth="yes"/>
      <point x="158" y="360"/>
      <point x="117" y="320"/>
      <point x="92" y="297" type="curve" smooth="yes"/>
      <point x="61" y="267"/>
      <point x="48" y="294"/>
      <point x="49" y="322" type="curve"/>
      <point x="48" y="352"/>
      <point x="61" y="367"/>
      <point x="93" y="380" type="curve"/>
      <point x="107" y="387"/>
      <point x="136" y="401"/>
      <point x="161" y="409" type="curve"/>
      <point x="173" y="414"/>
      <point x="170" y="424"/>
      <point x="164" y="429" type="curve" smooth="yes"/>
      <point x="135" y="454"/>
      <point x="95" y="475"/>
      <point x="61" y="488" type="curve" smooth="yes"/>
      <point x="24" y="503"/>
      <point x="45" y="519"/>
      <point x="69" y="531" type="curve" smooth="yes"/>
      <point x="94" y="543"/>
      <point x="115" y="543"/>
      <point x="142" y="520" type="curve" smooth="yes"/>
      <point x="153" y="511"/>
      <point x="171" y="490"/>
      <point x="188" y="469" type="curve" smooth="yes"/>
      <point x="194" y="462"/>
      <point x="206" y="464"/>
      <point x="210" y="478" type="curve" smooth="yes"/>
      <point x="218" y="513"/>
      <point x="220" y="557"/>
      <point x="219" y="586" type="curve" smooth="yes"/>
      <point x="217" y="627"/>
      <point x="248" y="610"/>
      <point x="270" y="592" type="curve"/>
      <point x="290" y="572"/>
      <point x="291" y="553"/>
    </contour>
  </outline>
</glyph>
<glyph name="plus" format="1">
  <advance width="455"/>
  <unicode hex="002B"/>
  <outline>
    <contour>
      <point x="73" y="269" type="curve" smooth="yes"/>
      <point x="51" y="269"/>
      <point x="44" y="279"/>
      <point x="53" y="292" type="curve" smooth="yes"/>
      <point x="62" y="306"/>
      <point x="77" y="311"/>
      <point x="98" y="311" type="curve" smooth="yes"/>
      <point x="144" y="311"/>
      <point x="178" y="312"/>
      <point x="211" y="313" type="curve" smooth="yes"/>
      <point x="227" y="314"/>
      <point x="229" y="317"/>
      <point x="233" y="333" type="curve" smooth="yes"/>
      <point x="241" y="364"/>
      <point x="248" y="391"/>
      <point x="257" y="431" type="curve" smooth="yes"/>
      <point x="262" y="453"/>
      <point x="269" y="465"/>
      <point x="285" y="473" type="curve"/>
      <point x="300" y="479"/>
      <point x="310" y="471"/>
      <point x="306" y="449" type="curve"/>
      <point x="301" y="428"/>
      <point x="291" y="388"/>
      <point x="280" y="338" type="curve"/>
      <point x="278" y="319"/>
      <point x="279" y="316"/>
      <point x="293" y="316" type="curve"/>
      <point x="327" y="319"/>
      <point x="351" y="322"/>
      <point x="390" y="326" type="curve" smooth="yes"/>
      <point x="416" y="328"/>
      <point x="438" y="335"/>
      <point x="434" y="316" type="curve" smooth="yes"/>
      <point x="432" y="308"/>
      <point x="417" y="288"/>
      <point x="398" y="279" type="curve" smooth="yes"/>
      <point x="385" y="272"/>
      <point x="371" y="272"/>
      <point x="359" y="272" type="curve" smooth="yes"/>
      <point x="343" y="271"/>
      <point x="320" y="271"/>
      <point x="285" y="270" type="curve" smooth="yes"/>
      <point x="269" y="269"/>
      <point x="266" y="267"/>
      <point x="263" y="250" type="curve" smooth="yes"/>
      <point x="256" y="213"/>
      <point x="247" y="180"/>
      <point x="244" y="163" type="curve" smooth="yes"/>
      <point x="241" y="151"/>
      <point x="237" y="137"/>
      <point x="229" y="125" type="curve" smooth="yes"/>
      <point x="217" y="109"/>
      <point x="190" y="98"/>
      <point x="183" y="98" type="curve" smooth="yes"/>
      <point x="163" y="98"/>
      <point x="175" y="117"/>
      <point x="184" y="143" type="curve"/>
      <point x="194" y="183"/>
      <point x="205" y="217"/>
      <point x="214" y="253" type="curve"/>
      <point x="220" y="269"/>
      <point x="215" y="270"/>
      <point x="199" y="270" type="curve" smooth="yes"/>
      <point x="145" y="269"/>
      <point x="95" y="269"/>
    </contour>
  </outline>
</glyph>
<glyph name="hyphen" format="1">
  <advance width="305"/>
  <unicode hex="002D"/>
  <outline>
    <contour>
      <point x="77" y="298" type="curve" smooth="yes"/>
      <point x="100" y="303"/>
      <point x="193" y="303"/>
      <point x="237" y="320" type="curve" smooth="yes"/>
      <point x="281" y="336"/>
      <point x="271" y="311"/>
      <point x="256" y="284" type="curve"/>
      <point x="242" y="256"/>
      <point x="220" y="247"/>
      <point x="182" y="246" type="curve" smooth="yes"/>
      <point x="152" y="245"/>
      <point x="90" y="244"/>
      <point x="64" y="244" type="curve" smooth="yes"/>
      <point x="40" y="244"/>
      <point x="32" y="252"/>
      <point x="41" y="272" type="curve" smooth="yes"/>
      <point x="48" y="289"/>
      <point x="61" y="294"/>
    </contour>
  </outline>
</glyph>
<glyph name="period" format="1">
  <advance width="218"/>
  <unicode hex="002E"/>
  <outline>
    <contour>
      <point x="107" y="96" type="curve" smooth="yes"/>
      <point x="133" y="98"/>
      <point x="165" y="84"/>
      <point x="165" y="56" type="curve" smooth="yes"/>
      <point x="165" y="10"/>
      <point x="128" y="-4"/>
      <point x="104" y="-8" type="curve"/>
      <point x="59" y="-13"/>
      <point x="40" y="13"/>
      <point x="40" y="38" type="curve" smooth="yes"/>
      <point x="40" y="73"/>
      <point x="77" y="93"/>
    </contour>
  </outline>
</glyph>
<glyph name="slash" format="1">
  <advance width="366"/>
  <unicode hex="002F"/>
  <outline>
    <contour>
      <point x="-3" y="-28" type="curve"/>
      <point x="-23" y="-24"/>
      <point x="-15" y="-7"/>
      <point x="20" y="38" type="curve" smooth="yes"/>
      <point x="79" y="114"/>
      <point x="330" y="455"/>
      <point x="381" y="531" type="curve"/>
      <point x="396" y="551"/>
      <point x="412" y="582"/>
      <point x="423" y="604" type="curve"/>
      <point x="432" y="616"/>
      <point x="453" y="616"/>
      <point x="453" y="607" type="curve" smooth="yes"/>
      <point x="452" y="580"/>
      <point x="448" y="549"/>
      <point x="441" y="529" type="curve" smooth="yes"/>
      <point x="432" y="501"/>
      <point x="426" y="490"/>
      <point x="407" y="466" type="curve" smooth="yes"/>
      <point x="366" y="415"/>
      <point x="126" y="109"/>
      <point x="55" y="13" type="curve"/>
      <point x="25" y="-24"/>
      <point x="8" y="-29"/>
    </contour>
  </outline>
</glyph>
<glyph name="zero" format="1">
  <advance width="517"/>
  <unicode hex="0030"/>
  <outline>
    <contour>
      <point x="345" y="606" type="curve" smooth="yes"/>
      <point x="457" y="606"/>
      <point x="509" y="524"/>
      <point x="507" y="412" type="curve" smooth="yes"/>
      <point x="502" y="169"/>
      <point x="368" y="-14"/>
      <point x="223" y="-14" type="curve" smooth="yes"/>
      <point x="67" y="-14"/>
      <point x="51" y="119"/>
      <point x="53" y="195" type="curve" smooth="yes"/>
      <point x="61" y="422"/>
      <point x="191" y="606"/>
    </contour>
    <contour>
      <point x="330" y="551" type="curve" smooth="yes"/>
      <point x="221" y="551"/>
      <point x="170" y="373"/>
      <point x="159" y="224" type="curve" smooth="yes"/>
      <point x="149" y="86"/>
      <point x="177" y="39"/>
      <point x="232" y="39" type="curve" smooth="yes"/>
      <point x="309" y="39"/>
      <point x="387" y="143"/>
      <point x="405" y="400" type="curve" smooth="yes"/>
      <point x="412" y="498"/>
      <point x="375" y="551"/>
    </contour>
  </outline>
</glyph>
<glyph name="one" format="1">
  <advance width="356"/>
  <unicode hex="0031"/>
  <outline>
    <contour>
      <point x="97" y="-8" type="curve" smooth="yes"/>
      <point x="77" y="-12"/>
      <point x="65" y="3"/>
      <point x="74" y="29" type="curve"/>
      <point x="105" y="100"/>
      <point x="210" y="392"/>
      <point x="228" y="448" type="curve" smooth="yes"/>
      <point x="234" y="465"/>
      <point x="223" y="469"/>
      <point x="210" y="458" type="curve"/>
      <point x="179" y="436"/>
      <point x="130" y="391"/>
      <point x="109" y="371" type="curve" smooth="yes"/>
      <point x="97" y="359"/>
      <point x="84" y="368"/>
      <point x="79" y="375" type="curve" smooth="yes"/>
      <point x="75" y="380"/>
      <point x="76" y="399"/>
      <point x="89" y="410" type="curve" smooth="yes"/>
      <point x="141" y="450"/>
      <point x="222" y="527"/>
      <point x="274" y="579" type="curve" smooth="yes"/>
      <point x="290" y="595"/>
      <point x="334" y="608"/>
      <point x="352" y="608" type="curve" smooth="yes"/>
      <point x="377" y="608"/>
      <point x="369" y="597"/>
      <point x="354" y="560" type="curve" smooth="yes"/>
      <point x="285" y="386"/>
      <point x="243" y="261"/>
      <point x="206" y="66" type="curve"/>
      <point x="202" y="39"/>
      <point x="202" y="29"/>
      <point x="170" y="12" type="curve" smooth="yes"/>
      <point x="147" y="0"/>
      <point x="116" y="-5"/>
    </contour>
  </outline>
</glyph>
<glyph name="two" format="1">
  <advance width="523"/>
  <unicode hex="0032"/>
  <outline>
    <contour>
      <point x="237" y="649" type="curve" smooth="yes"/>
      <point x="247" y="646"/>
      <point x="252" y="637"/>
      <point x="246" y="627" type="curve" smooth="yes"/>
      <point x="242" y="619"/>
      <point x="217" y="569"/>
      <point x="254" y="569" type="curve" smooth="yes"/>
      <point x="283" y="569"/>
      <point x="306" y="577"/>
      <point x="338" y="586" type="curve" smooth="yes"/>
      <point x="350" y="590"/>
      <point x="400" y="603"/>
      <point x="416" y="603" type="curve" smooth="yes"/>
      <point x="468" y="603"/>
      <point x="499" y="575"/>
      <point x="499" y="525" type="curve"/>
      <point x="484" y="429"/>
      <point x="428" y="356"/>
      <point x="355" y="286" type="curve" smooth="yes"/>
      <point x="291" y="225"/>
      <point x="261" y="199"/>
      <point x="202" y="153" type="curve" smooth="yes"/>
      <point x="173" y="131"/>
      <point x="184" y="127"/>
      <point x="206" y="136" type="curve" smooth="yes"/>
      <point x="219" y="142"/>
      <point x="231" y="146"/>
      <point x="258" y="146" type="curve" smooth="yes"/>
      <point x="280" y="146"/>
      <point x="306" y="134"/>
      <point x="320" y="123" type="curve" smooth="yes"/>
      <point x="337" y="111"/>
      <point x="349" y="106"/>
      <point x="379" y="106" type="curve" smooth="yes"/>
      <point x="407" y="106"/>
      <point x="434" y="121"/>
      <point x="439" y="143" type="curve"/>
      <point x="439" y="150"/>
      <point x="449" y="173"/>
      <point x="460" y="173" type="curve" smooth="yes"/>
      <point x="477" y="174"/>
      <point x="481" y="156"/>
      <point x="481" y="141" type="curve" smooth="yes"/>
      <point x="481" y="95"/>
      <point x="425" y="-8"/>
      <point x="332" y="-8" type="curve" smooth="yes"/>
      <point x="311" y="-8"/>
      <point x="304" y="-3"/>
      <point x="291" y="8" type="curve" smooth="yes"/>
      <point x="256" y="41"/>
      <point x="226" y="50"/>
      <point x="192" y="50" type="curve" smooth="yes"/>
      <point x="136" y="50"/>
      <point x="70" y="29"/>
      <point x="47" y="10" type="curve" smooth="yes"/>
      <point x="35" y="0"/>
      <point x="6" y="-13"/>
      <point x="-8" y="1" type="curve" smooth="yes"/>
      <point x="-19" y="11"/>
      <point x="-13" y="26"/>
      <point x="-3" y="46" type="curve"/>
      <point x="6" y="70"/>
      <point x="32" y="103"/>
      <point x="45" y="109" type="curve" smooth="yes"/>
      <point x="51" y="112"/>
      <point x="64" y="118"/>
      <point x="80" y="122" type="curve" smooth="yes"/>
      <point x="116" y="132"/>
      <point x="129" y="139"/>
      <point x="161" y="164" type="curve" smooth="yes"/>
      <point x="231" y="218"/>
      <point x="405" y="379"/>
      <point x="405" y="464" type="curve" smooth="yes"/>
      <point x="405" y="488"/>
      <point x="385" y="504"/>
      <point x="361" y="504" type="curve" smooth="yes"/>
      <point x="341" y="504"/>
      <point x="307" y="496"/>
      <point x="276" y="485" type="curve" smooth="yes"/>
      <point x="258" y="478"/>
      <point x="227" y="471"/>
      <point x="197" y="471" type="curve" smooth="yes"/>
      <point x="162" y="471"/>
      <point x="153" y="505"/>
      <point x="158" y="542" type="curve" smooth="yes"/>
      <point x="162" y="576"/>
      <point x="192" y="614"/>
      <point x="203" y="628" type="curve" smooth="yes"/>
      <point x="214" y="641"/>
      <point x="230" y="651"/>
    </contour>
  </outline>
</glyph>
<glyph name="three" format="1">
  <advance width="471"/>
  <unicode hex="0033"/>
  <outline>
    <contour>
      <point x="116" y="-8" type="curve" smooth="yes"/>
      <point x="45" y="-8"/>
      <point x="2" y="16"/>
      <point x="2" y="61" type="curve" smooth="yes"/>
      <point x="2" y="106"/>
      <point x="45" y="144"/>
      <point x="83" y="159" type="curve"/>
      <point x="103" y="168"/>
      <point x="126" y="161"/>
      <point x="113" y="139" type="curve" smooth="yes"/>
      <point x="89" y="100"/>
      <point x="109" y="54"/>
      <point x="175" y="54" type="curve" smooth="yes"/>
      <point x="265" y="54"/>
      <point x="332" y="108"/>
      <point x="332" y="184" type="curve" smooth="yes"/>
      <point x="332" y="247"/>
      <point x="289" y="265"/>
      <point x="236" y="265" type="curve" smooth="yes"/>
      <point x="159" y="265"/>
      <point x="153" y="274"/>
      <point x="175" y="317" type="curve" smooth="yes"/>
      <point x="185" y="337"/>
      <point x="197" y="358"/>
      <point x="221" y="359" type="curve" smooth="yes"/>
      <point x="287" y="362"/>
      <point x="362" y="412"/>
      <point x="362" y="461" type="curve" smooth="yes"/>
      <point x="362" y="505"/>
      <point x="327" y="505"/>
      <point x="310" y="505" type="curve" smooth="yes"/>
      <point x="285" y="505"/>
      <point x="269" y="500"/>
      <point x="251" y="492" type="curve" smooth="yes"/>
      <point x="231" y="483"/>
      <point x="207" y="475"/>
      <point x="179" y="475" type="curve" smooth="yes"/>
      <point x="144" y="475"/>
      <point x="117" y="496"/>
      <point x="120" y="541" type="curve" smooth="yes"/>
      <point x="123" y="571"/>
      <point x="152" y="615"/>
      <point x="165" y="631" type="curve" smooth="yes"/>
      <point x="175" y="643"/>
      <point x="192" y="655"/>
      <point x="198" y="652" type="curve" smooth="yes"/>
      <point x="210" y="645"/>
      <point x="205" y="628"/>
      <point x="200" y="623" type="curve"/>
      <point x="185" y="593"/>
      <point x="185" y="583"/>
      <point x="196" y="572" type="curve"/>
      <point x="205" y="567"/>
      <point x="236" y="567"/>
      <point x="295" y="588" type="curve"/>
      <point x="314" y="593"/>
      <point x="341" y="598"/>
      <point x="366" y="598" type="curve" smooth="yes"/>
      <point x="439" y="598"/>
      <point x="450" y="542"/>
      <point x="450" y="512" type="curve" smooth="yes"/>
      <point x="450" y="447"/>
      <point x="390" y="396"/>
      <point x="338" y="365" type="curve" smooth="yes"/>
      <point x="296" y="339"/>
      <point x="309" y="336"/>
      <point x="332" y="333" type="curve" smooth="yes"/>
      <point x="397" y="326"/>
      <point x="428" y="278"/>
      <point x="428" y="216" type="curve" smooth="yes"/>
      <point x="428" y="125"/>
      <point x="299" y="-8"/>
    </contour>
  </outline>
</glyph>
<glyph name="four" format="1">
  <advance width="550"/>
  <unicode hex="0034"/>
  <outline>
    <contour>
      <point x="313" y="483" type="curve" smooth="yes"/>
      <point x="324" y="493"/>
      <point x="348" y="521"/>
      <point x="359" y="537" type="curve" smooth="yes"/>
      <point x="378" y="567"/>
      <point x="398" y="580"/>
      <point x="407" y="583" type="curve" smooth="yes"/>
      <point x="423" y="588"/>
      <point x="456" y="592"/>
      <point x="461" y="593" type="curve" smooth="yes"/>
      <point x="504" y="599"/>
      <point x="495" y="570"/>
      <point x="471" y="520" type="curve" smooth="yes"/>
      <point x="463" y="502"/>
      <point x="414" y="310"/>
      <point x="405" y="242" type="curve" smooth="yes"/>
      <point x="404" y="234"/>
      <point x="414" y="234"/>
      <point x="443" y="234" type="curve" smooth="yes"/>
      <point x="473" y="234"/>
      <point x="488" y="249"/>
      <point x="503" y="269" type="curve" smooth="yes"/>
      <point x="518" y="290"/>
      <point x="543" y="280"/>
      <point x="537" y="263" type="curve" smooth="yes"/>
      <point x="525" y="227"/>
      <point x="503" y="189"/>
      <point x="479" y="165" type="curve" smooth="yes"/>
      <point x="469" y="154"/>
      <point x="459" y="148"/>
      <point x="449" y="148" type="curve" smooth="yes"/>
      <point x="435" y="148"/>
      <point x="425" y="150"/>
      <point x="411" y="150" type="curve" smooth="yes"/>
      <point x="395" y="150"/>
      <point x="387" y="141"/>
      <point x="381" y="113" type="curve" smooth="yes"/>
      <point x="376" y="89"/>
      <point x="369" y="61"/>
      <point x="370" y="38" type="curve" smooth="yes"/>
      <point x="371" y="20"/>
      <point x="363" y="2"/>
      <point x="348" y="-10" type="curve" smooth="yes"/>
      <point x="325" y="-29"/>
      <point x="277" y="-40"/>
      <point x="260" y="-40" type="curve" smooth="yes"/>
      <point x="246" y="-40"/>
      <point x="238" y="-32"/>
      <point x="238" y="-18" type="curve" smooth="yes"/>
      <point x="238" y="-4"/>
      <point x="254" y="35"/>
      <point x="261" y="51" type="curve" smooth="yes"/>
      <point x="273" y="81"/>
      <point x="278" y="103"/>
      <point x="285" y="141" type="curve" smooth="yes"/>
      <point x="289" y="162"/>
      <point x="284" y="160"/>
      <point x="268" y="162" type="curve" smooth="yes"/>
      <point x="258" y="164"/>
      <point x="222" y="165"/>
      <point x="212" y="165" type="curve" smooth="yes"/>
      <point x="157" y="165"/>
      <point x="131" y="147"/>
      <point x="77" y="147" type="curve" smooth="yes"/>
      <point x="43" y="147"/>
      <point x="39" y="152"/>
      <point x="39" y="163" type="curve" smooth="yes"/>
      <point x="39" y="173"/>
      <point x="44" y="209"/>
      <point x="51" y="225" type="curve" smooth="yes"/>
      <point x="61" y="245"/>
      <point x="68" y="253"/>
      <point x="88" y="274" type="curve"/>
      <point x="123" y="306"/>
      <point x="284" y="454"/>
    </contour>
    <contour>
      <point x="366" y="452" type="curve" smooth="yes"/>
      <point x="370" y="473"/>
      <point x="366" y="475"/>
      <point x="346" y="458" type="curve" smooth="yes"/>
      <point x="267" y="388"/>
      <point x="226" y="345"/>
      <point x="137" y="260" type="curve" smooth="yes"/>
      <point x="124" y="247"/>
      <point x="136" y="240"/>
      <point x="150" y="240" type="curve" smooth="yes"/>
      <point x="173" y="240"/>
      <point x="200" y="248"/>
      <point x="219" y="248" type="curve" smooth="yes"/>
      <point x="240" y="248"/>
      <point x="271" y="246"/>
      <point x="287" y="241" type="curve" smooth="yes"/>
      <point x="301" y="237"/>
      <point x="307" y="237"/>
      <point x="314" y="256" type="curve" smooth="yes"/>
      <point x="332" y="303"/>
      <point x="355" y="401"/>
    </contour>
  </outline>
</glyph>
<glyph name="five" format="1">
  <advance width="468"/>
  <unicode hex="0035"/>
  <outline>
    <contour>
      <point x="444" y="637" type="curve" smooth="yes"/>
      <point x="453" y="635"/>
      <point x="456" y="617"/>
      <point x="450" y="598" type="curve" smooth="yes"/>
      <point x="448" y="589"/>
      <point x="423" y="522"/>
      <point x="417" y="510" type="curve" smooth="yes"/>
      <point x="398" y="478"/>
      <point x="369" y="473"/>
      <point x="334" y="473" type="curve" smooth="yes"/>
      <point x="301" y="473"/>
      <point x="257" y="491"/>
      <point x="232" y="503" type="curve" smooth="yes"/>
      <point x="212" y="513"/>
      <point x="202" y="512"/>
      <point x="194" y="497" type="curve" smooth="yes"/>
      <point x="184" y="479"/>
      <point x="177" y="456"/>
      <point x="171" y="440" type="curve"/>
      <point x="167" y="426"/>
      <point x="170" y="416"/>
      <point x="190" y="412" type="curve" smooth="yes"/>
      <point x="233" y="402"/>
      <point x="287" y="385"/>
      <point x="308" y="376" type="curve" smooth="yes"/>
      <point x="379" y="348"/>
      <point x="435" y="308"/>
      <point x="435" y="229" type="curve" smooth="yes"/>
      <point x="435" y="123"/>
      <point x="305" y="-12"/>
      <point x="144" y="-12" type="curve" smooth="yes"/>
      <point x="58" y="-12"/>
      <point x="21" y="13"/>
      <point x="21" y="61" type="curve" smooth="yes"/>
      <point x="21" y="95"/>
      <point x="44" y="126"/>
      <point x="89" y="154" type="curve" smooth="yes"/>
      <point x="113" y="168"/>
      <point x="122" y="167"/>
      <point x="133" y="161" type="curve" smooth="yes"/>
      <point x="139" y="157"/>
      <point x="137" y="149"/>
      <point x="130" y="127" type="curve" smooth="yes"/>
      <point x="117" y="90"/>
      <point x="128" y="48"/>
      <point x="190" y="48" type="curve" smooth="yes"/>
      <point x="258" y="48"/>
      <point x="350" y="98"/>
      <point x="350" y="189" type="curve" smooth="yes"/>
      <point x="350" y="247"/>
      <point x="325" y="262"/>
      <point x="275" y="285" type="curve" smooth="yes"/>
      <point x="223" y="310"/>
      <point x="168" y="320"/>
      <point x="94" y="337" type="curve" smooth="yes"/>
      <point x="78" y="340"/>
      <point x="71" y="348"/>
      <point x="82" y="366" type="curve" smooth="yes"/>
      <point x="107" y="406"/>
      <point x="155" y="526"/>
      <point x="178" y="572" type="curve" smooth="yes"/>
      <point x="188" y="594"/>
      <point x="189" y="599"/>
      <point x="223" y="599" type="curve" smooth="yes"/>
      <point x="248" y="599"/>
      <point x="267" y="592"/>
      <point x="293" y="585" type="curve" smooth="yes"/>
      <point x="308" y="580"/>
      <point x="328" y="577"/>
      <point x="343" y="577" type="curve" smooth="yes"/>
      <point x="372" y="577"/>
      <point x="400" y="572"/>
      <point x="420" y="625" type="curve" smooth="yes"/>
      <point x="423" y="633"/>
      <point x="434" y="640"/>
    </contour>
  </outline>
</glyph>
<glyph name="six" format="1">
  <advance width="501"/>
  <unicode hex="0036"/>
  <outline>
    <contour>
      <point x="461" y="613" type="curve" smooth="yes"/>
      <point x="471" y="601"/>
      <point x="462" y="583"/>
      <point x="412" y="565" type="curve" smooth="yes"/>
      <point x="269" y="512"/>
      <point x="145" y="374"/>
      <point x="142" y="225" type="curve"/>
      <point x="141" y="119"/>
      <point x="170" y="56"/>
      <point x="253" y="56" type="curve" smooth="yes"/>
      <point x="326" y="56"/>
      <point x="375" y="136"/>
      <point x="376" y="228" type="curve" smooth="yes"/>
      <point x="377" y="287"/>
      <point x="352" y="332"/>
      <point x="308" y="332" type="curve" smooth="yes"/>
      <point x="279" y="332"/>
      <point x="271" y="329"/>
      <point x="253" y="321" type="curve"/>
      <point x="239" y="313"/>
      <point x="219" y="308"/>
      <point x="215" y="316" type="curve" smooth="yes"/>
      <point x="209" y="329"/>
      <point x="219" y="339"/>
      <point x="238" y="354" type="curve"/>
      <point x="279" y="380"/>
      <point x="318" y="398"/>
      <point x="361" y="398" type="curve" smooth="yes"/>
      <point x="432" y="398"/>
      <point x="467" y="341"/>
      <point x="466" y="273" type="curve" smooth="yes"/>
      <point x="464" y="140"/>
      <point x="342" y="-13"/>
      <point x="203" y="-13" type="curve" smooth="yes"/>
      <point x="115" y="-13"/>
      <point x="46" y="63"/>
      <point x="49" y="187" type="curve"/>
      <point x="52" y="374"/>
      <point x="222" y="540"/>
      <point x="391" y="600" type="curve" smooth="yes"/>
      <point x="411" y="608"/>
      <point x="454" y="621"/>
    </contour>
  </outline>
</glyph>
<glyph name="seven" format="1">
  <advance width="473"/>
  <unicode hex="0037"/>
  <outline>
    <contour>
      <point x="135" y="-33" type="curve" smooth="yes"/>
      <point x="114" y="-37"/>
      <point x="97" y="-27"/>
      <point x="97" y="8" type="curve" smooth="yes"/>
      <point x="97" y="110"/>
      <point x="327" y="423"/>
      <point x="382" y="495" type="curve" smooth="yes"/>
      <point x="399" y="517"/>
      <point x="396" y="522"/>
      <point x="361" y="512" type="curve"/>
      <point x="301" y="497"/>
      <point x="231" y="485"/>
      <point x="191" y="485" type="curve" smooth="yes"/>
      <point x="132" y="485"/>
      <point x="116" y="508"/>
      <point x="116" y="551" type="curve" smooth="yes"/>
      <point x="116" y="586"/>
      <point x="131" y="609"/>
      <point x="154" y="642" type="curve" smooth="yes"/>
      <point x="162" y="654"/>
      <point x="177" y="663"/>
      <point x="186" y="661" type="curve"/>
      <point x="199" y="655"/>
      <point x="196" y="643"/>
      <point x="193" y="633" type="curve" smooth="yes"/>
      <point x="181" y="598"/>
      <point x="200" y="586"/>
      <point x="298" y="586" type="curve" smooth="yes"/>
      <point x="370" y="586"/>
      <point x="408" y="596"/>
      <point x="494" y="614" type="curve" smooth="yes"/>
      <point x="530" y="622"/>
      <point x="535" y="598"/>
      <point x="518" y="582" type="curve"/>
      <point x="394" y="453"/>
      <point x="228" y="205"/>
      <point x="228" y="69" type="curve" smooth="yes"/>
      <point x="228" y="15"/>
      <point x="227" y="16"/>
      <point x="208" y="1" type="curve" smooth="yes"/>
      <point x="193" y="-12"/>
      <point x="154" y="-29"/>
    </contour>
  </outline>
</glyph>
<glyph name="eight" format="1">
  <advance width="511"/>
  <unicode hex="0038"/>
  <outline>
    <contour>
      <point x="211" y="-15" type="curve" smooth="yes"/>
      <point x="112" y="-15"/>
      <point x="35" y="33"/>
      <point x="35" y="123" type="curve" smooth="yes"/>
      <point x="35" y="202"/>
      <point x="90" y="274"/>
      <point x="159" y="309" type="curve" smooth="yes"/>
      <point x="175" y="316"/>
      <point x="194" y="323"/>
      <point x="170" y="343" type="curve" smooth="yes"/>
      <point x="157" y="354"/>
      <point x="134" y="386"/>
      <point x="134" y="429" type="curve" smooth="yes"/>
      <point x="134" y="545"/>
      <point x="260" y="609"/>
      <point x="359" y="609" type="curve" smooth="yes"/>
      <point x="434" y="609"/>
      <point x="497" y="574"/>
      <point x="497" y="497" type="curve" smooth="yes"/>
      <point x="497" y="427"/>
      <point x="457" y="385"/>
      <point x="407" y="352" type="curve" smooth="yes"/>
      <point x="386" y="339"/>
      <point x="386" y="334"/>
      <point x="407" y="321" type="curve" smooth="yes"/>
      <point x="446" y="295"/>
      <point x="473" y="261"/>
      <point x="473" y="199" type="curve" smooth="yes"/>
      <point x="471" y="67"/>
      <point x="334" y="-15"/>
    </contour>
    <contour>
      <point x="261" y="40" type="curve" smooth="yes"/>
      <point x="322" y="40"/>
      <point x="389" y="93"/>
      <point x="389" y="157" type="curve" smooth="yes"/>
      <point x="389" y="231"/>
      <point x="311" y="261"/>
      <point x="244" y="290" type="curve" smooth="yes"/>
      <point x="227" y="297"/>
      <point x="219" y="297"/>
      <point x="204" y="289" type="curve" smooth="yes"/>
      <point x="167" y="269"/>
      <point x="129" y="213"/>
      <point x="129" y="141" type="curve" smooth="yes"/>
      <point x="129" y="87"/>
      <point x="172" y="40"/>
    </contour>
    <contour>
      <point x="374" y="378" type="curve" smooth="yes"/>
      <point x="396" y="400"/>
      <point x="412" y="434"/>
      <point x="412" y="475" type="curve" smooth="yes"/>
      <point x="412" y="535"/>
      <point x="364" y="556"/>
      <point x="321" y="556" type="curve" smooth="yes"/>
      <point x="260" y="556"/>
      <point x="217" y="519"/>
      <point x="217" y="458" type="curve" smooth="yes"/>
      <point x="217" y="407"/>
      <point x="268" y="388"/>
      <point x="320" y="366" type="curve" smooth="yes"/>
      <point x="343" y="356"/>
      <point x="357" y="361"/>
    </contour>
  </outline>
</glyph>
<glyph name="nine" format="1">
  <advance width="493"/>
  <unicode hex="0039"/>
  <outline>
    <contour>
      <point x="93" y="-27" type="curve" smooth="yes"/>
      <point x="86" y="-22"/>
      <point x="85" y="0"/>
      <point x="106" y="10" type="curve" smooth="yes"/>
      <point x="267" y="91"/>
      <point x="381" y="222"/>
      <point x="392" y="407" type="curve" smooth="yes"/>
      <point x="398" y="507"/>
      <point x="374" y="546"/>
      <point x="322" y="546" type="curve" smooth="yes"/>
      <point x="251" y="546"/>
      <point x="172" y="486"/>
      <point x="171" y="359" type="curve" smooth="yes"/>
      <point x="171" y="285"/>
      <point x="218" y="279"/>
      <point x="272" y="295" type="curve"/>
      <point x="292" y="302"/>
      <point x="298" y="295"/>
      <point x="304" y="288" type="curve" smooth="yes"/>
      <point x="307" y="284"/>
      <point x="297" y="269"/>
      <point x="280" y="258" type="curve" smooth="yes"/>
      <point x="256" y="242"/>
      <point x="226" y="227"/>
      <point x="178" y="227" type="curve" smooth="yes"/>
      <point x="109" y="227"/>
      <point x="73" y="283"/>
      <point x="73" y="343" type="curve" smooth="yes"/>
      <point x="72" y="467"/>
      <point x="202" y="599"/>
      <point x="346" y="599" type="curve" smooth="yes"/>
      <point x="433" y="599"/>
      <point x="494" y="546"/>
      <point x="492" y="451" type="curve" smooth="yes"/>
      <point x="486" y="258"/>
      <point x="348" y="72"/>
      <point x="144" y="-16" type="curve" smooth="yes"/>
      <point x="125" y="-24"/>
      <point x="102" y="-34"/>
    </contour>
  </outline>
</glyph>
<glyph name="colon" format="1">
  <advance width="239"/>
  <unicode hex="003A"/>
  <outline>
    <contour>
      <point x="107" y="96" type="curve" smooth="yes"/>
      <point x="133" y="98"/>
      <point x="165" y="84"/>
      <point x="165" y="56" type="curve" smooth="yes"/>
      <point x="165" y="10"/>
      <point x="128" y="-4"/>
      <point x="104" y="-8" type="curve"/>
      <point x="59" y="-13"/>
      <point x="40" y="13"/>
      <point x="40" y="38" type="curve" smooth="yes"/>
      <point x="40" y="73"/>
      <point x="77" y="93"/>
    </contour>
    <contour>
      <point x="166" y="396" type="curve"/>
      <point x="192" y="397"/>
      <point x="224" y="384"/>
      <point x="224" y="355" type="curve" smooth="yes"/>
      <point x="224" y="310"/>
      <point x="187" y="295"/>
      <point x="162" y="291" type="curve"/>
      <point x="118" y="287"/>
      <point x="99" y="312"/>
      <point x="99" y="338" type="curve" smooth="yes"/>
      <point x="99" y="373"/>
      <point x="136" y="393"/>
    </contour>
  </outline>
</glyph>
<glyph name="semicolon" format="1">
  <advance width="242"/>
  <unicode hex="003B"/>
  <outline>
    <contour>
      <point x="165" y="396" type="curve"/>
      <point x="191" y="397"/>
      <point x="223" y="384"/>
      <point x="223" y="355" type="curve" smooth="yes"/>
      <point x="223" y="310"/>
      <point x="186" y="295"/>
      <point x="162" y="291" type="curve"/>
      <point x="117" y="287"/>
      <point x="98" y="312"/>
      <point x="98" y="338" type="curve" smooth="yes"/>
      <point x="98" y="373"/>
      <point x="135" y="393"/>
    </contour>
    <contour>
      <point x="31" y="-1" type="curve"/>
      <point x="28" y="3"/>
      <point x="25" y="12"/>
      <point x="31" y="21" type="curve" smooth="yes"/>
      <point x="52" y="49"/>
      <point x="92" y="93"/>
      <point x="128" y="93" type="curve" smooth="yes"/>
      <point x="162" y="93"/>
      <point x="181" y="71"/>
      <point x="181" y="40" type="curve" smooth="yes"/>
      <point x="181" y="-31"/>
      <point x="104" y="-126"/>
      <point x="52" y="-173" type="curve" smooth="yes"/>
      <point x="47" y="-178"/>
      <point x="29" y="-191"/>
      <point x="20" y="-184" type="curve" smooth="yes"/>
      <point x="10" y="-177"/>
      <point x="8" y="-164"/>
      <point x="16" y="-156" type="curve" smooth="yes"/>
      <point x="58" y="-110"/>
      <point x="100" y="-66"/>
      <point x="98" y="-10" type="curve"/>
      <point x="95" y="14"/>
      <point x="72" y="10"/>
      <point x="56" y="1" type="curve"/>
      <point x="44" y="-7"/>
      <point x="36" y="-5"/>
    </contour>
  </outline>
</glyph>
<glyph name="less" format="1">
  <advance width="362"/>
  <unicode hex="003C"/>
  <outline>
    <contour>
      <point x="66" y="249" type="curve" smooth="yes"/>
      <point x="119" y="276"/>
      <point x="245" y="338"/>
      <point x="281" y="359" type="curve" smooth="yes"/>
      <point x="290" y="364"/>
      <point x="316" y="384"/>
      <point x="326" y="391" type="curve"/>
      <point x="336" y="401"/>
      <point x="351" y="407"/>
      <point x="351" y="391" type="curve"/>
      <point x="352" y="380"/>
      <point x="340" y="352"/>
      <point x="336" y="345" type="curve"/>
      <point x="328" y="335"/>
      <point x="315" y="324"/>
      <point x="289" y="312" type="curve" smooth="yes"/>
      <point x="236" y="288"/>
      <point x="161" y="253"/>
      <point x="116" y="230" type="curve" smooth="yes"/>
      <point x="112" y="227"/>
      <point x="104" y="221"/>
      <point x="111" y="213" type="curve" smooth="yes"/>
      <point x="121" y="202"/>
      <point x="240" y="130"/>
      <point x="265" y="114" type="curve"/>
      <point x="285" y="103"/>
      <point x="280" y="91"/>
      <point x="264" y="82" type="curve"/>
      <point x="251" y="76"/>
      <point x="239" y="76"/>
      <point x="232" y="81" type="curve" smooth="yes"/>
      <point x="215" y="93"/>
      <point x="83" y="173"/>
      <point x="37" y="201" type="curve" smooth="yes"/>
      <point x="29" y="205"/>
      <point x="30" y="210"/>
      <point x="35" y="221" type="curve" smooth="yes"/>
      <point x="43" y="236"/>
      <point x="46" y="238"/>
    </contour>
  </outline>
</glyph>
<glyph name="equal" format="1">
  <advance width="488"/>
  <unicode hex="003D"/>
  <outline>
    <contour>
      <point x="51" y="123" type="curve" smooth="yes"/>
      <point x="29" y="123"/>
      <point x="23" y="131"/>
      <point x="31" y="145" type="curve"/>
      <point x="42" y="159"/>
      <point x="56" y="164"/>
      <point x="77" y="164" type="curve" smooth="yes"/>
      <point x="209" y="166"/>
      <point x="269" y="170"/>
      <point x="370" y="179" type="curve" smooth="yes"/>
      <point x="396" y="182"/>
      <point x="418" y="189"/>
      <point x="412" y="169" type="curve"/>
      <point x="411" y="162"/>
      <point x="395" y="145"/>
      <point x="376" y="136" type="curve"/>
      <point x="364" y="129"/>
      <point x="350" y="125"/>
      <point x="337" y="125" type="curve" smooth="yes"/>
      <point x="288" y="125"/>
      <point x="98" y="123"/>
    </contour>
    <contour>
      <point x="96" y="288" type="curve" smooth="yes"/>
      <point x="74" y="288"/>
      <point x="66" y="297"/>
      <point x="76" y="310" type="curve" smooth="yes"/>
      <point x="87" y="325"/>
      <point x="100" y="331"/>
      <point x="122" y="331" type="curve" smooth="yes"/>
      <point x="253" y="332"/>
      <point x="315" y="337"/>
      <point x="414" y="345" type="curve" smooth="yes"/>
      <point x="440" y="348"/>
      <point x="463" y="354"/>
      <point x="457" y="336" type="curve" smooth="yes"/>
      <point x="455" y="328"/>
      <point x="439" y="306"/>
      <point x="420" y="297" type="curve" smooth="yes"/>
      <point x="407" y="290"/>
      <point x="394" y="290"/>
      <point x="380" y="290" type="curve" smooth="yes"/>
      <point x="332" y="290"/>
      <point x="142" y="288"/>
    </contour>
  </outline>
</glyph>
<glyph name="greater" format="1">
  <advance width="362"/>
  <unicode hex="003E"/>
  <outline>
    <contour>
      <point x="300" y="219" type="curve" smooth="yes"/>
      <point x="247" y="192"/>
      <point x="121" y="130"/>
      <point x="85" y="109" type="curve" smooth="yes"/>
      <point x="77" y="104"/>
      <point x="51" y="84"/>
      <point x="40" y="77" type="curve"/>
      <point x="30" y="67"/>
      <point x="15" y="61"/>
      <point x="15" y="77" type="curve"/>
      <point x="14" y="88"/>
      <point x="26" y="116"/>
      <point x="30" y="123" type="curve"/>
      <point x="38" y="133"/>
      <point x="51" y="144"/>
      <point x="77" y="156" type="curve" smooth="yes"/>
      <point x="130" y="180"/>
      <point x="205" y="215"/>
      <point x="250" y="238" type="curve" smooth="yes"/>
      <point x="254" y="241"/>
      <point x="262" y="247"/>
      <point x="255" y="255" type="curve" smooth="yes"/>
      <point x="245" y="266"/>
      <point x="126" y="338"/>
      <point x="101" y="354" type="curve" smooth="yes"/>
      <point x="82" y="365"/>
      <point x="86" y="377"/>
      <point x="102" y="386" type="curve"/>
      <point x="115" y="392"/>
      <point x="127" y="392"/>
      <point x="134" y="387" type="curve" smooth="yes"/>
      <point x="151" y="375"/>
      <point x="283" y="295"/>
      <point x="329" y="267" type="curve" smooth="yes"/>
      <point x="337" y="263"/>
      <point x="336" y="258"/>
      <point x="331" y="247" type="curve" smooth="yes"/>
      <point x="323" y="232"/>
      <point x="320" y="230"/>
    </contour>
  </outline>
</glyph>
<glyph name="question" format="1">
  <advance width="376"/>
  <unicode hex="003F"/>
  <outline>
    <contour>
      <point x="152" y="167" type="curve" smooth="yes"/>
      <point x="140" y="167"/>
      <point x="134" y="183"/>
      <point x="136" y="191" type="curve" smooth="yes"/>
      <point x="148" y="252"/>
      <point x="182" y="300"/>
      <point x="231" y="338" type="curve" smooth="yes"/>
      <point x="280" y="376"/>
      <point x="337" y="426"/>
      <point x="337" y="491" type="curve" smooth="yes"/>
      <point x="337" y="514"/>
      <point x="322" y="562"/>
      <point x="263" y="562" type="curve" smooth="yes"/>
      <point x="210" y="562"/>
      <point x="162" y="533"/>
      <point x="162" y="481" type="curve" smooth="yes"/>
      <point x="162" y="441"/>
      <point x="175" y="436"/>
      <point x="199" y="432" type="curve" smooth="yes"/>
      <point x="217" y="428"/>
      <point x="215" y="432"/>
      <point x="221" y="423" type="curve"/>
      <point x="225" y="414"/>
      <point x="226" y="412"/>
      <point x="213" y="403" type="curve" smooth="yes"/>
      <point x="195" y="391"/>
      <point x="175" y="381"/>
      <point x="152" y="381" type="curve" smooth="yes"/>
      <point x="119" y="381"/>
      <point x="77" y="405"/>
      <point x="77" y="461" type="curve" smooth="yes"/>
      <point x="77" y="519"/>
      <point x="155" y="603"/>
      <point x="278" y="603" type="curve" smooth="yes"/>
      <point x="396" y="603"/>
      <point x="432" y="561"/>
      <point x="431" y="513" type="curve"/>
      <point x="432" y="424"/>
      <point x="374" y="394"/>
      <point x="280" y="325" type="curve" smooth="yes"/>
      <point x="231" y="289"/>
      <point x="194" y="242"/>
      <point x="182" y="191" type="curve" smooth="yes"/>
      <point x="178" y="178"/>
      <point x="166" y="167"/>
    </contour>
    <contour>
      <point x="138" y="96" type="curve" smooth="yes"/>
      <point x="164" y="98"/>
      <point x="196" y="84"/>
      <point x="196" y="56" type="curve" smooth="yes"/>
      <point x="196" y="10"/>
      <point x="159" y="-4"/>
      <point x="135" y="-8" type="curve"/>
      <point x="90" y="-13"/>
      <point x="72" y="13"/>
      <point x="72" y="38" type="curve" smooth="yes"/>
      <point x="72" y="73"/>
      <point x="108" y="93"/>
    </contour>
  </outline>
</glyph>
<glyph name="at" format="1">
  <advance width="755"/>
  <unicode hex="0040"/>
  <outline>
    <contour>
      <point x="439" y="-8" type="curve" smooth="yes"/>
      <point x="387" y="-8"/>
      <point x="392" y="45"/>
      <point x="417" y="121" type="curve" smooth="yes"/>
      <point x="422" y="136"/>
      <point x="421" y="135"/>
      <point x="417" y="137" type="curve" smooth="yes"/>
      <point x="412" y="139"/>
      <point x="407" y="140"/>
      <point x="397" y="125" type="curve" smooth="yes"/>
      <point x="380" y="99"/>
      <point x="314" y="26"/>
      <point x="283" y="6" type="curve" smooth="yes"/>
      <point x="232" y="-27"/>
      <point x="198" y="-1"/>
      <point x="198" y="65" type="curve" smooth="yes"/>
      <point x="198" y="134"/>
      <point x="222" y="219"/>
      <point x="250" y="277" type="curve" smooth="yes"/>
      <point x="285" y="349"/>
      <point x="336" y="390"/>
      <point x="391" y="421" type="curve" smooth="yes"/>
      <point x="405" y="429"/>
      <point x="434" y="438"/>
      <point x="461" y="431" type="curve" smooth="yes"/>
      <point x="481" y="426"/>
      <point x="495" y="420"/>
      <point x="506" y="414" type="curve" smooth="yes"/>
      <point x="514" y="409"/>
      <point x="526" y="410"/>
      <point x="540" y="423" type="curve"/>
      <point x="548" y="432"/>
      <point x="561" y="443"/>
      <point x="572" y="457" type="curve" smooth="yes"/>
      <point x="585" y="472"/>
      <point x="597" y="476"/>
      <point x="604" y="473" type="curve" smooth="yes"/>
      <point x="609" y="471"/>
      <point x="611" y="455"/>
      <point x="605" y="445" type="curve" smooth="yes"/>
      <point x="585" y="414"/>
      <point x="571" y="387"/>
      <point x="560" y="359" type="curve" smooth="yes"/>
      <point x="535" y="296"/>
      <point x="519" y="237"/>
      <point x="499" y="150" type="curve" smooth="yes"/>
      <point x="483" y="84"/>
      <point x="506" y="84"/>
      <point x="535" y="105" type="curve" smooth="yes"/>
      <point x="615" y="165"/>
      <point x="683" y="290"/>
      <point x="683" y="405" type="curve" smooth="yes"/>
      <point x="683" y="549"/>
      <point x="594" y="598"/>
      <point x="492" y="598" type="curve" smooth="yes"/>
      <point x="295" y="598"/>
      <point x="119" y="389"/>
      <point x="114" y="150" type="curve" smooth="yes"/>
      <point x="109" y="-109"/>
      <point x="251" y="-162"/>
      <point x="364" y="-162" type="curve" smooth="yes"/>
      <point x="460" y="-162"/>
      <point x="546" y="-118"/>
      <point x="577" y="-83" type="curve"/>
      <point x="593" y="-67"/>
      <point x="604" y="-67"/>
      <point x="609" y="-73" type="curve" smooth="yes"/>
      <point x="616" y="-80"/>
      <point x="613" y="-93"/>
      <point x="604" y="-105" type="curve" smooth="yes"/>
      <point x="551" y="-170"/>
      <point x="455" y="-237"/>
      <point x="320" y="-237" type="curve" smooth="yes"/>
      <point x="178" y="-237"/>
      <point x="22" y="-141"/>
      <point x="22" y="104" type="curve" smooth="yes"/>
      <point x="22" y="382"/>
      <point x="252" y="640"/>
      <point x="502" y="640" type="curve" smooth="yes"/>
      <point x="621" y="640"/>
      <point x="729" y="580"/>
      <point x="729" y="417" type="curve" smooth="yes"/>
      <point x="729" y="251"/>
      <point x="646" y="121"/>
      <point x="498" y="12" type="curve" smooth="yes"/>
      <point x="480" y="-2"/>
      <point x="450" y="-8"/>
    </contour>
    <contour>
      <point x="333" y="108" type="curve" smooth="yes"/>
      <point x="372" y="143"/>
      <point x="386" y="162"/>
      <point x="421" y="219" type="curve" smooth="yes"/>
      <point x="439" y="247"/>
      <point x="456" y="292"/>
      <point x="467" y="332" type="curve" smooth="yes"/>
      <point x="473" y="354"/>
      <point x="469" y="362"/>
      <point x="457" y="370" type="curve" smooth="yes"/>
      <point x="449" y="376"/>
      <point x="434" y="380"/>
      <point x="419" y="383" type="curve" smooth="yes"/>
      <point x="398" y="386"/>
      <point x="375" y="370"/>
      <point x="359" y="346" type="curve" smooth="yes"/>
      <point x="324" y="296"/>
      <point x="290" y="189"/>
      <point x="290" y="136" type="curve" smooth="yes"/>
      <point x="290" y="101"/>
      <point x="302" y="80"/>
    </contour>
  </outline>
</glyph>
<glyph name="B" format="1">
  <advance width="594"/>
  <unicode hex="0042"/>
  <outline>
    <contour>
      <point x="192" y="471" type="curve" smooth="yes"/>
      <point x="198" y="498"/>
      <point x="199" y="524"/>
      <point x="194" y="537" type="curve" smooth="yes"/>
      <point x="189" y="550"/>
      <point x="175" y="555"/>
      <point x="151" y="554" type="curve" smooth="yes"/>
      <point x="126" y="553"/>
      <point x="112" y="559"/>
      <point x="112" y="570" type="curve" smooth="yes"/>
      <point x="112" y="581"/>
      <point x="121" y="591"/>
      <point x="144" y="593" type="curve" smooth="yes"/>
      <point x="189" y="598"/>
      <point x="290" y="604"/>
      <point x="323" y="604" type="curve" smooth="yes"/>
      <point x="406" y="604"/>
      <point x="569" y="607"/>
      <point x="559" y="498" type="curve" smooth="yes"/>
      <point x="555" y="449"/>
      <point x="518" y="403"/>
      <point x="462" y="374" type="curve" smooth="yes"/>
      <point x="444" y="364"/>
      <point x="447" y="351"/>
      <point x="471" y="350" type="curve" smooth="yes"/>
      <point x="536" y="348"/>
      <point x="566" y="303"/>
      <point x="566" y="247" type="curve"/>
      <point x="564" y="144"/>
      <point x="450" y="-11"/>
      <point x="281" y="-11" type="curve" smooth="yes"/>
      <point x="231" y="-11"/>
      <point x="150" y="-3"/>
      <point x="107" y="31" type="curve"/>
      <point x="88" y="43"/>
      <point x="89" y="71"/>
      <point x="99" y="108" type="curve"/>
      <point x="128" y="231"/>
      <point x="162" y="343"/>
    </contour>
    <contour>
      <point x="201" y="98" type="curve" smooth="yes"/>
      <point x="195" y="61"/>
      <point x="220" y="34"/>
      <point x="287" y="34" type="curve" smooth="yes"/>
      <point x="397" y="34"/>
      <point x="460" y="136"/>
      <point x="460" y="234" type="curve" smooth="yes"/>
      <point x="460" y="316"/>
      <point x="420" y="328"/>
      <point x="347" y="322" type="curve"/>
      <point x="311" y="318"/>
      <point x="306" y="334"/>
      <point x="311" y="346" type="curve" smooth="yes"/>
      <point x="318" y="362"/>
      <point x="327" y="367"/>
      <point x="354" y="370" type="curve" smooth="yes"/>
      <point x="407" y="375"/>
      <point x="451" y="415"/>
      <point x="457" y="478" type="curve" smooth="yes"/>
      <point x="465" y="562"/>
      <point x="393" y="565"/>
      <point x="340" y="564" type="curve" smooth="yes"/>
      <point x="311" y="563"/>
      <point x="306" y="556"/>
      <point x="300" y="530" type="curve" smooth="yes"/>
      <point x="262" y="383"/>
      <point x="227" y="258"/>
    </contour>
  </outline>
</glyph>
<glyph name="D" format="1">
  <advance width="644"/>
  <unicode hex="0044"/>
  <outline>
    <contour>
      <point x="113" y="577" type="curve" smooth="yes"/>
      <point x="113" y="588"/>
      <point x="122" y="598"/>
      <point x="144" y="600" type="curve" smooth="yes"/>
      <point x="190" y="605"/>
      <point x="306" y="609"/>
      <point x="338" y="609" type="curve" smooth="yes"/>
      <point x="380" y="609"/>
      <point x="421" y="608"/>
      <point x="457" y="604" type="curve" smooth="yes"/>
      <point x="551" y="592"/>
      <point x="629" y="519"/>
      <point x="629" y="400" type="curve" smooth="yes"/>
      <point x="629" y="194"/>
      <point x="457" y="-10"/>
      <point x="275" y="-10" type="curve" smooth="yes"/>
      <point x="230" y="-10"/>
      <point x="156" y="1"/>
      <point x="115" y="33" type="curve"/>
      <point x="96" y="45"/>
      <point x="98" y="72"/>
      <point x="108" y="109" type="curve"/>
      <point x="136" y="233"/>
      <point x="172" y="348"/>
      <point x="202" y="476" type="curve" smooth="yes"/>
      <point x="208" y="503"/>
      <point x="210" y="529"/>
      <point x="205" y="542" type="curve" smooth="yes"/>
      <point x="199" y="556"/>
      <point x="176" y="563"/>
      <point x="152" y="562" type="curve" smooth="yes"/>
      <point x="127" y="561"/>
      <point x="113" y="566"/>
    </contour>
    <contour>
      <point x="307" y="536" type="curve" smooth="yes"/>
      <point x="268" y="389"/>
      <point x="239" y="263"/>
      <point x="213" y="104" type="curve" smooth="yes"/>
      <point x="207" y="67"/>
      <point x="217" y="35"/>
      <point x="285" y="35" type="curve" smooth="yes"/>
      <point x="433" y="35"/>
      <point x="513" y="216"/>
      <point x="525" y="370" type="curve" smooth="yes"/>
      <point x="535" y="489"/>
      <point x="497" y="552"/>
      <point x="409" y="566" type="curve" smooth="yes"/>
      <point x="386" y="570"/>
      <point x="372" y="571"/>
      <point x="348" y="570" type="curve" smooth="yes"/>
      <point x="319" y="569"/>
      <point x="314" y="561"/>
    </contour>
  </outline>
</glyph>
<glyph name="F" format="1">
  <advance width="551"/>
  <unicode hex="0046"/>
  <outline>
    <contour>
      <point x="120" y="588" type="curve"/>
      <point x="122" y="593"/>
      <point x="132" y="607"/>
      <point x="164" y="604" type="curve"/>
      <point x="202" y="599"/>
      <point x="231" y="598"/>
      <point x="269" y="598" type="curve" smooth="yes"/>
      <point x="349" y="598"/>
      <point x="550" y="606"/>
      <point x="573" y="606" type="curve" smooth="yes"/>
      <point x="625" y="606"/>
      <point x="629" y="581"/>
      <point x="625" y="557" type="curve"/>
      <point x="622" y="529"/>
      <point x="604" y="483"/>
      <point x="577" y="453" type="curve" smooth="yes"/>
      <point x="570" y="445"/>
      <point x="558" y="436"/>
      <point x="547" y="442" type="curve" smooth="yes"/>
      <point x="543" y="444"/>
      <point x="540" y="453"/>
      <point x="545" y="463" type="curve" smooth="yes"/>
      <point x="568" y="517"/>
      <point x="525" y="561"/>
      <point x="484" y="561" type="curve" smooth="yes"/>
      <point x="430" y="561"/>
      <point x="343" y="559"/>
      <point x="329" y="556" type="curve" smooth="yes"/>
      <point x="311" y="551"/>
      <point x="306" y="546"/>
      <point x="303" y="532" type="curve" smooth="yes"/>
      <point x="265" y="375" type="line" smooth="yes"/>
      <point x="261" y="356"/>
      <point x="253" y="339"/>
      <point x="297" y="339" type="curve" smooth="yes"/>
      <point x="316" y="339"/>
      <point x="356" y="339"/>
      <point x="370" y="341" type="curve" smooth="yes"/>
      <point x="418" y="346"/>
      <point x="433" y="360"/>
      <point x="452" y="409" type="curve" smooth="yes"/>
      <point x="458" y="423"/>
      <point x="458" y="427"/>
      <point x="479" y="427" type="curve" smooth="yes"/>
      <point x="491" y="427"/>
      <point x="487" y="406"/>
      <point x="483" y="393" type="curve" smooth="yes"/>
      <point x="462" y="335"/>
      <point x="452" y="296"/>
      <point x="439" y="239" type="curve"/>
      <point x="435" y="228"/>
      <point x="423" y="218"/>
      <point x="412" y="217" type="curve" smooth="yes"/>
      <point x="407" y="217"/>
      <point x="400" y="226"/>
      <point x="402" y="238" type="curve"/>
      <point x="404" y="268"/>
      <point x="395" y="285"/>
      <point x="365" y="292" type="curve"/>
      <point x="332" y="301"/>
      <point x="289" y="303"/>
      <point x="277" y="302" type="curve" smooth="yes"/>
      <point x="253" y="301"/>
      <point x="247" y="295"/>
      <point x="242" y="277" type="curve" smooth="yes"/>
      <point x="227" y="229"/>
      <point x="210" y="132"/>
      <point x="206" y="116" type="curve"/>
      <point x="200" y="80"/>
      <point x="206" y="57"/>
      <point x="239" y="46" type="curve" smooth="yes"/>
      <point x="265" y="38"/>
      <point x="290" y="26"/>
      <point x="288" y="14" type="curve"/>
      <point x="285" y="3"/>
      <point x="269" y="-5"/>
      <point x="253" y="-4" type="curve"/>
      <point x="222" y="1"/>
      <point x="173" y="4"/>
      <point x="138" y="5" type="curve" smooth="yes"/>
      <point x="85" y="7"/>
      <point x="23" y="-2"/>
      <point x="8" y="-3" type="curve" smooth="yes"/>
      <point x="-2" y="-4"/>
      <point x="-9" y="1"/>
      <point x="-8" y="12" type="curve"/>
      <point x="-8" y="29"/>
      <point x="20" y="37"/>
      <point x="35" y="41" type="curve" smooth="yes"/>
      <point x="73" y="52"/>
      <point x="83" y="76"/>
      <point x="98" y="108" type="curve"/>
      <point x="117" y="143"/>
      <point x="187" y="466"/>
      <point x="193" y="496" type="curve" smooth="yes"/>
      <point x="204" y="552"/>
      <point x="148" y="563"/>
      <point x="131" y="566" type="curve"/>
      <point x="119" y="570"/>
      <point x="120" y="581"/>
    </contour>
  </outline>
</glyph>
<glyph name="H" format="1">
  <advance width="767"/>
  <unicode hex="0048"/>
  <outline>
    <contour>
      <point x="630" y="498" type="curve" smooth="yes"/>
      <point x="639" y="554"/>
      <point x="586" y="566"/>
      <point x="570" y="571" type="curve" smooth="yes"/>
      <point x="556" y="575"/>
      <point x="557" y="582"/>
      <point x="558" y="589" type="curve" smooth="yes"/>
      <point x="560" y="596"/>
      <point x="569" y="608"/>
      <point x="601" y="604" type="curve" smooth="yes"/>
      <point x="631" y="601"/>
      <point x="755" y="601"/>
      <point x="809" y="604" type="curve" smooth="yes"/>
      <point x="830" y="605"/>
      <point x="838" y="601"/>
      <point x="834" y="586" type="curve" smooth="yes"/>
      <point x="832" y="577"/>
      <point x="822" y="571"/>
      <point x="807" y="568" type="curve" smooth="yes"/>
      <point x="762" y="560"/>
      <point x="744" y="538"/>
      <point x="729" y="494" type="curve" smooth="yes"/>
      <point x="723" y="478"/>
      <point x="644" y="171"/>
      <point x="641" y="109" type="curve"/>
      <point x="638" y="77"/>
      <point x="645" y="53"/>
      <point x="669" y="43" type="curve" smooth="yes"/>
      <point x="686" y="36"/>
      <point x="705" y="35"/>
      <point x="702" y="16" type="curve" smooth="yes"/>
      <point x="700" y="5"/>
      <point x="685" y="-4"/>
      <point x="663" y="-1" type="curve" smooth="yes"/>
      <point x="598" y="7"/>
      <point x="461" y="-2"/>
      <point x="439" y="-3" type="curve" smooth="yes"/>
      <point x="428" y="-4"/>
      <point x="420" y="0"/>
      <point x="421" y="11" type="curve"/>
      <point x="421" y="29"/>
      <point x="452" y="37"/>
      <point x="465" y="39" type="curve" smooth="yes"/>
      <point x="501" y="43"/>
      <point x="522" y="77"/>
      <point x="535" y="109" type="curve" smooth="yes"/>
      <point x="542" y="125"/>
      <point x="563" y="210"/>
      <point x="582" y="290" type="curve" smooth="yes"/>
      <point x="585" y="300"/>
      <point x="588" y="319"/>
      <point x="562" y="320" type="curve" smooth="yes"/>
      <point x="465" y="322"/>
      <point x="370" y="322"/>
      <point x="273" y="320" type="curve" smooth="yes"/>
      <point x="256" y="319"/>
      <point x="250" y="304"/>
      <point x="248" y="295" type="curve" smooth="yes"/>
      <point x="231" y="220"/>
      <point x="213" y="136"/>
      <point x="212" y="109" type="curve"/>
      <point x="209" y="77"/>
      <point x="215" y="53"/>
      <point x="240" y="43" type="curve" smooth="yes"/>
      <point x="257" y="36"/>
      <point x="275" y="35"/>
      <point x="273" y="16" type="curve" smooth="yes"/>
      <point x="271" y="5"/>
      <point x="256" y="-4"/>
      <point x="234" y="-1" type="curve" smooth="yes"/>
      <point x="169" y="7"/>
      <point x="32" y="-2"/>
      <point x="9" y="-3" type="curve" smooth="yes"/>
      <point x="-1" y="-4"/>
      <point x="-9" y="0"/>
      <point x="-8" y="11" type="curve"/>
      <point x="-8" y="29"/>
      <point x="23" y="37"/>
      <point x="36" y="39" type="curve" smooth="yes"/>
      <point x="72" y="43"/>
      <point x="93" y="77"/>
      <point x="105" y="109" type="curve"/>
      <point x="121" y="146"/>
      <point x="196" y="468"/>
      <point x="201" y="498" type="curve" smooth="yes"/>
      <point x="210" y="554"/>
      <point x="157" y="566"/>
      <point x="141" y="571" type="curve" smooth="yes"/>
      <point x="127" y="575"/>
      <point x="128" y="582"/>
      <point x="129" y="589" type="curve" smooth="yes"/>
      <point x="130" y="596"/>
      <point x="140" y="608"/>
      <point x="172" y="604" type="curve" smooth="yes"/>
      <point x="202" y="601"/>
      <point x="326" y="601"/>
      <point x="380" y="604" type="curve" smooth="yes"/>
      <point x="401" y="605"/>
      <point x="408" y="601"/>
      <point x="405" y="586" type="curve"/>
      <point x="402" y="577"/>
      <point x="392" y="571"/>
      <point x="378" y="568" type="curve" smooth="yes"/>
      <point x="332" y="560"/>
      <point x="315" y="538"/>
      <point x="300" y="494" type="curve" smooth="yes"/>
      <point x="297" y="487"/>
      <point x="285" y="446"/>
      <point x="270" y="386" type="curve" smooth="yes"/>
      <point x="269" y="379"/>
      <point x="265" y="364"/>
      <point x="285" y="364" type="curve" smooth="yes"/>
      <point x="380" y="361"/>
      <point x="476" y="361"/>
      <point x="572" y="364" type="curve" smooth="yes"/>
      <point x="602" y="364"/>
      <point x="604" y="380"/>
      <point x="605" y="387" type="curve" smooth="yes"/>
      <point x="620" y="446"/>
      <point x="628" y="487"/>
    </contour>
  </outline>
</glyph>
<glyph name="J" format="1">
  <advance width="328"/>
  <unicode hex="004A"/>
  <outline>
    <contour>
      <point x="171" y="603" type="curve"/>
      <point x="201" y="599"/>
      <point x="327" y="599"/>
      <point x="380" y="603" type="curve" smooth="yes"/>
      <point x="402" y="604"/>
      <point x="409" y="599"/>
      <point x="406" y="584" type="curve"/>
      <point x="403" y="575"/>
      <point x="393" y="569"/>
      <point x="379" y="566" type="curve" smooth="yes"/>
      <point x="350" y="561"/>
      <point x="324" y="540"/>
      <point x="307" y="492" type="curve"/>
      <point x="299" y="487"/>
      <point x="252" y="277"/>
      <point x="226" y="188" type="curve"/>
      <point x="215" y="145"/>
      <point x="190" y="72"/>
      <point x="168" y="24" type="curve" smooth="yes"/>
      <point x="123" y="-73"/>
      <point x="13" y="-200"/>
      <point x="-97" y="-200" type="curve" smooth="yes"/>
      <point x="-142" y="-200"/>
      <point x="-166" y="-172"/>
      <point x="-166" y="-134" type="curve" smooth="yes"/>
      <point x="-166" y="-107"/>
      <point x="-149" y="-68"/>
      <point x="-120" y="-44" type="curve" smooth="yes"/>
      <point x="-100" y="-28"/>
      <point x="-84" y="-33"/>
      <point x="-79" y="-37" type="curve" smooth="yes"/>
      <point x="-74" y="-41"/>
      <point x="-72" y="-43"/>
      <point x="-77" y="-58" type="curve" smooth="yes"/>
      <point x="-89" y="-92"/>
      <point x="-62" y="-110"/>
      <point x="-38" y="-110" type="curve" smooth="yes"/>
      <point x="51" y="-110"/>
      <point x="85" y="-7"/>
      <point x="104" y="56" type="curve" smooth="yes"/>
      <point x="132" y="151"/>
      <point x="198" y="418"/>
      <point x="210" y="497" type="curve" smooth="yes"/>
      <point x="218" y="552"/>
      <point x="156" y="564"/>
      <point x="140" y="569" type="curve" smooth="yes"/>
      <point x="126" y="573"/>
      <point x="127" y="581"/>
      <point x="128" y="588" type="curve"/>
      <point x="130" y="594"/>
      <point x="139" y="606"/>
    </contour>
  </outline>
</glyph>
<glyph name="M" format="1">
  <advance width="953"/>
  <unicode hex="004D"/>
  <outline>
    <contour>
      <point x="175" y="588" type="curve" smooth="yes"/>
      <point x="178" y="599"/>
      <point x="196" y="603"/>
      <point x="209" y="603" type="curve"/>
      <point x="206" y="603"/>
      <point x="311" y="604"/>
      <point x="341" y="598" type="curve" smooth="yes"/>
      <point x="379" y="591"/>
      <point x="402" y="566"/>
      <point x="404" y="530" type="curve"/>
      <point x="407" y="497"/>
      <point x="451" y="186"/>
      <point x="463" y="142" type="curve" smooth="yes"/>
      <point x="465" y="134"/>
      <point x="474" y="128"/>
      <point x="482" y="142" type="curve" smooth="yes"/>
      <point x="549" y="254"/>
      <point x="678" y="472"/>
      <point x="691" y="497" type="curve" smooth="yes"/>
      <point x="726" y="568"/>
      <point x="755" y="598"/>
      <point x="816" y="602" type="curve" smooth="yes"/>
      <point x="844" y="604"/>
      <point x="911" y="604"/>
      <point x="926" y="604" type="curve" smooth="yes"/>
      <point x="940" y="604"/>
      <point x="944" y="594"/>
      <point x="941" y="583" type="curve" smooth="yes"/>
      <point x="939" y="574"/>
      <point x="927" y="566"/>
      <point x="920" y="564" type="curve" smooth="yes"/>
      <point x="853" y="547"/>
      <point x="843" y="535"/>
      <point x="840" y="492" type="curve" smooth="yes"/>
      <point x="832" y="363"/>
      <point x="833" y="233"/>
      <point x="835" y="104" type="curve" smooth="yes"/>
      <point x="835" y="61"/>
      <point x="854" y="48"/>
      <point x="890" y="39" type="curve" smooth="yes"/>
      <point x="902" y="35"/>
      <point x="911" y="20"/>
      <point x="907" y="10" type="curve"/>
      <point x="903" y="3"/>
      <point x="898" y="-5"/>
      <point x="880" y="-2" type="curve" smooth="yes"/>
      <point x="820" y="7"/>
      <point x="718" y="4"/>
      <point x="667" y="0" type="curve" smooth="yes"/>
      <point x="646" y="-2"/>
      <point x="632" y="3"/>
      <point x="632" y="14" type="curve" smooth="yes"/>
      <point x="632" y="24"/>
      <point x="636" y="34"/>
      <point x="655" y="39" type="curve" smooth="yes"/>
      <point x="678" y="46"/>
      <point x="725" y="64"/>
      <point x="729" y="111" type="curve" smooth="yes"/>
      <point x="738" y="232"/>
      <point x="738" y="331"/>
      <point x="737" y="449" type="curve" smooth="yes"/>
      <point x="737" y="470"/>
      <point x="722" y="460"/>
      <point x="715" y="449" type="curve" smooth="yes"/>
      <point x="699" y="423"/>
      <point x="540" y="155"/>
      <point x="482" y="37" type="curve"/>
      <point x="482" y="37"/>
      <point x="471" y="22"/>
      <point x="463" y="16" type="curve" smooth="yes"/>
      <point x="445" y="3"/>
      <point x="407" y="-13"/>
      <point x="375" y="-13" type="curve" smooth="yes"/>
      <point x="365" y="-13"/>
      <point x="360" y="-11"/>
      <point x="359" y="5" type="curve" smooth="yes"/>
      <point x="358" y="16"/>
      <point x="358" y="43"/>
      <point x="359" y="53" type="curve" smooth="yes"/>
      <point x="360" y="140"/>
      <point x="338" y="332"/>
      <point x="315" y="444" type="curve" smooth="yes"/>
      <point x="312" y="456"/>
      <point x="308" y="475"/>
      <point x="290" y="444" type="curve"/>
      <point x="256" y="368"/>
      <point x="210" y="263"/>
      <point x="174" y="175" type="curve" smooth="yes"/>
      <point x="163" y="146"/>
      <point x="156" y="110"/>
      <point x="158" y="81" type="curve" smooth="yes"/>
      <point x="160" y="60"/>
      <point x="182" y="43"/>
      <point x="210" y="35" type="curve" smooth="yes"/>
      <point x="234" y="29"/>
      <point x="236" y="19"/>
      <point x="237" y="9" type="curve"/>
      <point x="237" y="-2"/>
      <point x="221" y="-3"/>
      <point x="204" y="-2" type="curve" smooth="yes"/>
      <point x="159" y="3"/>
      <point x="79" y="3"/>
      <point x="41" y="0" type="curve" smooth="yes"/>
      <point x="21" y="-2"/>
      <point x="3" y="-5"/>
      <point x="-1" y="4" type="curve"/>
      <point x="-6" y="24"/>
      <point x="36" y="63"/>
      <point x="49" y="84" type="curve" smooth="yes"/>
      <point x="106" y="178"/>
      <point x="227" y="391"/>
      <point x="257" y="472" type="curve"/>
      <point x="274" y="522"/>
      <point x="258" y="556"/>
      <point x="192" y="564" type="curve" smooth="yes"/>
      <point x="178" y="566"/>
      <point x="172" y="575"/>
    </contour>
  </outline>
</glyph>
<glyph name="O" format="1">
  <advance width="688"/>
  <unicode hex="004F"/>
  <outline>
    <contour>
      <point x="424" y="614" type="curve" smooth="yes"/>
      <point x="597" y="614"/>
      <point x="670" y="490"/>
      <point x="667" y="369" type="curve" smooth="yes"/>
      <point x="662" y="183"/>
      <point x="514" y="-17"/>
      <point x="318" y="-17" type="curve" smooth="yes"/>
      <point x="115" y="-17"/>
      <point x="71" y="139"/>
      <point x="71" y="236" type="curve" smooth="yes"/>
      <point x="71" y="418"/>
      <point x="238" y="614"/>
    </contour>
    <contour>
      <point x="184" y="260" type="curve" smooth="yes"/>
      <point x="175" y="78"/>
      <point x="279" y="33"/>
      <point x="330" y="33" type="curve" smooth="yes"/>
      <point x="410" y="33"/>
      <point x="540" y="114"/>
      <point x="556" y="349" type="curve"/>
      <point x="565" y="465"/>
      <point x="519" y="564"/>
      <point x="407" y="564" type="curve" smooth="yes"/>
      <point x="334" y="564"/>
      <point x="194" y="485"/>
    </contour>
  </outline>
</glyph>
<glyph name="P" format="1">
  <advance width="552"/>
  <unicode hex="0050"/>
  <outline>
    <contour>
      <point x="128" y="589" type="curve" smooth="yes"/>
      <point x="130" y="596"/>
      <point x="139" y="608"/>
      <point x="171" y="604" type="curve"/>
      <point x="270" y="596"/>
      <point x="340" y="604"/>
      <point x="440" y="604" type="curve"/>
      <point x="519" y="605"/>
      <point x="586" y="562"/>
      <point x="586" y="476" type="curve" smooth="yes"/>
      <point x="586" y="361"/>
      <point x="451" y="265"/>
      <point x="329" y="265" type="curve" smooth="yes"/>
      <point x="308" y="265"/>
      <point x="293" y="276"/>
      <point x="295" y="289" type="curve" smooth="yes"/>
      <point x="297" y="298"/>
      <point x="304" y="311"/>
      <point x="327" y="311" type="curve" smooth="yes"/>
      <point x="424" y="311"/>
      <point x="482" y="381"/>
      <point x="482" y="468" type="curve" smooth="yes"/>
      <point x="482" y="547"/>
      <point x="435" y="563"/>
      <point x="364" y="560" type="curve" smooth="yes"/>
      <point x="327" y="558"/>
      <point x="316" y="561"/>
      <point x="301" y="512" type="curve" smooth="yes"/>
      <point x="269" y="407"/>
      <point x="223" y="179"/>
      <point x="212" y="109" type="curve"/>
      <point x="209" y="77"/>
      <point x="218" y="53"/>
      <point x="254" y="43" type="curve" smooth="yes"/>
      <point x="271" y="38"/>
      <point x="294" y="35"/>
      <point x="291" y="16" type="curve" smooth="yes"/>
      <point x="290" y="5"/>
      <point x="274" y="-4"/>
      <point x="253" y="-1" type="curve" smooth="yes"/>
      <point x="188" y="7"/>
      <point x="32" y="-2"/>
      <point x="9" y="-3" type="curve" smooth="yes"/>
      <point x="-1" y="-4"/>
      <point x="-9" y="0"/>
      <point x="-8" y="11" type="curve"/>
      <point x="-8" y="29"/>
      <point x="23" y="37"/>
      <point x="36" y="39" type="curve" smooth="yes"/>
      <point x="72" y="43"/>
      <point x="93" y="77"/>
      <point x="105" y="109" type="curve"/>
      <point x="121" y="146"/>
      <point x="195" y="468"/>
      <point x="200" y="498" type="curve" smooth="yes"/>
      <point x="209" y="554"/>
      <point x="156" y="566"/>
      <point x="140" y="571" type="curve" smooth="yes"/>
      <point x="126" y="575"/>
      <point x="127" y="582"/>
    </contour>
  </outline>
</glyph>
<glyph name="Q" format="1">
  <advance width="711"/>
  <unicode hex="0051"/>
  <outline>
    <contour>
      <point x="439" y="611" type="curve" smooth="yes"/>
      <point x="617" y="611"/>
      <point x="684" y="499"/>
      <point x="680" y="375" type="curve" smooth="yes"/>
      <point x="674" y="168"/>
      <point x="507" y="-17"/>
      <point x="340" y="-17" type="curve" smooth="yes"/>
      <point x="322" y="-17"/>
      <point x="316" y="-19"/>
      <point x="299" y="-15" type="curve"/>
      <point x="280" y="-12"/>
      <point x="269" y="-29"/>
      <point x="259" y="-41" type="curve"/>
      <point x="252" y="-51"/>
      <point x="253" y="-59"/>
      <point x="267" y="-61" type="curve" smooth="yes"/>
      <point x="342" y="-75"/>
      <point x="377" y="-89"/>
      <point x="445" y="-114" type="curve" smooth="yes"/>
      <point x="472" y="-123"/>
      <point x="501" y="-131"/>
      <point x="527" y="-131" type="curve" smooth="yes"/>
      <point x="579" y="-131"/>
      <point x="613" y="-100"/>
      <point x="641" y="-66" type="curve" smooth="yes"/>
      <point x="657" y="-46"/>
      <point x="671" y="-43"/>
      <point x="681" y="-45" type="curve" smooth="yes"/>
      <point x="695" y="-49"/>
      <point x="689" y="-69"/>
      <point x="683" y="-79" type="curve" smooth="yes"/>
      <point x="659" y="-118"/>
      <point x="630" y="-156"/>
      <point x="598" y="-189" type="curve" smooth="yes"/>
      <point x="572" y="-215"/>
      <point x="548" y="-230"/>
      <point x="520" y="-230" type="curve" smooth="yes"/>
      <point x="459" y="-230"/>
      <point x="398" y="-201"/>
      <point x="348" y="-183" type="curve"/>
      <point x="310" y="-168"/>
      <point x="234" y="-152"/>
      <point x="171" y="-152" type="curve"/>
      <point x="136" y="-151"/>
      <point x="106" y="-162"/>
      <point x="64" y="-172" type="curve"/>
      <point x="30" y="-178"/>
      <point x="-25" y="-184"/>
      <point x="-25" y="-152" type="curve" smooth="yes"/>
      <point x="-25" y="-137"/>
      <point x="-10" y="-105"/>
      <point x="1" y="-92" type="curve" smooth="yes"/>
      <point x="13" y="-77"/>
      <point x="17" y="-72"/>
      <point x="39" y="-68" type="curve" smooth="yes"/>
      <point x="65" y="-63"/>
      <point x="112" y="-57"/>
      <point x="134" y="-56" type="curve"/>
      <point x="164" y="-53"/>
      <point x="191" y="-42"/>
      <point x="198" y="-39" type="curve" smooth="yes"/>
      <point x="215" y="-30"/>
      <point x="223" y="-23"/>
      <point x="228" y="-16" type="curve" smooth="yes"/>
      <point x="235" y="-7"/>
      <point x="239" y="-3"/>
      <point x="224" y="4" type="curve"/>
      <point x="221" y="5" type="line"/>
      <point x="116" y="51"/>
      <point x="85" y="160"/>
      <point x="85" y="234" type="curve" smooth="yes"/>
      <point x="85" y="417"/>
      <point x="253" y="611"/>
    </contour>
    <contour>
      <point x="198" y="258" type="curve" smooth="yes"/>
      <point x="193" y="162"/>
      <point x="223" y="104"/>
      <point x="259" y="71" type="curve" smooth="yes"/>
      <point x="278" y="54"/>
      <point x="279" y="56"/>
      <point x="295" y="72" type="curve" smooth="yes"/>
      <point x="319" y="96"/>
      <point x="330" y="109"/>
      <point x="356" y="144" type="curve" smooth="yes"/>
      <point x="364" y="156"/>
      <point x="380" y="161"/>
      <point x="388" y="157" type="curve" smooth="yes"/>
      <point x="396" y="152"/>
      <point x="394" y="136"/>
      <point x="388" y="129" type="curve" smooth="yes"/>
      <point x="368" y="105"/>
      <point x="350" y="82"/>
      <point x="333" y="60" type="curve" smooth="yes"/>
      <point x="314" y="37"/>
      <point x="327" y="33"/>
      <point x="354" y="33" type="curve" smooth="yes"/>
      <point x="412" y="33"/>
      <point x="551" y="108"/>
      <point x="572" y="354" type="curve" smooth="yes"/>
      <point x="582" y="469"/>
      <point x="519" y="558"/>
      <point x="421" y="558" type="curve" smooth="yes"/>
      <point x="348" y="558"/>
      <point x="209" y="483"/>
    </contour>
  </outline>
</glyph>
<glyph name="S" format="1">
  <advance width="463"/>
  <unicode hex="0053"/>
  <outline>
    <contour>
      <point x="184" y="-8" type="curve" smooth="yes"/>
      <point x="120" y="-8"/>
      <point x="39" y="19"/>
      <point x="40" y="94" type="curve"/>
      <point x="42" y="142"/>
      <point x="90" y="189"/>
      <point x="130" y="205" type="curve" smooth="yes"/>
      <point x="141" y="210"/>
      <point x="155" y="211"/>
      <point x="160" y="208" type="curve" smooth="yes"/>
      <point x="165" y="205"/>
      <point x="164" y="191"/>
      <point x="157" y="182" type="curve" smooth="yes"/>
      <point x="146" y="168"/>
      <point x="133" y="141"/>
      <point x="132" y="114" type="curve" smooth="yes"/>
      <point x="130" y="57"/>
      <point x="184" y="45"/>
      <point x="208" y="45" type="curve" smooth="yes"/>
      <point x="287" y="45"/>
      <point x="332" y="82"/>
      <point x="334" y="131" type="curve"/>
      <point x="338" y="196"/>
      <point x="290" y="252"/>
      <point x="220" y="306" type="curve" smooth="yes"/>
      <point x="162" y="352"/>
      <point x="126" y="403"/>
      <point x="128" y="466" type="curve" smooth="yes"/>
      <point x="129" y="521"/>
      <point x="210" y="610"/>
      <point x="321" y="610" type="curve"/>
      <point x="422" y="611"/>
      <point x="449" y="576"/>
      <point x="449" y="536" type="curve" smooth="yes"/>
      <point x="449" y="511"/>
      <point x="430" y="482"/>
      <point x="403" y="460" type="curve"/>
      <point x="388" y="446"/>
      <point x="376" y="444"/>
      <point x="370" y="449" type="curve"/>
      <point x="364" y="452"/>
      <point x="363" y="459"/>
      <point x="369" y="476" type="curve" smooth="yes"/>
      <point x="380" y="513"/>
      <point x="363" y="564"/>
      <point x="311" y="564" type="curve" smooth="yes"/>
      <point x="269" y="564"/>
      <point x="218" y="539"/>
      <point x="217" y="488" type="curve" smooth="yes"/>
      <point x="216" y="444"/>
      <point x="262" y="402"/>
      <point x="317" y="357" type="curve"/>
      <point x="392" y="299"/>
      <point x="423" y="242"/>
      <point x="418" y="167" type="curve"/>
      <point x="414" y="88"/>
      <point x="334" y="-8"/>
    </contour>
  </outline>
</glyph>
<glyph name="V" format="1">
  <advance width="641"/>
  <unicode hex="0056"/>
  <outline>
    <contour>
      <point x="117" y="588" type="curve" smooth="yes"/>
      <point x="117" y="593"/>
      <point x="125" y="609"/>
      <point x="152" y="604" type="curve"/>
      <point x="182" y="600"/>
      <point x="296" y="598"/>
      <point x="336" y="604" type="curve" smooth="yes"/>
      <point x="367" y="609"/>
      <point x="375" y="599"/>
      <point x="376" y="592" type="curve" smooth="yes"/>
      <point x="378" y="580"/>
      <point x="364" y="571"/>
      <point x="350" y="566" type="curve" smooth="yes"/>
      <point x="306" y="551"/>
      <point x="297" y="532"/>
      <point x="306" y="477" type="curve" smooth="yes"/>
      <point x="318" y="398"/>
      <point x="334" y="281"/>
      <point x="351" y="139" type="curve" smooth="yes"/>
      <point x="354" y="122"/>
      <point x="364" y="119"/>
      <point x="380" y="145" type="curve"/>
      <point x="418" y="213"/>
      <point x="445" y="246"/>
      <point x="489" y="301" type="curve"/>
      <point x="548" y="379"/>
      <point x="584" y="409"/>
      <point x="589" y="489" type="curve" smooth="yes"/>
      <point x="591" y="519"/>
      <point x="566" y="542"/>
      <point x="528" y="532" type="curve" smooth="yes"/>
      <point x="513" y="528"/>
      <point x="500" y="526"/>
      <point x="496" y="538" type="curve" smooth="yes"/>
      <point x="492" y="550"/>
      <point x="525" y="574"/>
      <point x="540" y="582" type="curve" smooth="yes"/>
      <point x="576" y="604"/>
      <point x="602" y="614"/>
      <point x="630" y="613" type="curve" smooth="yes"/>
      <point x="669" y="612"/>
      <point x="699" y="588"/>
      <point x="694" y="539" type="curve"/>
      <point x="689" y="461"/>
      <point x="598" y="353"/>
      <point x="541" y="292" type="curve"/>
      <point x="506" y="253"/>
      <point x="449" y="176"/>
      <point x="428" y="140" type="curve"/>
      <point x="415" y="120"/>
      <point x="398" y="92"/>
      <point x="391" y="66" type="curve"/>
      <point x="386" y="42"/>
      <point x="378" y="32"/>
      <point x="357" y="18" type="curve" smooth="yes"/>
      <point x="346" y="10"/>
      <point x="313" y="-2"/>
      <point x="300" y="-4" type="curve" smooth="yes"/>
      <point x="259" y="-12"/>
      <point x="255" y="8"/>
      <point x="253" y="63" type="curve"/>
      <point x="245" y="205"/>
      <point x="228" y="370"/>
      <point x="204" y="486" type="curve"/>
      <point x="194" y="543"/>
      <point x="172" y="558"/>
      <point x="136" y="567" type="curve" smooth="yes"/>
      <point x="127" y="570"/>
      <point x="116" y="577"/>
    </contour>
  </outline>
</glyph>
<glyph name="W" format="1">
  <advance width="918"/>
  <unicode hex="0057"/>
  <outline>
    <contour>
      <point x="400" y="587" type="curve" smooth="yes"/>
      <point x="400" y="593"/>
      <point x="407" y="608"/>
      <point x="434" y="604" type="curve" smooth="yes"/>
      <point x="465" y="599"/>
      <point x="578" y="597"/>
      <point x="618" y="604" type="curve" smooth="yes"/>
      <point x="649" y="609"/>
      <point x="657" y="598"/>
      <point x="658" y="591" type="curve" smooth="yes"/>
      <point x="660" y="579"/>
      <point x="646" y="570"/>
      <point x="632" y="565" type="curve" smooth="yes"/>
      <point x="588" y="550"/>
      <point x="579" y="531"/>
      <point x="588" y="476" type="curve" smooth="yes"/>
      <point x="600" y="397"/>
      <point x="616" y="281"/>
      <point x="633" y="139" type="curve" smooth="yes"/>
      <point x="636" y="122"/>
      <point x="646" y="119"/>
      <point x="662" y="145" type="curve"/>
      <point x="700" y="213"/>
      <point x="727" y="246"/>
      <point x="771" y="301" type="curve"/>
      <point x="830" y="379"/>
      <point x="862" y="410"/>
      <point x="867" y="490" type="curve" smooth="yes"/>
      <point x="869" y="520"/>
      <point x="844" y="543"/>
      <point x="806" y="533" type="curve" smooth="yes"/>
      <point x="790" y="529"/>
      <point x="778" y="527"/>
      <point x="774" y="539" type="curve" smooth="yes"/>
      <point x="769" y="551"/>
      <point x="803" y="575"/>
      <point x="818" y="583" type="curve" smooth="yes"/>
      <point x="854" y="605"/>
      <point x="880" y="614"/>
      <point x="908" y="614" type="curve" smooth="yes"/>
      <point x="947" y="613"/>
      <point x="974" y="589"/>
      <point x="970" y="540" type="curve" smooth="yes"/>
      <point x="965" y="462"/>
      <point x="880" y="353"/>
      <point x="823" y="292" type="curve"/>
      <point x="788" y="253"/>
      <point x="731" y="176"/>
      <point x="710" y="140" type="curve"/>
      <point x="697" y="120"/>
      <point x="680" y="92"/>
      <point x="673" y="66" type="curve"/>
      <point x="668" y="42"/>
      <point x="660" y="32"/>
      <point x="639" y="18" type="curve" smooth="yes"/>
      <point x="628" y="10"/>
      <point x="595" y="-2"/>
      <point x="582" y="-4" type="curve" smooth="yes"/>
      <point x="541" y="-12"/>
      <point x="537" y="8"/>
      <point x="535" y="63" type="curve"/>
      <point x="531" y="125"/>
      <point x="525" y="178"/>
      <point x="519" y="241" type="curve"/>
      <point x="519" y="255"/>
      <point x="511" y="259"/>
      <point x="500" y="242" type="curve" smooth="yes"/>
      <point x="469" y="197"/>
      <point x="444" y="153"/>
      <point x="435" y="140" type="curve"/>
      <point x="423" y="120"/>
      <point x="407" y="92"/>
      <point x="400" y="66" type="curve" smooth="yes"/>
      <point x="394" y="42"/>
      <point x="386" y="32"/>
      <point x="365" y="18" type="curve" smooth="yes"/>
      <point x="354" y="10"/>
      <point x="322" y="-2"/>
      <point x="308" y="-4" type="curve" smooth="yes"/>
      <point x="268" y="-12"/>
      <point x="263" y="8"/>
      <point x="261" y="63" type="curve"/>
      <point x="253" y="205"/>
      <point x="237" y="369"/>
      <point x="212" y="485" type="curve"/>
      <point x="203" y="535"/>
      <point x="184" y="556"/>
      <point x="146" y="566" type="curve" smooth="yes"/>
      <point x="137" y="569"/>
      <point x="126" y="576"/>
      <point x="127" y="587" type="curve" smooth="yes"/>
      <point x="127" y="593"/>
      <point x="135" y="608"/>
      <point x="162" y="604" type="curve" smooth="yes"/>
      <point x="192" y="599"/>
      <point x="285" y="597"/>
      <point x="324" y="604" type="curve" smooth="yes"/>
      <point x="355" y="609"/>
      <point x="363" y="598"/>
      <point x="364" y="591" type="curve" smooth="yes"/>
      <point x="366" y="579"/>
      <point x="352" y="570"/>
      <point x="339" y="561" type="curve" smooth="yes"/>
      <point x="320" y="549"/>
      <point x="306" y="531"/>
      <point x="314" y="476" type="curve"/>
      <point x="327" y="397"/>
      <point x="343" y="281"/>
      <point x="359" y="139" type="curve"/>
      <point x="362" y="122"/>
      <point x="371" y="120"/>
      <point x="388" y="145" type="curve" smooth="yes"/>
      <point x="413" y="184"/>
      <point x="461" y="262"/>
      <point x="492" y="312" type="curve" smooth="yes"/>
      <point x="507" y="336"/>
      <point x="507" y="340"/>
      <point x="503" y="367" type="curve" smooth="yes"/>
      <point x="499" y="402"/>
      <point x="492" y="455"/>
      <point x="486" y="485" type="curve" smooth="yes"/>
      <point x="477" y="534"/>
      <point x="462" y="555"/>
      <point x="418" y="566" type="curve" smooth="yes"/>
      <point x="410" y="569"/>
      <point x="399" y="576"/>
    </contour>
  </outline>
</glyph>
<glyph name="X" format="1">
  <advance width="729"/>
  <unicode hex="0058"/>
  <outline>
    <contour>
      <point x="-18" y="4" type="curve" smooth="yes"/>
      <point x="-20" y="13"/>
      <point x="-16" y="22"/>
      <point x="18" y="39" type="curve" smooth="yes"/>
      <point x="95" y="77"/>
      <point x="190" y="149"/>
      <point x="302" y="293" type="curve" smooth="yes"/>
      <point x="316" y="311"/>
      <point x="316" y="323"/>
      <point x="312" y="342" type="curve" smooth="yes"/>
      <point x="304" y="386"/>
      <point x="279" y="449"/>
      <point x="258" y="488" type="curve" smooth="yes"/>
      <point x="229" y="544"/>
      <point x="207" y="560"/>
      <point x="148" y="560" type="curve" smooth="yes"/>
      <point x="135" y="560"/>
      <point x="110" y="562"/>
      <point x="110" y="575" type="curve" smooth="yes"/>
      <point x="110" y="586"/>
      <point x="125" y="598"/>
      <point x="178" y="600" type="curve" smooth="yes"/>
      <point x="238" y="603"/>
      <point x="285" y="603"/>
      <point x="310" y="600" type="curve" smooth="yes"/>
      <point x="356" y="595"/>
      <point x="355" y="572"/>
      <point x="357" y="563" type="curve" smooth="yes"/>
      <point x="367" y="497"/>
      <point x="376" y="464"/>
      <point x="398" y="403" type="curve" smooth="yes"/>
      <point x="403" y="389"/>
      <point x="412" y="387"/>
      <point x="423" y="398" type="curve" smooth="yes"/>
      <point x="457" y="433"/>
      <point x="498" y="485"/>
      <point x="514" y="523" type="curve"/>
      <point x="546" y="591"/>
      <point x="554" y="602"/>
      <point x="606" y="600" type="curve" smooth="yes"/>
      <point x="631" y="599"/>
      <point x="684" y="599"/>
      <point x="708" y="600" type="curve" smooth="yes"/>
      <point x="732" y="601"/>
      <point x="738" y="595"/>
      <point x="739" y="587" type="curve" smooth="yes"/>
      <point x="740" y="576"/>
      <point x="724" y="568"/>
      <point x="699" y="564" type="curve" smooth="yes"/>
      <point x="658" y="558"/>
      <point x="587" y="511"/>
      <point x="544" y="466" type="curve" smooth="yes"/>
      <point x="504" y="425"/>
      <point x="470" y="392"/>
      <point x="443" y="357" type="curve" smooth="yes"/>
      <point x="428" y="338"/>
      <point x="425" y="338"/>
      <point x="431" y="315" type="curve" smooth="yes"/>
      <point x="447" y="258"/>
      <point x="502" y="155"/>
      <point x="541" y="111" type="curve" smooth="yes"/>
      <point x="571" y="78"/>
      <point x="614" y="58"/>
      <point x="670" y="71" type="curve" smooth="yes"/>
      <point x="682" y="73"/>
      <point x="694" y="67"/>
      <point x="697" y="59" type="curve" smooth="yes"/>
      <point x="699" y="51"/>
      <point x="691" y="40"/>
      <point x="670" y="30" type="curve" smooth="yes"/>
      <point x="630" y="12"/>
      <point x="582" y="-10"/>
      <point x="536" y="-10" type="curve"/>
      <point x="505" y="-8"/>
      <point x="476" y="3"/>
      <point x="449" y="42" type="curve"/>
      <point x="396" y="123"/>
      <point x="386" y="157"/>
      <point x="353" y="238" type="curve" smooth="yes"/>
      <point x="348" y="252"/>
      <point x="338" y="258"/>
      <point x="322" y="242" type="curve" smooth="yes"/>
      <point x="297" y="217"/>
      <point x="223" y="141"/>
      <point x="209" y="82" type="curve" smooth="yes"/>
      <point x="202" y="55"/>
      <point x="203" y="36"/>
      <point x="203" y="11" type="curve" smooth="yes"/>
      <point x="203" y="-3"/>
      <point x="191" y="-7"/>
      <point x="152" y="-1" type="curve" smooth="yes"/>
      <point x="88" y="8"/>
      <point x="56" y="-1"/>
      <point x="9" y="-3" type="curve"/>
      <point x="9" y="-3"/>
      <point x="-16" y="-3"/>
    </contour>
  </outline>
</glyph>
<glyph name="bracketleft" format="1">
  <advance width="292"/>
  <unicode hex="005B"/>
  <outline>
    <contour>
      <point x="348" y="638" type="curve" smooth="yes"/>
      <point x="364" y="638"/>
      <point x="370" y="628"/>
      <point x="367" y="619" type="curve" smooth="yes"/>
      <point x="364" y="607"/>
      <point x="352" y="602"/>
      <point x="341" y="601" type="curve" smooth="yes"/>
      <point x="301" y="599" type="line" smooth="yes"/>
      <point x="285" y="598"/>
      <point x="284" y="593"/>
      <point x="278" y="572" type="curve" smooth="yes"/>
      <point x="262" y="518"/>
      <point x="141" y="51"/>
      <point x="120" y="-31" type="curve" smooth="yes"/>
      <point x="117" y="-45"/>
      <point x="117" y="-49"/>
      <point x="131" y="-51" type="curve" smooth="yes"/>
      <point x="137" y="-51"/>
      <point x="168" y="-58"/>
      <point x="179" y="-58" type="curve" smooth="yes"/>
      <point x="190" y="-58"/>
      <point x="202" y="-61"/>
      <point x="200" y="-73" type="curve" smooth="yes"/>
      <point x="199" y="-80"/>
      <point x="188" y="-95"/>
      <point x="170" y="-95" type="curve" smooth="yes"/>
      <point x="159" y="-95"/>
      <point x="57" y="-93"/>
      <point x="42" y="-93" type="curve" smooth="yes"/>
      <point x="25" y="-93"/>
      <point x="17" y="-85"/>
      <point x="21" y="-67" type="curve" smooth="yes"/>
      <point x="72" y="128"/>
      <point x="131" y="346"/>
      <point x="196" y="612" type="curve"/>
      <point x="199" y="629"/>
      <point x="205" y="636"/>
      <point x="226" y="636" type="curve" smooth="yes"/>
      <point x="237" y="636"/>
      <point x="339" y="638"/>
    </contour>
  </outline>
</glyph>
<glyph name="backslash" format="1">
  <advance width="391"/>
  <unicode hex="005C"/>
  <outline>
    <contour>
      <point x="121" y="625" type="curve" smooth="yes"/>
      <point x="134" y="627"/>
      <point x="146" y="622"/>
      <point x="159" y="585" type="curve" smooth="yes"/>
      <point x="191" y="490"/>
      <point x="293" y="167"/>
      <point x="311" y="115" type="curve" smooth="yes"/>
      <point x="320" y="92"/>
      <point x="339" y="66"/>
      <point x="338" y="39" type="curve"/>
      <point x="335" y="18"/>
      <point x="313" y="-6"/>
      <point x="303" y="-15" type="curve"/>
      <point x="295" y="-24"/>
      <point x="289" y="-22"/>
      <point x="283" y="-10" type="curve" smooth="yes"/>
      <point x="274" y="8"/>
      <point x="267" y="41"/>
      <point x="262" y="61" type="curve" smooth="yes"/>
      <point x="243" y="137"/>
      <point x="141" y="485"/>
      <point x="114" y="561" type="curve"/>
      <point x="99" y="607"/>
      <point x="99" y="622"/>
    </contour>
  </outline>
</glyph>
<glyph name="bracketright" format="1">
  <advance width="301"/>
  <unicode hex="005D"/>
  <outline>
    <contour>
      <point x="2" y="-95" type="curve" smooth="yes"/>
      <point x="-13" y="-95"/>
      <point x="-19" y="-85"/>
      <point x="-17" y="-76" type="curve" smooth="yes"/>
      <point x="-14" y="-64"/>
      <point x="-2" y="-59"/>
      <point x="9" y="-58" type="curve" smooth="yes"/>
      <point x="49" y="-56" type="line" smooth="yes"/>
      <point x="66" y="-56"/>
      <point x="66" y="-50"/>
      <point x="72" y="-29" type="curve" smooth="yes"/>
      <point x="88" y="25"/>
      <point x="208" y="484"/>
      <point x="228" y="566" type="curve" smooth="yes"/>
      <point x="231" y="580"/>
      <point x="231" y="584"/>
      <point x="217" y="586" type="curve" smooth="yes"/>
      <point x="211" y="587"/>
      <point x="184" y="591"/>
      <point x="169" y="592" type="curve" smooth="yes"/>
      <point x="151" y="593"/>
      <point x="146" y="594"/>
      <point x="148" y="612" type="curve"/>
      <point x="150" y="619"/>
      <point x="161" y="634"/>
      <point x="178" y="634" type="curve" smooth="yes"/>
      <point x="200" y="634"/>
      <point x="291" y="628"/>
      <point x="306" y="628" type="curve" smooth="yes"/>
      <point x="323" y="628"/>
      <point x="332" y="620"/>
      <point x="327" y="603" type="curve" smooth="yes"/>
      <point x="277" y="407"/>
      <point x="219" y="197"/>
      <point x="154" y="-69" type="curve"/>
      <point x="151" y="-86"/>
      <point x="146" y="-93"/>
      <point x="124" y="-93" type="curve" smooth="yes"/>
      <point x="114" y="-93"/>
      <point x="11" y="-95"/>
    </contour>
  </outline>
</glyph>
<glyph name="asciicircum" format="1">
  <advance width="488"/>
  <unicode hex="005E"/>
  <outline>
    <contour>
      <point x="275" y="548" type="curve" smooth="yes"/>
      <point x="263" y="536"/>
      <point x="152" y="396"/>
      <point x="131" y="368" type="curve" smooth="yes"/>
      <point x="120" y="353"/>
      <point x="109" y="349"/>
      <point x="89" y="348" type="curve" smooth="yes"/>
      <point x="78" y="348"/>
      <point x="66" y="352"/>
      <point x="92" y="384" type="curve" smooth="yes"/>
      <point x="109" y="405"/>
      <point x="224" y="544"/>
      <point x="264" y="598" type="curve" smooth="yes"/>
      <point x="270" y="607"/>
      <point x="278" y="615"/>
      <point x="296" y="619" type="curve" smooth="yes"/>
      <point x="311" y="622"/>
      <point x="315" y="614"/>
      <point x="321" y="597" type="curve" smooth="yes"/>
      <point x="343" y="533"/>
      <point x="370" y="455"/>
      <point x="379" y="438" type="curve"/>
      <point x="387" y="419"/>
      <point x="405" y="400"/>
      <point x="404" y="378" type="curve" smooth="yes"/>
      <point x="403" y="367"/>
      <point x="399" y="359"/>
      <point x="390" y="349" type="curve" smooth="yes"/>
      <point x="384" y="343"/>
      <point x="365" y="343"/>
      <point x="360" y="352" type="curve" smooth="yes"/>
      <point x="351" y="368"/>
      <point x="344" y="388"/>
      <point x="339" y="403" type="curve" smooth="yes"/>
      <point x="331" y="428"/>
      <point x="317" y="484"/>
      <point x="294" y="548" type="curve"/>
      <point x="290" y="556"/>
      <point x="284" y="556"/>
    </contour>
  </outline>
</glyph>
<glyph name="underscore" format="1">
  <advance width="448"/>
  <unicode hex="005F"/>
  <outline>
    <contour>
      <point x="-3" y="-77" type="curve" smooth="yes"/>
      <point x="-25" y="-77"/>
      <point x="-34" y="-66"/>
      <point x="-27" y="-53" type="curve"/>
      <point x="-17" y="-39"/>
      <point x="-4" y="-31"/>
      <point x="18" y="-31" type="curve" smooth="yes"/>
      <point x="148" y="-29"/>
      <point x="244" y="-25"/>
      <point x="341" y="-16" type="curve" smooth="yes"/>
      <point x="368" y="-13"/>
      <point x="387" y="-7"/>
      <point x="386" y="-26" type="curve" smooth="yes"/>
      <point x="386" y="-34"/>
      <point x="371" y="-58"/>
      <point x="355" y="-67" type="curve" smooth="yes"/>
      <point x="343" y="-74"/>
      <point x="329" y="-74"/>
      <point x="316" y="-74" type="curve" smooth="yes"/>
      <point x="268" y="-75"/>
      <point x="43" y="-77"/>
    </contour>
  </outline>
</glyph>
<glyph name="grave" format="1">
  <advance width="488"/>
  <unicode hex="0060"/>
  <outline>
    <contour>
      <point x="285" y="511" type="curve" smooth="yes"/>
      <point x="257" y="545"/>
      <point x="231" y="582"/>
      <point x="212" y="611" type="curve" smooth="yes"/>
      <point x="205" y="621"/>
      <point x="203" y="632"/>
      <point x="216" y="640" type="curve" smooth="yes"/>
      <point x="226" y="645"/>
      <point x="248" y="653"/>
      <point x="270" y="656" type="curve" smooth="yes"/>
      <point x="281" y="657"/>
      <point x="289" y="657"/>
      <point x="290" y="646" type="curve" smooth="yes"/>
      <point x="292" y="604"/>
      <point x="306" y="545"/>
      <point x="311" y="516" type="curve" smooth="yes"/>
      <point x="314" y="504"/>
      <point x="295" y="500"/>
    </contour>
  </outline>
</glyph>
<glyph name="a" format="1">
  <advance width="478"/>
  <unicode hex="0061"/>
  <outline>
    <contour>
      <point x="279" y="-8" type="curve" smooth="yes"/>
      <point x="227" y="-8"/>
      <point x="231" y="48"/>
      <point x="255" y="124" type="curve" smooth="yes"/>
      <point x="260" y="139"/>
      <point x="259" y="137"/>
      <point x="255" y="140" type="curve"/>
      <point x="251" y="141"/>
      <point x="246" y="142"/>
      <point x="236" y="128" type="curve" smooth="yes"/>
      <point x="217" y="101"/>
      <point x="154" y="26"/>
      <point x="123" y="6" type="curve" smooth="yes"/>
      <point x="72" y="-27"/>
      <point x="38" y="-1"/>
      <point x="38" y="65" type="curve" smooth="yes"/>
      <point x="38" y="211"/>
      <point x="112" y="354"/>
      <point x="231" y="421" type="curve" smooth="yes"/>
      <point x="245" y="429"/>
      <point x="274" y="438"/>
      <point x="301" y="431" type="curve" smooth="yes"/>
      <point x="321" y="426"/>
      <point x="335" y="420"/>
      <point x="346" y="414" type="curve" smooth="yes"/>
      <point x="354" y="409"/>
      <point x="366" y="410"/>
      <point x="380" y="423" type="curve"/>
      <point x="388" y="432"/>
      <point x="401" y="443"/>
      <point x="412" y="457" type="curve" smooth="yes"/>
      <point x="425" y="472"/>
      <point x="437" y="476"/>
      <point x="444" y="473" type="curve" smooth="yes"/>
      <point x="449" y="471"/>
      <point x="451" y="455"/>
      <point x="445" y="445" type="curve" smooth="yes"/>
      <point x="425" y="414"/>
      <point x="411" y="387"/>
      <point x="400" y="359" type="curve" smooth="yes"/>
      <point x="375" y="296"/>
      <point x="359" y="237"/>
      <point x="339" y="150" type="curve" smooth="yes"/>
      <point x="323" y="84"/>
      <point x="334" y="75"/>
      <point x="364" y="96" type="curve" smooth="yes"/>
      <point x="382" y="109"/>
      <point x="398" y="123"/>
      <point x="419" y="144" type="curve" smooth="yes"/>
      <point x="429" y="154"/>
      <point x="444" y="162"/>
      <point x="452" y="156" type="curve" smooth="yes"/>
      <point x="457" y="152"/>
      <point x="456" y="137"/>
      <point x="449" y="129" type="curve" smooth="yes"/>
      <point x="412" y="87"/>
      <point x="359" y="40"/>
      <point x="325" y="12" type="curve" smooth="yes"/>
      <point x="307" y="-3"/>
      <point x="290" y="-8"/>
    </contour>
    <contour>
      <point x="173" y="108" type="curve" smooth="yes"/>
      <point x="231" y="161"/>
      <point x="283" y="243"/>
      <point x="307" y="332" type="curve" smooth="yes"/>
      <point x="313" y="354"/>
      <point x="309" y="362"/>
      <point x="297" y="370" type="curve" smooth="yes"/>
      <point x="289" y="376"/>
      <point x="274" y="383"/>
      <point x="260" y="385" type="curve" smooth="yes"/>
      <point x="239" y="387"/>
      <point x="215" y="370"/>
      <point x="199" y="346" type="curve" smooth="yes"/>
      <point x="165" y="296"/>
      <point x="131" y="189"/>
      <point x="130" y="136" type="curve" smooth="yes"/>
      <point x="130" y="101"/>
      <point x="142" y="80"/>
    </contour>
  </outline>
</glyph>
<glyph name="b" format="1">
  <advance width="447"/>
  <unicode hex="0062"/>
  <outline>
    <contour>
      <point x="152" y="572" type="curve"/>
      <point x="158" y="611"/>
      <point x="172" y="661"/>
      <point x="101" y="650" type="curve" smooth="yes"/>
      <point x="88" y="648"/>
      <point x="77" y="655"/>
      <point x="76" y="662" type="curve"/>
      <point x="73" y="671"/>
      <point x="82" y="680"/>
      <point x="107" y="684" type="curve" smooth="yes"/>
      <point x="149" y="691"/>
      <point x="199" y="705"/>
      <point x="226" y="705" type="curve" smooth="yes"/>
      <point x="295" y="705"/>
      <point x="266" y="630"/>
      <point x="253" y="578" type="curve"/>
      <point x="219" y="463"/>
      <point x="199" y="428"/>
      <point x="166" y="290" type="curve" smooth="yes"/>
      <point x="160" y="267"/>
      <point x="170" y="270"/>
      <point x="180" y="282" type="curve" smooth="yes"/>
      <point x="216" y="325"/>
      <point x="265" y="375"/>
      <point x="306" y="405" type="curve" smooth="yes"/>
      <point x="360" y="444"/>
      <point x="423" y="456"/>
      <point x="423" y="366" type="curve" smooth="yes"/>
      <point x="423" y="294"/>
      <point x="392" y="212"/>
      <point x="360" y="149" type="curve" smooth="yes"/>
      <point x="327" y="82"/>
      <point x="242" y="-8"/>
      <point x="153" y="-8" type="curve" smooth="yes"/>
      <point x="58" y="-8"/>
      <point x="32" y="82"/>
      <point x="55" y="181" type="curve" smooth="yes"/>
      <point x="90" y="328"/>
      <point x="125" y="441"/>
    </contour>
    <contour>
      <point x="144" y="162" type="curve" smooth="yes"/>
      <point x="114" y="71"/>
      <point x="153" y="40"/>
      <point x="181" y="40" type="curve" smooth="yes"/>
      <point x="252" y="40"/>
      <point x="311" y="195"/>
      <point x="322" y="286" type="curve" smooth="yes"/>
      <point x="326" y="324"/>
      <point x="327" y="344"/>
      <point x="309" y="344" type="curve" smooth="yes"/>
      <point x="293" y="344"/>
      <point x="266" y="327"/>
      <point x="236" y="298" type="curve" smooth="yes"/>
      <point x="202" y="266"/>
      <point x="161" y="215"/>
    </contour>
  </outline>
</glyph>
<glyph name="c" format="1">
  <advance width="348"/>
  <unicode hex="0063"/>
  <outline>
    <contour>
      <point x="127" y="-12" type="curve" smooth="yes"/>
      <point x="65" y="-11"/>
      <point x="35" y="40"/>
      <point x="38" y="126" type="curve" smooth="yes"/>
      <point x="42" y="234"/>
      <point x="114" y="376"/>
      <point x="232" y="424" type="curve" smooth="yes"/>
      <point x="258" y="434"/>
      <point x="293" y="436"/>
      <point x="312" y="426" type="curve" smooth="yes"/>
      <point x="327" y="418"/>
      <point x="338" y="402"/>
      <point x="338" y="380" type="curve" smooth="yes"/>
      <point x="338" y="348"/>
      <point x="311" y="321"/>
      <point x="289" y="305" type="curve" smooth="yes"/>
      <point x="280" y="299"/>
      <point x="266" y="297"/>
      <point x="261" y="302" type="curve" smooth="yes"/>
      <point x="253" y="310"/>
      <point x="264" y="330"/>
      <point x="263" y="342" type="curve"/>
      <point x="263" y="359"/>
      <point x="249" y="370"/>
      <point x="231" y="370" type="curve"/>
      <point x="184" y="367"/>
      <point x="131" y="283"/>
      <point x="127" y="164" type="curve" smooth="yes"/>
      <point x="125" y="113"/>
      <point x="133" y="64"/>
      <point x="173" y="64" type="curve" smooth="yes"/>
      <point x="199" y="64"/>
      <point x="244" y="105"/>
      <point x="263" y="123" type="curve" smooth="yes"/>
      <point x="269" y="130"/>
      <point x="283" y="135"/>
      <point x="289" y="129" type="curve" smooth="yes"/>
      <point x="295" y="123"/>
      <point x="289" y="108"/>
      <point x="278" y="96" type="curve" smooth="yes"/>
      <point x="245" y="61"/>
      <point x="172" y="-12"/>
    </contour>
  </outline>
</glyph>
<glyph name="e" format="1">
  <advance width="363"/>
  <unicode hex="0065"/>
  <outline>
    <contour>
      <point x="137" y="-12" type="curve" smooth="yes"/>
      <point x="75" y="-12"/>
      <point x="35" y="40"/>
      <point x="38" y="126" type="curve" smooth="yes"/>
      <point x="43" y="243"/>
      <point x="131" y="378"/>
      <point x="247" y="424" type="curve" smooth="yes"/>
      <point x="302" y="446"/>
      <point x="344" y="418"/>
      <point x="344" y="372" type="curve" smooth="yes"/>
      <point x="344" y="295"/>
      <point x="253" y="253"/>
      <point x="162" y="214" type="curve" smooth="yes"/>
      <point x="136" y="202"/>
      <point x="130" y="191"/>
      <point x="129" y="164" type="curve" smooth="yes"/>
      <point x="127" y="113"/>
      <point x="146" y="61"/>
      <point x="185" y="61" type="curve" smooth="yes"/>
      <point x="211" y="61"/>
      <point x="260" y="105"/>
      <point x="279" y="123" type="curve" smooth="yes"/>
      <point x="285" y="130"/>
      <point x="299" y="135"/>
      <point x="305" y="129" type="curve" smooth="yes"/>
      <point x="311" y="123"/>
      <point x="306" y="108"/>
      <point x="295" y="96" type="curve" smooth="yes"/>
      <point x="263" y="61"/>
      <point x="182" y="-12"/>
    </contour>
    <contour>
      <point x="143" y="259" type="curve" smooth="yes"/>
      <point x="141" y="248"/>
      <point x="149" y="247"/>
      <point x="163" y="253" type="curve" smooth="yes"/>
      <point x="211" y="275"/>
      <point x="263" y="299"/>
      <point x="263" y="342" type="curve"/>
      <point x="262" y="357"/>
      <point x="255" y="370"/>
      <point x="236" y="370" type="curve" smooth="yes"/>
      <point x="212" y="369"/>
      <point x="160" y="321"/>
    </contour>
  </outline>
</glyph>
<glyph name="f" format="1">
  <advance width="336"/>
  <unicode hex="0066"/>
  <outline>
    <contour>
      <point x="-134" y="-104" type="curve" smooth="yes"/>
      <point x="-129" y="-109"/>
      <point x="-123" y="-114"/>
      <point x="-131" y="-129" type="curve" smooth="yes"/>
      <point x="-151" y="-162"/>
      <point x="-145" y="-204"/>
      <point x="-111" y="-204" type="curve" smooth="yes"/>
      <point x="-29" y="-204"/>
      <point x="28" y="-76"/>
      <point x="45" y="-21" type="curve" smooth="yes"/>
      <point x="83" y="103"/>
      <point x="112" y="231"/>
      <point x="132" y="348" type="curve" smooth="yes"/>
      <point x="137" y="378"/>
      <point x="130" y="380"/>
      <point x="119" y="380" type="curve"/>
      <point x="111" y="381"/>
      <point x="92" y="380"/>
      <point x="84" y="380" type="curve" smooth="yes"/>
      <point x="68" y="380"/>
      <point x="70" y="399"/>
      <point x="74" y="407" type="curve"/>
      <point x="81" y="416"/>
      <point x="88" y="427"/>
      <point x="113" y="427" type="curve" smooth="yes"/>
      <point x="140" y="427"/>
      <point x="148" y="427"/>
      <point x="157" y="453" type="curve" smooth="yes"/>
      <point x="221" y="630"/>
      <point x="327" y="710"/>
      <point x="404" y="710" type="curve" smooth="yes"/>
      <point x="463" y="710"/>
      <point x="489" y="683"/>
      <point x="488" y="650" type="curve" smooth="yes"/>
      <point x="487" y="624"/>
      <point x="461" y="580"/>
      <point x="427" y="559" type="curve" smooth="yes"/>
      <point x="407" y="546"/>
      <point x="398" y="545"/>
      <point x="392" y="548" type="curve" smooth="yes"/>
      <point x="387" y="551"/>
      <point x="380" y="561"/>
      <point x="386" y="572" type="curve" smooth="yes"/>
      <point x="400" y="594"/>
      <point x="407" y="649"/>
      <point x="368" y="649" type="curve" smooth="yes"/>
      <point x="317" y="649"/>
      <point x="269" y="554"/>
      <point x="248" y="455" type="curve" smooth="yes"/>
      <point x="245" y="440"/>
      <point x="250" y="429"/>
      <point x="266" y="428" type="curve" smooth="yes"/>
      <point x="279" y="428"/>
      <point x="332" y="431"/>
      <point x="353" y="434" type="curve" smooth="yes"/>
      <point x="390" y="439"/>
      <point x="405" y="428"/>
      <point x="389" y="404" type="curve" smooth="yes"/>
      <point x="372" y="379"/>
      <point x="362" y="369"/>
      <point x="333" y="372" type="curve" smooth="yes"/>
      <point x="310" y="375"/>
      <point x="285" y="376"/>
      <point x="264" y="377" type="curve" smooth="yes"/>
      <point x="242" y="378"/>
      <point x="236" y="374"/>
      <point x="231" y="359" type="curve" smooth="yes"/>
      <point x="214" y="301"/>
      <point x="178" y="152"/>
      <point x="163" y="105" type="curve" smooth="yes"/>
      <point x="122" y="-24"/>
      <point x="85" y="-132"/>
      <point x="-25" y="-221" type="curve" smooth="yes"/>
      <point x="-72" y="-259"/>
      <point x="-103" y="-276"/>
      <point x="-156" y="-276" type="curve" smooth="yes"/>
      <point x="-201" y="-276"/>
      <point x="-231" y="-247"/>
      <point x="-231" y="-209" type="curve"/>
      <point x="-232" y="-174"/>
      <point x="-215" y="-141"/>
      <point x="-173" y="-115" type="curve" smooth="yes"/>
      <point x="-153" y="-103"/>
      <point x="-139" y="-99"/>
    </contour>
  </outline>
</glyph>
<glyph name="h" format="1">
  <advance width="513"/>
  <unicode hex="0068"/>
  <outline>
    <contour>
      <point x="124" y="670" type="curve" smooth="yes"/>
      <point x="166" y="684"/>
      <point x="227" y="701"/>
      <point x="280" y="701" type="curve" smooth="yes"/>
      <point x="298" y="701"/>
      <point x="306" y="684"/>
      <point x="306" y="666" type="curve" smooth="yes"/>
      <point x="306" y="643"/>
      <point x="301" y="620"/>
      <point x="281" y="561" type="curve" smooth="yes"/>
      <point x="253" y="476"/>
      <point x="210" y="362"/>
      <point x="181" y="267" type="curve" smooth="yes"/>
      <point x="176" y="250"/>
      <point x="184" y="240"/>
      <point x="195" y="255" type="curve" smooth="yes"/>
      <point x="227" y="295"/>
      <point x="278" y="348"/>
      <point x="336" y="396" type="curve" smooth="yes"/>
      <point x="383" y="435"/>
      <point x="465" y="460"/>
      <point x="451" y="381" type="curve" smooth="yes"/>
      <point x="440" y="320"/>
      <point x="378" y="188"/>
      <point x="367" y="115" type="curve" smooth="yes"/>
      <point x="363" y="90"/>
      <point x="369" y="82"/>
      <point x="380" y="82" type="curve"/>
      <point x="393" y="84"/>
      <point x="423" y="109"/>
      <point x="445" y="129" type="curve" smooth="yes"/>
      <point x="455" y="137"/>
      <point x="469" y="140"/>
      <point x="474" y="132" type="curve" smooth="yes"/>
      <point x="477" y="127"/>
      <point x="477" y="115"/>
      <point x="467" y="105" type="curve" smooth="yes"/>
      <point x="436" y="72"/>
      <point x="344" y="-11"/>
      <point x="303" y="-11" type="curve" smooth="yes"/>
      <point x="268" y="-11"/>
      <point x="256" y="12"/>
      <point x="259" y="53" type="curve" smooth="yes"/>
      <point x="264" y="120"/>
      <point x="297" y="190"/>
      <point x="324" y="277" type="curve" smooth="yes"/>
      <point x="332" y="304"/>
      <point x="327" y="334"/>
      <point x="290" y="305" type="curve"/>
      <point x="196" y="227"/>
      <point x="153" y="136"/>
      <point x="109" y="32" type="curve" smooth="yes"/>
      <point x="96" y="1"/>
      <point x="63" y="-9"/>
      <point x="45" y="-13" type="curve" smooth="yes"/>
      <point x="22" y="-17"/>
      <point x="11" y="-8"/>
      <point x="22" y="24" type="curve" smooth="yes"/>
      <point x="72" y="173"/>
      <point x="141" y="417"/>
      <point x="182" y="577" type="curve" smooth="yes"/>
      <point x="186" y="593"/>
      <point x="194" y="637"/>
      <point x="173" y="639" type="curve" smooth="yes"/>
      <point x="157" y="641"/>
      <point x="146" y="637"/>
      <point x="124" y="631" type="curve" smooth="yes"/>
      <point x="104" y="626"/>
      <point x="98" y="636"/>
      <point x="98" y="645" type="curve" smooth="yes"/>
      <point x="98" y="652"/>
      <point x="105" y="664"/>
    </contour>
  </outline>
</glyph>
<glyph name="j" format="1">
  <advance width="280"/>
  <unicode hex="006A"/>
  <outline>
    <contour>
      <point x="47" y="322" type="curve" smooth="yes"/>
      <point x="102" y="376"/>
      <point x="157" y="411"/>
      <point x="206" y="430" type="curve"/>
      <point x="258" y="449"/>
      <point x="267" y="417"/>
      <point x="263" y="391" type="curve" smooth="yes"/>
      <point x="258" y="361"/>
      <point x="232" y="284"/>
      <point x="212" y="219" type="curve" smooth="yes"/>
      <point x="181" y="121"/>
      <point x="178" y="121"/>
      <point x="145" y="21" type="curve"/>
      <point x="86" y="-152"/>
      <point x="-28" y="-279"/>
      <point x="-119" y="-279" type="curve" smooth="yes"/>
      <point x="-174" y="-279"/>
      <point x="-190" y="-251"/>
      <point x="-194" y="-205" type="curve"/>
      <point x="-195" y="-180"/>
      <point x="-173" y="-134"/>
      <point x="-137" y="-111" type="curve" smooth="yes"/>
      <point x="-115" y="-98"/>
      <point x="-103" y="-97"/>
      <point x="-96" y="-99" type="curve" smooth="yes"/>
      <point x="-88" y="-102"/>
      <point x="-84" y="-114"/>
      <point x="-93" y="-127" type="curve"/>
      <point x="-104" y="-146"/>
      <point x="-109" y="-162"/>
      <point x="-109" y="-180" type="curve" smooth="yes"/>
      <point x="-108" y="-211"/>
      <point x="-82" y="-214"/>
      <point x="-66" y="-210" type="curve" smooth="yes"/>
      <point x="-35" y="-204"/>
      <point x="-4" y="-171"/>
      <point x="45" y="-30" type="curve" smooth="yes"/>
      <point x="83" y="77"/>
      <point x="113" y="181"/>
      <point x="144" y="300" type="curve" smooth="yes"/>
      <point x="150" y="322"/>
      <point x="150" y="341"/>
      <point x="138" y="341" type="curve" smooth="yes"/>
      <point x="128" y="341"/>
      <point x="101" y="327"/>
      <point x="81" y="308" type="curve" smooth="yes"/>
      <point x="66" y="295"/>
      <point x="57" y="294"/>
      <point x="49" y="299" type="curve" smooth="yes"/>
      <point x="40" y="304"/>
      <point x="40" y="314"/>
    </contour>
    <contour>
      <point x="330" y="595" type="curve"/>
      <point x="326" y="561"/>
      <point x="285" y="531"/>
      <point x="250" y="531" type="curve" smooth="yes"/>
      <point x="229" y="531"/>
      <point x="220" y="546"/>
      <point x="222" y="566" type="curve" smooth="yes"/>
      <point x="227" y="605"/>
      <point x="253" y="632"/>
      <point x="292" y="632" type="curve" smooth="yes"/>
      <point x="316" y="632"/>
      <point x="330" y="620"/>
    </contour>
  </outline>
</glyph>
<glyph name="k" format="1">
  <advance width="503"/>
  <unicode hex="006B"/>
  <outline>
    <contour>
      <point x="125" y="670" type="curve" smooth="yes"/>
      <point x="167" y="684"/>
      <point x="228" y="701"/>
      <point x="281" y="701" type="curve" smooth="yes"/>
      <point x="299" y="701"/>
      <point x="306" y="684"/>
      <point x="306" y="666" type="curve" smooth="yes"/>
      <point x="306" y="643"/>
      <point x="301" y="620"/>
      <point x="282" y="561" type="curve" smooth="yes"/>
      <point x="254" y="476"/>
      <point x="211" y="368"/>
      <point x="182" y="273" type="curve" smooth="yes"/>
      <point x="177" y="256"/>
      <point x="185" y="245"/>
      <point x="196" y="261" type="curve" smooth="yes"/>
      <point x="241" y="327"/>
      <point x="350" y="437"/>
      <point x="408" y="437" type="curve" smooth="yes"/>
      <point x="465" y="437"/>
      <point x="470" y="387"/>
      <point x="469" y="373" type="curve" smooth="yes"/>
      <point x="466" y="308"/>
      <point x="396" y="257"/>
      <point x="338" y="224" type="curve" smooth="yes"/>
      <point x="315" y="211"/>
      <point x="316" y="201"/>
      <point x="315" y="190" type="curve" smooth="yes"/>
      <point x="311" y="157"/>
      <point x="317" y="121"/>
      <point x="330" y="95" type="curve" smooth="yes"/>
      <point x="338" y="77"/>
      <point x="359" y="77"/>
      <point x="375" y="88" type="curve" smooth="yes"/>
      <point x="391" y="99"/>
      <point x="401" y="109"/>
      <point x="411" y="117" type="curve" smooth="yes"/>
      <point x="427" y="131"/>
      <point x="440" y="128"/>
      <point x="444" y="123" type="curve" smooth="yes"/>
      <point x="449" y="117"/>
      <point x="449" y="105"/>
      <point x="439" y="94" type="curve" smooth="yes"/>
      <point x="407" y="62"/>
      <point x="379" y="37"/>
      <point x="338" y="3" type="curve" smooth="yes"/>
      <point x="331" y="-3"/>
      <point x="314" y="-10"/>
      <point x="295" y="-10" type="curve" smooth="yes"/>
      <point x="288" y="-10"/>
      <point x="264" y="0"/>
      <point x="258" y="9" type="curve" smooth="yes"/>
      <point x="231" y="51"/>
      <point x="231" y="123"/>
      <point x="233" y="174" type="curve" smooth="yes"/>
      <point x="233" y="188"/>
      <point x="240" y="203"/>
      <point x="254" y="210" type="curve" smooth="yes"/>
      <point x="307" y="239"/>
      <point x="378" y="282"/>
      <point x="378" y="331" type="curve" smooth="yes"/>
      <point x="378" y="343"/>
      <point x="372" y="356"/>
      <point x="357" y="356" type="curve" smooth="yes"/>
      <point x="319" y="356"/>
      <point x="253" y="290"/>
      <point x="202" y="219" type="curve" smooth="yes"/>
      <point x="153" y="150"/>
      <point x="143" y="110"/>
      <point x="110" y="32" type="curve" smooth="yes"/>
      <point x="97" y="1"/>
      <point x="64" y="-9"/>
      <point x="46" y="-13" type="curve" smooth="yes"/>
      <point x="23" y="-17"/>
      <point x="12" y="-8"/>
      <point x="23" y="24" type="curve" smooth="yes"/>
      <point x="73" y="173"/>
      <point x="142" y="417"/>
      <point x="183" y="577" type="curve" smooth="yes"/>
      <point x="187" y="593"/>
      <point x="195" y="637"/>
      <point x="174" y="639" type="curve" smooth="yes"/>
      <point x="158" y="641"/>
      <point x="147" y="637"/>
      <point x="125" y="631" type="curve" smooth="yes"/>
      <point x="105" y="626"/>
      <point x="99" y="636"/>
      <point x="99" y="645" type="curve" smooth="yes"/>
      <point x="99" y="652"/>
      <point x="106" y="664"/>
    </contour>
  </outline>
</glyph>
<glyph name="l" format="1">
  <advance width="279"/>
  <unicode hex="006C"/>
  <outline>
    <contour>
      <point x="122" y="669" type="curve" smooth="yes"/>
      <point x="173" y="678"/>
      <point x="209" y="698"/>
      <point x="262" y="701" type="curve" smooth="yes"/>
      <point x="279" y="702"/>
      <point x="287" y="684"/>
      <point x="288" y="666" type="curve"/>
      <point x="288" y="643"/>
      <point x="283" y="620"/>
      <point x="268" y="561" type="curve" smooth="yes"/>
      <point x="244" y="468"/>
      <point x="205" y="355"/>
      <point x="174" y="247" type="curve" smooth="yes"/>
      <point x="161" y="201"/>
      <point x="149" y="157"/>
      <point x="144" y="115" type="curve" smooth="yes"/>
      <point x="141" y="90"/>
      <point x="150" y="82"/>
      <point x="161" y="82" type="curve"/>
      <point x="174" y="84"/>
      <point x="203" y="109"/>
      <point x="226" y="129" type="curve" smooth="yes"/>
      <point x="236" y="137"/>
      <point x="249" y="140"/>
      <point x="254" y="132" type="curve" smooth="yes"/>
      <point x="258" y="127"/>
      <point x="258" y="115"/>
      <point x="247" y="105" type="curve"/>
      <point x="217" y="72"/>
      <point x="126" y="-11"/>
      <point x="85" y="-11" type="curve" smooth="yes"/>
      <point x="50" y="-11"/>
      <point x="41" y="12"/>
      <point x="40" y="53" type="curve" smooth="yes"/>
      <point x="40" y="93"/>
      <point x="56" y="172"/>
      <point x="77" y="243" type="curve" smooth="yes"/>
      <point x="115" y="369"/>
      <point x="155" y="469"/>
      <point x="175" y="577" type="curve" smooth="yes"/>
      <point x="179" y="600"/>
      <point x="182" y="632"/>
      <point x="160" y="636" type="curve" smooth="yes"/>
      <point x="144" y="638"/>
      <point x="146" y="637"/>
      <point x="122" y="634" type="curve" smooth="yes"/>
      <point x="103" y="631"/>
      <point x="97" y="638"/>
      <point x="97" y="646" type="curve" smooth="yes"/>
      <point x="97" y="654"/>
      <point x="104" y="666"/>
    </contour>
  </outline>
</glyph>
<glyph name="m" format="1">
  <advance width="770"/>
  <unicode hex="006D"/>
  <outline>
    <contour>
      <point x="43" y="326" type="curve" smooth="yes"/>
      <point x="70" y="354"/>
      <point x="152" y="438"/>
      <point x="201" y="438" type="curve" smooth="yes"/>
      <point x="229" y="438"/>
      <point x="247" y="408"/>
      <point x="244" y="376" type="curve" smooth="yes"/>
      <point x="241" y="328"/>
      <point x="231" y="304"/>
      <point x="215" y="264" type="curve" smooth="yes"/>
      <point x="207" y="244"/>
      <point x="216" y="236"/>
      <point x="230" y="253" type="curve" smooth="yes"/>
      <point x="262" y="293"/>
      <point x="316" y="348"/>
      <point x="373" y="396" type="curve" smooth="yes"/>
      <point x="418" y="435"/>
      <point x="491" y="459"/>
      <point x="482" y="381" type="curve"/>
      <point x="480" y="354"/>
      <point x="463" y="314"/>
      <point x="446" y="270" type="curve" smooth="yes"/>
      <point x="440" y="254"/>
      <point x="442" y="234"/>
      <point x="460" y="257" type="curve" smooth="yes"/>
      <point x="492" y="297"/>
      <point x="539" y="348"/>
      <point x="597" y="396" type="curve" smooth="yes"/>
      <point x="644" y="435"/>
      <point x="726" y="460"/>
      <point x="712" y="381" type="curve" smooth="yes"/>
      <point x="701" y="320"/>
      <point x="639" y="188"/>
      <point x="628" y="115" type="curve" smooth="yes"/>
      <point x="624" y="90"/>
      <point x="630" y="82"/>
      <point x="641" y="82" type="curve"/>
      <point x="654" y="84"/>
      <point x="684" y="109"/>
      <point x="706" y="129" type="curve" smooth="yes"/>
      <point x="716" y="137"/>
      <point x="730" y="140"/>
      <point x="735" y="132" type="curve" smooth="yes"/>
      <point x="738" y="127"/>
      <point x="738" y="115"/>
      <point x="728" y="105" type="curve" smooth="yes"/>
      <point x="697" y="72"/>
      <point x="605" y="-11"/>
      <point x="564" y="-11" type="curve" smooth="yes"/>
      <point x="529" y="-11"/>
      <point x="517" y="12"/>
      <point x="520" y="53" type="curve" smooth="yes"/>
      <point x="525" y="120"/>
      <point x="558" y="190"/>
      <point x="585" y="277" type="curve" smooth="yes"/>
      <point x="593" y="304"/>
      <point x="588" y="334"/>
      <point x="551" y="305" type="curve"/>
      <point x="457" y="227"/>
      <point x="414" y="136"/>
      <point x="370" y="32" type="curve" smooth="yes"/>
      <point x="357" y="1"/>
      <point x="324" y="-9"/>
      <point x="306" y="-13" type="curve" smooth="yes"/>
      <point x="283" y="-17"/>
      <point x="272" y="-8"/>
      <point x="283" y="24" type="curve" smooth="yes"/>
      <point x="313" y="109"/>
      <point x="338" y="192"/>
      <point x="361" y="277" type="curve" smooth="yes"/>
      <point x="369" y="304"/>
      <point x="364" y="334"/>
      <point x="327" y="305" type="curve"/>
      <point x="233" y="227"/>
      <point x="190" y="136"/>
      <point x="146" y="32" type="curve" smooth="yes"/>
      <point x="133" y="1"/>
      <point x="100" y="-9"/>
      <point x="82" y="-13" type="curve" smooth="yes"/>
      <point x="59" y="-17"/>
      <point x="48" y="-8"/>
      <point x="59" y="24" type="curve" smooth="yes"/>
      <point x="89" y="109"/>
      <point x="104" y="173"/>
      <point x="126" y="262" type="curve" smooth="yes"/>
      <point x="134" y="291"/>
      <point x="139" y="339"/>
      <point x="120" y="339" type="curve" smooth="yes"/>
      <point x="104" y="339"/>
      <point x="73" y="309"/>
      <point x="58" y="296" type="curve" smooth="yes"/>
      <point x="49" y="289"/>
      <point x="45" y="290"/>
      <point x="40" y="293" type="curve" smooth="yes"/>
      <point x="29" y="298"/>
      <point x="33" y="316"/>
    </contour>
  </outline>
</glyph>
<glyph name="p" format="1">
  <advance width="465"/>
  <unicode hex="0070"/>
  <outline>
    <contour>
      <point x="210" y="438" type="curve" smooth="yes"/>
      <point x="257" y="438"/>
      <point x="250" y="390"/>
      <point x="225" y="307" type="curve" smooth="yes"/>
      <point x="220" y="292"/>
      <point x="221" y="294"/>
      <point x="225" y="291" type="curve"/>
      <point x="229" y="290"/>
      <point x="234" y="289"/>
      <point x="244" y="303" type="curve" smooth="yes"/>
      <point x="262" y="329"/>
      <point x="322" y="402"/>
      <point x="352" y="423" type="curve"/>
      <point x="402" y="455"/>
      <point x="439" y="429"/>
      <point x="439" y="364" type="curve" smooth="yes"/>
      <point x="441" y="219"/>
      <point x="367" y="73"/>
      <point x="250" y="6" type="curve" smooth="yes"/>
      <point x="236" y="-3"/>
      <point x="199" y="-11"/>
      <point x="173" y="3" type="curve" smooth="yes"/>
      <point x="155" y="12"/>
      <point x="152" y="-5"/>
      <point x="147" y="-17" type="curve" smooth="yes"/>
      <point x="137" y="-46"/>
      <point x="125" y="-102"/>
      <point x="83" y="-172" type="curve" smooth="yes"/>
      <point x="62" y="-208"/>
      <point x="4" y="-277"/>
      <point x="-26" y="-286" type="curve" smooth="yes"/>
      <point x="-30" y="-288"/>
      <point x="-40" y="-285"/>
      <point x="-42" y="-279" type="curve" smooth="yes"/>
      <point x="-45" y="-273"/>
      <point x="-39" y="-264"/>
      <point x="-34" y="-258" type="curve" smooth="yes"/>
      <point x="-13" y="-226"/>
      <point x="7" y="-184"/>
      <point x="18" y="-154" type="curve" smooth="yes"/>
      <point x="60" y="-45"/>
      <point x="110" y="155"/>
      <point x="137" y="279" type="curve" smooth="yes"/>
      <point x="152" y="344"/>
      <point x="143" y="348"/>
      <point x="114" y="329" type="curve" smooth="yes"/>
      <point x="94" y="317"/>
      <point x="98" y="320"/>
      <point x="76" y="300" type="curve" smooth="yes"/>
      <point x="65" y="290"/>
      <point x="52" y="281"/>
      <point x="44" y="288" type="curve" smooth="yes"/>
      <point x="38" y="292"/>
      <point x="39" y="306"/>
      <point x="45" y="315" type="curve"/>
      <point x="88" y="364"/>
      <point x="174" y="438"/>
    </contour>
    <contour>
      <point x="303" y="321" type="curve" smooth="yes"/>
      <point x="264" y="285"/>
      <point x="251" y="267"/>
      <point x="217" y="210" type="curve" smooth="yes"/>
      <point x="199" y="181"/>
      <point x="184" y="131"/>
      <point x="173" y="92" type="curve" smooth="yes"/>
      <point x="166" y="66"/>
      <point x="166" y="62"/>
      <point x="178" y="53" type="curve" smooth="yes"/>
      <point x="187" y="47"/>
      <point x="206" y="46"/>
      <point x="221" y="45" type="curve"/>
      <point x="242" y="45"/>
      <point x="264" y="58"/>
      <point x="281" y="82" type="curve" smooth="yes"/>
      <point x="315" y="132"/>
      <point x="347" y="239"/>
      <point x="346" y="292" type="curve" smooth="yes"/>
      <point x="346" y="327"/>
      <point x="333" y="348"/>
    </contour>
  </outline>
</glyph>
<glyph name="q" format="1">
  <advance width="427"/>
  <unicode hex="0071"/>
  <outline>
    <contour>
      <point x="194" y="-278" type="curve" smooth="yes"/>
      <point x="150" y="-280"/>
      <point x="149" y="-243"/>
      <point x="160" y="-178" type="curve" smooth="yes"/>
      <point x="168" y="-126"/>
      <point x="219" y="37"/>
      <point x="242" y="110" type="curve" smooth="yes"/>
      <point x="247" y="125"/>
      <point x="243" y="128"/>
      <point x="240" y="129" type="curve" smooth="yes"/>
      <point x="236" y="130"/>
      <point x="231" y="130"/>
      <point x="221" y="115" type="curve" smooth="yes"/>
      <point x="204" y="89"/>
      <point x="146" y="26"/>
      <point x="114" y="6" type="curve" smooth="yes"/>
      <point x="64" y="-27"/>
      <point x="29" y="-1"/>
      <point x="29" y="65" type="curve" smooth="yes"/>
      <point x="29" y="211"/>
      <point x="104" y="354"/>
      <point x="222" y="421" type="curve" smooth="yes"/>
      <point x="237" y="429"/>
      <point x="266" y="438"/>
      <point x="293" y="431" type="curve" smooth="yes"/>
      <point x="312" y="426"/>
      <point x="330" y="420"/>
      <point x="341" y="414" type="curve" smooth="yes"/>
      <point x="349" y="409"/>
      <point x="362" y="409"/>
      <point x="375" y="423" type="curve" smooth="yes"/>
      <point x="383" y="433"/>
      <point x="396" y="443"/>
      <point x="407" y="457" type="curve" smooth="yes"/>
      <point x="420" y="472"/>
      <point x="432" y="476"/>
      <point x="439" y="473" type="curve" smooth="yes"/>
      <point x="444" y="471"/>
      <point x="445" y="455"/>
      <point x="439" y="445" type="curve" smooth="yes"/>
      <point x="419" y="414"/>
      <point x="405" y="388"/>
      <point x="395" y="359" type="curve" smooth="yes"/>
      <point x="343" y="212"/>
      <point x="315" y="98"/>
      <point x="265" y="-133" type="curve" smooth="yes"/>
      <point x="254" y="-185"/>
      <point x="275" y="-211"/>
      <point x="297" y="-203" type="curve" smooth="yes"/>
      <point x="316" y="-196"/>
      <point x="317" y="-195"/>
      <point x="334" y="-185" type="curve" smooth="yes"/>
      <point x="348" y="-177"/>
      <point x="361" y="-182"/>
      <point x="365" y="-190" type="curve" smooth="yes"/>
      <point x="370" y="-199"/>
      <point x="364" y="-210"/>
      <point x="354" y="-216" type="curve" smooth="yes"/>
      <point x="295" y="-252"/>
      <point x="239" y="-275"/>
    </contour>
    <contour>
      <point x="165" y="108" type="curve" smooth="yes"/>
      <point x="204" y="143"/>
      <point x="219" y="162"/>
      <point x="253" y="219" type="curve"/>
      <point x="271" y="247"/>
      <point x="288" y="292"/>
      <point x="299" y="332" type="curve" smooth="yes"/>
      <point x="305" y="354"/>
      <point x="301" y="362"/>
      <point x="289" y="370" type="curve" smooth="yes"/>
      <point x="280" y="376"/>
      <point x="265" y="380"/>
      <point x="251" y="383" type="curve" smooth="yes"/>
      <point x="230" y="386"/>
      <point x="207" y="370"/>
      <point x="190" y="346" type="curve" smooth="yes"/>
      <point x="156" y="296"/>
      <point x="122" y="189"/>
      <point x="122" y="136" type="curve" smooth="yes"/>
      <point x="122" y="101"/>
      <point x="134" y="80"/>
    </contour>
  </outline>
</glyph>
<glyph name="r" format="1">
  <advance width="396"/>
  <unicode hex="0072"/>
  <outline>
    <contour>
      <point x="38" y="300" type="curve" smooth="yes"/>
      <point x="32" y="306"/>
      <point x="36" y="321"/>
      <point x="52" y="338" type="curve" smooth="yes"/>
      <point x="74" y="362"/>
      <point x="155" y="433"/>
      <point x="194" y="433" type="curve" smooth="yes"/>
      <point x="214" y="433"/>
      <point x="226" y="419"/>
      <point x="226" y="382" type="curve"/>
      <point x="225" y="354"/>
      <point x="205" y="299"/>
      <point x="198" y="274" type="curve" smooth="yes"/>
      <point x="195" y="264"/>
      <point x="207" y="257"/>
      <point x="215" y="270" type="curve"/>
      <point x="256" y="348"/>
      <point x="308" y="436"/>
      <point x="359" y="436" type="curve" smooth="yes"/>
      <point x="401" y="436"/>
      <point x="406" y="404"/>
      <point x="406" y="384" type="curve" smooth="yes"/>
      <point x="405" y="339"/>
      <point x="383" y="293"/>
      <point x="366" y="272" type="curve"/>
      <point x="354" y="255"/>
      <point x="344" y="247"/>
      <point x="334" y="251" type="curve" smooth="yes"/>
      <point x="328" y="253"/>
      <point x="327" y="262"/>
      <point x="332" y="274" type="curve" smooth="yes"/>
      <point x="343" y="301"/>
      <point x="336" y="327"/>
      <point x="313" y="327" type="curve" smooth="yes"/>
      <point x="280" y="327"/>
      <point x="226" y="233"/>
      <point x="203" y="178" type="curve" smooth="yes"/>
      <point x="194" y="159"/>
      <point x="168" y="77"/>
      <point x="162" y="53" type="curve" smooth="yes"/>
      <point x="151" y="11"/>
      <point x="121" y="2"/>
      <point x="90" y="-12" type="curve" smooth="yes"/>
      <point x="67" y="-22"/>
      <point x="51" y="-12"/>
      <point x="55" y="0" type="curve" smooth="yes"/>
      <point x="81" y="88"/>
      <point x="111" y="213"/>
      <point x="120" y="280" type="curve"/>
      <point x="126" y="337"/>
      <point x="118" y="354"/>
      <point x="64" y="301" type="curve" smooth="yes"/>
      <point x="52" y="289"/>
      <point x="44" y="294"/>
    </contour>
  </outline>
</glyph>
<glyph name="u" format="1">
  <advance width="551"/>
  <unicode hex="0075"/>
  <outline>
    <contour>
      <point x="41" y="304" type="curve" smooth="yes"/>
      <point x="38" y="309"/>
      <point x="38" y="321"/>
      <point x="48" y="331" type="curve" smooth="yes"/>
      <point x="79" y="364"/>
      <point x="159" y="437"/>
      <point x="200" y="437" type="curve" smooth="yes"/>
      <point x="236" y="437"/>
      <point x="247" y="414"/>
      <point x="242" y="373" type="curve" smooth="yes"/>
      <point x="234" y="306"/>
      <point x="205" y="236"/>
      <point x="181" y="149" type="curve" smooth="yes"/>
      <point x="173" y="122"/>
      <point x="189" y="93"/>
      <point x="222" y="125" type="curve" smooth="yes"/>
      <point x="314" y="215"/>
      <point x="352" y="285"/>
      <point x="396" y="389" type="curve" smooth="yes"/>
      <point x="409" y="420"/>
      <point x="448" y="435"/>
      <point x="465" y="439" type="curve"/>
      <point x="489" y="443"/>
      <point x="504" y="434"/>
      <point x="492" y="402" type="curve" smooth="yes"/>
      <point x="457" y="316"/>
      <point x="437" y="253"/>
      <point x="414" y="164" type="curve" smooth="yes"/>
      <point x="407" y="135"/>
      <point x="402" y="87"/>
      <point x="421" y="87" type="curve" smooth="yes"/>
      <point x="436" y="87"/>
      <point x="485" y="131"/>
      <point x="500" y="144" type="curve" smooth="yes"/>
      <point x="509" y="152"/>
      <point x="513" y="150"/>
      <point x="519" y="147" type="curve" smooth="yes"/>
      <point x="529" y="142"/>
      <point x="528" y="120"/>
      <point x="518" y="110" type="curve" smooth="yes"/>
      <point x="489" y="82"/>
      <point x="389" y="-12"/>
      <point x="339" y="-12" type="curve" smooth="yes"/>
      <point x="311" y="-12"/>
      <point x="294" y="18"/>
      <point x="296" y="50" type="curve" smooth="yes"/>
      <point x="300" y="99"/>
      <point x="304" y="113"/>
      <point x="320" y="152" type="curve" smooth="yes"/>
      <point x="328" y="173"/>
      <point x="318" y="181"/>
      <point x="306" y="164" type="curve" smooth="yes"/>
      <point x="274" y="121"/>
      <point x="234" y="73"/>
      <point x="178" y="24" type="curve" smooth="yes"/>
      <point x="111" y="-34"/>
      <point x="59" y="-7"/>
      <point x="68" y="58" type="curve" smooth="yes"/>
      <point x="77" y="123"/>
      <point x="125" y="238"/>
      <point x="136" y="311" type="curve"/>
      <point x="141" y="336"/>
      <point x="135" y="343"/>
      <point x="124" y="343" type="curve" smooth="yes"/>
      <point x="110" y="342"/>
      <point x="93" y="327"/>
      <point x="70" y="307" type="curve" smooth="yes"/>
      <point x="60" y="299"/>
      <point x="46" y="296"/>
    </contour>
  </outline>
</glyph>
<glyph name="v" format="1">
  <advance width="434"/>
  <unicode hex="0076"/>
  <outline>
    <contour>
      <point x="125" y="-9" type="curve" smooth="yes"/>
      <point x="51" y="-9"/>
      <point x="69" y="84"/>
      <point x="77" y="131" type="curve" smooth="yes"/>
      <point x="85" y="173"/>
      <point x="109" y="258"/>
      <point x="115" y="306" type="curve" smooth="yes"/>
      <point x="118" y="322"/>
      <point x="114" y="327"/>
      <point x="105" y="327" type="curve" smooth="yes"/>
      <point x="93" y="327"/>
      <point x="71" y="309"/>
      <point x="61" y="300" type="curve"/>
      <point x="56" y="294"/>
      <point x="42" y="290"/>
      <point x="36" y="295" type="curve" smooth="yes"/>
      <point x="29" y="301"/>
      <point x="34" y="316"/>
      <point x="44" y="327" type="curve" smooth="yes"/>
      <point x="82" y="368"/>
      <point x="105" y="386"/>
      <point x="146" y="413" type="curve" smooth="yes"/>
      <point x="154" y="419"/>
      <point x="180" y="434"/>
      <point x="204" y="434" type="curve" smooth="yes"/>
      <point x="236" y="434"/>
      <point x="225" y="374"/>
      <point x="221" y="359" type="curve" smooth="yes"/>
      <point x="215" y="332"/>
      <point x="178" y="176"/>
      <point x="172" y="141" type="curve" smooth="yes"/>
      <point x="162" y="82"/>
      <point x="169" y="73"/>
      <point x="191" y="73" type="curve" smooth="yes"/>
      <point x="201" y="73"/>
      <point x="217" y="80"/>
      <point x="253" y="125" type="curve" smooth="yes"/>
      <point x="294" y="177"/>
      <point x="325" y="235"/>
      <point x="337" y="280" type="curve" smooth="yes"/>
      <point x="348" y="323"/>
      <point x="331" y="351"/>
      <point x="296" y="341" type="curve" smooth="yes"/>
      <point x="287" y="338"/>
      <point x="277" y="333"/>
      <point x="270" y="338" type="curve" smooth="yes"/>
      <point x="265" y="341"/>
      <point x="266" y="351"/>
      <point x="269" y="357" type="curve" smooth="yes"/>
      <point x="285" y="383"/>
      <point x="340" y="436"/>
      <point x="375" y="436" type="curve" smooth="yes"/>
      <point x="428" y="436"/>
      <point x="429" y="383"/>
      <point x="413" y="326" type="curve"/>
      <point x="382" y="224"/>
      <point x="313" y="132"/>
      <point x="253" y="64" type="curve" smooth="yes"/>
      <point x="238" y="47"/>
      <point x="179" y="-9"/>
    </contour>
  </outline>
</glyph>
<glyph name="x" format="1">
  <advance width="533"/>
  <unicode hex="0078"/>
  <outline>
    <contour>
      <point x="84" y="305" type="curve"/>
      <point x="78" y="309"/>
      <point x="78" y="322"/>
      <point x="86" y="330" type="curve"/>
      <point x="91" y="337"/>
      <point x="168" y="411"/>
      <point x="193" y="428" type="curve" smooth="yes"/>
      <point x="209" y="439"/>
      <point x="222" y="434"/>
      <point x="237" y="425" type="curve" smooth="yes"/>
      <point x="269" y="404"/>
      <point x="290" y="355"/>
      <point x="286" y="312" type="curve" smooth="yes"/>
      <point x="285" y="297"/>
      <point x="288" y="294"/>
      <point x="293" y="294" type="curve" smooth="yes"/>
      <point x="296" y="294"/>
      <point x="302" y="302"/>
      <point x="309" y="312" type="curve" smooth="yes"/>
      <point x="343" y="364"/>
      <point x="402" y="437"/>
      <point x="469" y="437" type="curve" smooth="yes"/>
      <point x="496" y="437"/>
      <point x="516" y="418"/>
      <point x="517" y="382" type="curve" smooth="yes"/>
      <point x="517" y="359"/>
      <point x="497" y="324"/>
      <point x="477" y="310" type="curve" smooth="yes"/>
      <point x="468" y="303"/>
      <point x="454" y="293"/>
      <point x="446" y="301" type="curve" smooth="yes"/>
      <point x="441" y="305"/>
      <point x="444" y="317"/>
      <point x="446" y="327" type="curve" smooth="yes"/>
      <point x="449" y="341"/>
      <point x="434" y="353"/>
      <point x="421" y="353" type="curve" smooth="yes"/>
      <point x="384" y="353"/>
      <point x="323" y="287"/>
      <point x="318" y="220" type="curve" smooth="yes"/>
      <point x="313" y="163"/>
      <point x="331" y="109"/>
      <point x="358" y="88" type="curve" smooth="yes"/>
      <point x="380" y="71"/>
      <point x="407" y="81"/>
      <point x="420" y="91" type="curve" smooth="yes"/>
      <point x="439" y="107"/>
      <point x="444" y="114"/>
      <point x="459" y="132" type="curve"/>
      <point x="465" y="141"/>
      <point x="473" y="145"/>
      <point x="481" y="141" type="curve" smooth="yes"/>
      <point x="487" y="138"/>
      <point x="491" y="125"/>
      <point x="484" y="116" type="curve" smooth="yes"/>
      <point x="462" y="84"/>
      <point x="419" y="36"/>
      <point x="386" y="8" type="curve"/>
      <point x="355" y="-20"/>
      <point x="312" y="-13"/>
      <point x="286" y="17" type="curve" smooth="yes"/>
      <point x="266" y="40"/>
      <point x="251" y="71"/>
      <point x="253" y="118" type="curve" smooth="yes"/>
      <point x="253" y="127"/>
      <point x="250" y="137"/>
      <point x="245" y="137" type="curve" smooth="yes"/>
      <point x="238" y="137"/>
      <point x="235" y="130"/>
      <point x="229" y="119" type="curve" smooth="yes"/>
      <point x="205" y="74"/>
      <point x="136" y="-9"/>
      <point x="61" y="-9" type="curve" smooth="yes"/>
      <point x="29" y="-9"/>
      <point x="14" y="13"/>
      <point x="13" y="44" type="curve" smooth="yes"/>
      <point x="13" y="73"/>
      <point x="36" y="111"/>
      <point x="61" y="133" type="curve" smooth="yes"/>
      <point x="67" y="138"/>
      <point x="77" y="141"/>
      <point x="80" y="140" type="curve" smooth="yes"/>
      <point x="87" y="138"/>
      <point x="89" y="124"/>
      <point x="86" y="117" type="curve" smooth="yes"/>
      <point x="73" y="92"/>
      <point x="87" y="73"/>
      <point x="110" y="73" type="curve" smooth="yes"/>
      <point x="157" y="73"/>
      <point x="214" y="145"/>
      <point x="221" y="207" type="curve" smooth="yes"/>
      <point x="229" y="283"/>
      <point x="204" y="324"/>
      <point x="174" y="338" type="curve" smooth="yes"/>
      <point x="153" y="348"/>
      <point x="126" y="326"/>
      <point x="113" y="312" type="curve"/>
      <point x="99" y="299"/>
      <point x="88" y="301"/>
    </contour>
  </outline>
</glyph>
<glyph name="y" format="1">
  <advance width="516"/>
  <unicode hex="0079"/>
  <outline>
    <contour>
      <point x="210" y="437" type="curve" smooth="yes"/>
      <point x="245" y="437"/>
      <point x="256" y="414"/>
      <point x="252" y="373" type="curve" smooth="yes"/>
      <point x="245" y="306"/>
      <point x="215" y="237"/>
      <point x="190" y="151" type="curve" smooth="yes"/>
      <point x="183" y="124"/>
      <point x="198" y="93"/>
      <point x="231" y="125" type="curve" smooth="yes"/>
      <point x="323" y="215"/>
      <point x="361" y="285"/>
      <point x="405" y="389" type="curve" smooth="yes"/>
      <point x="418" y="420"/>
      <point x="457" y="435"/>
      <point x="475" y="439" type="curve" smooth="yes"/>
      <point x="498" y="443"/>
      <point x="513" y="434"/>
      <point x="501" y="402" type="curve" smooth="yes"/>
      <point x="466" y="316"/>
      <point x="444" y="253"/>
      <point x="422" y="164" type="curve"/>
      <point x="407" y="108"/>
      <point x="411" y="64"/>
      <point x="425" y="0" type="curve" smooth="yes"/>
      <point x="445" y="-90"/>
      <point x="381" y="-181"/>
      <point x="298" y="-229" type="curve" smooth="yes"/>
      <point x="245" y="-259"/>
      <point x="162" y="-280"/>
      <point x="109" y="-280" type="curve" smooth="yes"/>
      <point x="-20" y="-280"/>
      <point x="-49" y="-231"/>
      <point x="-49" y="-187" type="curve" smooth="yes"/>
      <point x="-49" y="-139"/>
      <point x="5" y="-92"/>
      <point x="57" y="-51" type="curve"/>
      <point x="68" y="-41"/>
      <point x="81" y="-42"/>
      <point x="85" y="-46" type="curve" smooth="yes"/>
      <point x="93" y="-53"/>
      <point x="91" y="-66"/>
      <point x="80" y="-77" type="curve" smooth="yes"/>
      <point x="64" y="-94"/>
      <point x="53" y="-132"/>
      <point x="53" y="-154" type="curve" smooth="yes"/>
      <point x="53" y="-213"/>
      <point x="101" y="-221"/>
      <point x="132" y="-221" type="curve" smooth="yes"/>
      <point x="173" y="-221"/>
      <point x="229" y="-210"/>
      <point x="257" y="-192" type="curve" smooth="yes"/>
      <point x="325" y="-146"/>
      <point x="343" y="-76"/>
      <point x="324" y="-2" type="curve" smooth="yes"/>
      <point x="317" y="26"/>
      <point x="309" y="84"/>
      <point x="318" y="124" type="curve" smooth="yes"/>
      <point x="321" y="134"/>
      <point x="324" y="141"/>
      <point x="329" y="152" type="curve" smooth="yes"/>
      <point x="338" y="173"/>
      <point x="327" y="181"/>
      <point x="315" y="164" type="curve" smooth="yes"/>
      <point x="283" y="121"/>
      <point x="245" y="72"/>
      <point x="187" y="24" type="curve" smooth="yes"/>
      <point x="119" y="-32"/>
      <point x="68" y="-7"/>
      <point x="77" y="58" type="curve" smooth="yes"/>
      <point x="87" y="123"/>
      <point x="135" y="238"/>
      <point x="146" y="311" type="curve" smooth="yes"/>
      <point x="150" y="336"/>
      <point x="144" y="343"/>
      <point x="133" y="343" type="curve" smooth="yes"/>
      <point x="120" y="342"/>
      <point x="102" y="327"/>
      <point x="79" y="307" type="curve" smooth="yes"/>
      <point x="69" y="299"/>
      <point x="56" y="296"/>
      <point x="51" y="304" type="curve" smooth="yes"/>
      <point x="47" y="309"/>
      <point x="47" y="321"/>
      <point x="57" y="331" type="curve" smooth="yes"/>
      <point x="88" y="364"/>
      <point x="168" y="437"/>
    </contour>
  </outline>
</glyph>
<glyph name="braceleft" format="1">
  <advance width="319"/>
  <unicode hex="007B"/>
  <outline>
    <contour>
      <point x="328" y="646" type="curve" smooth="yes"/>
      <point x="352" y="646"/>
      <point x="350" y="634"/>
      <point x="349" y="627" type="curve" smooth="yes"/>
      <point x="348" y="621"/>
      <point x="340" y="610"/>
      <point x="315" y="606" type="curve" smooth="yes"/>
      <point x="288" y="602"/>
      <point x="269" y="578"/>
      <point x="256" y="525" type="curve"/>
      <point x="246" y="478"/>
      <point x="288" y="427"/>
      <point x="273" y="364" type="curve" smooth="yes"/>
      <point x="264" y="327"/>
      <point x="231" y="321"/>
      <point x="228" y="306" type="curve" smooth="yes"/>
      <point x="225" y="293"/>
      <point x="254" y="295"/>
      <point x="245" y="255" type="curve" smooth="yes"/>
      <point x="233" y="207"/>
      <point x="161" y="137"/>
      <point x="148" y="85" type="curve"/>
      <point x="136" y="32"/>
      <point x="155" y="9"/>
      <point x="172" y="7" type="curve"/>
      <point x="187" y="3"/>
      <point x="197" y="-3"/>
      <point x="194" y="-14" type="curve"/>
      <point x="192" y="-26"/>
      <point x="179" y="-35"/>
      <point x="150" y="-35" type="curve" smooth="yes"/>
      <point x="87" y="-35"/>
      <point x="39" y="1"/>
      <point x="54" y="65" type="curve" smooth="yes"/>
      <point x="70" y="134"/>
      <point x="177" y="195"/>
      <point x="193" y="263" type="curve" smooth="yes"/>
      <point x="198" y="285"/>
      <point x="164" y="287"/>
      <point x="138" y="287" type="curve" smooth="yes"/>
      <point x="123" y="287"/>
      <point x="102" y="278"/>
      <point x="89" y="278" type="curve" smooth="yes"/>
      <point x="77" y="278"/>
      <point x="78" y="298"/>
      <point x="83" y="310" type="curve" smooth="yes"/>
      <point x="88" y="322"/>
      <point x="98" y="337"/>
      <point x="111" y="337" type="curve" smooth="yes"/>
      <point x="124" y="337"/>
      <point x="134" y="327"/>
      <point x="154" y="327" type="curve" smooth="yes"/>
      <point x="173" y="327"/>
      <point x="222" y="323"/>
      <point x="232" y="365" type="curve" smooth="yes"/>
      <point x="244" y="416"/>
      <point x="156" y="475"/>
      <point x="173" y="549" type="curve"/>
      <point x="188" y="608"/>
      <point x="279" y="646"/>
    </contour>
  </outline>
</glyph>
<glyph name="bar" format="1">
  <advance width="275"/>
  <unicode hex="007C"/>
  <outline>
    <contour>
      <point x="129" y="-25" type="curve" smooth="yes"/>
      <point x="129" y="21"/>
      <point x="128" y="513"/>
      <point x="129" y="561" type="curve" smooth="yes"/>
      <point x="129" y="574"/>
      <point x="129" y="588"/>
      <point x="136" y="599" type="curve" smooth="yes"/>
      <point x="145" y="615"/>
      <point x="171" y="628"/>
      <point x="178" y="628" type="curve" smooth="yes"/>
      <point x="197" y="628"/>
      <point x="190" y="608"/>
      <point x="188" y="582" type="curve" smooth="yes"/>
      <point x="179" y="486"/>
      <point x="178" y="152"/>
      <point x="176" y="-8" type="curve" smooth="yes"/>
      <point x="176" y="-30"/>
      <point x="168" y="-43"/>
      <point x="153" y="-50" type="curve" smooth="yes"/>
      <point x="140" y="-56"/>
      <point x="129" y="-48"/>
    </contour>
  </outline>
</glyph>
<glyph name="braceright" format="1">
  <advance width="319"/>
  <unicode hex="007D"/>
  <outline>
    <contour>
      <point x="44" y="-35" type="curve" smooth="yes"/>
      <point x="22" y="-35"/>
      <point x="24" y="-23"/>
      <point x="25" y="-15" type="curve" smooth="yes"/>
      <point x="26" y="-9"/>
      <point x="34" y="-1"/>
      <point x="58" y="5" type="curve" smooth="yes"/>
      <point x="85" y="11"/>
      <point x="110" y="29"/>
      <point x="123" y="82" type="curve"/>
      <point x="133" y="129"/>
      <point x="93" y="190"/>
      <point x="109" y="254" type="curve" smooth="yes"/>
      <point x="118" y="290"/>
      <point x="151" y="297"/>
      <point x="154" y="311" type="curve" smooth="yes"/>
      <point x="157" y="325"/>
      <point x="128" y="323"/>
      <point x="137" y="363" type="curve" smooth="yes"/>
      <point x="149" y="411"/>
      <point x="220" y="475"/>
      <point x="232" y="526" type="curve"/>
      <point x="246" y="579"/>
      <point x="226" y="602"/>
      <point x="210" y="604" type="curve"/>
      <point x="194" y="608"/>
      <point x="184" y="614"/>
      <point x="187" y="626" type="curve" smooth="yes"/>
      <point x="189" y="637"/>
      <point x="202" y="646"/>
      <point x="231" y="646" type="curve" smooth="yes"/>
      <point x="295" y="646"/>
      <point x="343" y="610"/>
      <point x="327" y="547" type="curve"/>
      <point x="311" y="478"/>
      <point x="198" y="422"/>
      <point x="181" y="354" type="curve"/>
      <point x="177" y="333"/>
      <point x="218" y="331"/>
      <point x="244" y="331" type="curve" smooth="yes"/>
      <point x="259" y="331"/>
      <point x="280" y="339"/>
      <point x="292" y="339" type="curve" smooth="yes"/>
      <point x="305" y="339"/>
      <point x="304" y="320"/>
      <point x="299" y="307" type="curve" smooth="yes"/>
      <point x="294" y="296"/>
      <point x="283" y="280"/>
      <point x="270" y="280" type="curve" smooth="yes"/>
      <point x="258" y="280"/>
      <point x="248" y="290"/>
      <point x="228" y="290" type="curve" smooth="yes"/>
      <point x="209" y="290"/>
      <point x="169" y="295"/>
      <point x="159" y="253" type="curve" smooth="yes"/>
      <point x="146" y="201"/>
      <point x="228" y="137"/>
      <point x="210" y="63" type="curve" smooth="yes"/>
      <point x="195" y="3"/>
      <point x="94" y="-35"/>
    </contour>
  </outline>
</glyph>
<glyph name="asciitilde" format="1">
  <advance width="427"/>
  <unicode hex="007E"/>
  <outline>
    <contour>
      <point x="21" y="217" type="curve" smooth="yes"/>
      <point x="13" y="229"/>
      <point x="32" y="246"/>
      <point x="44" y="256" type="curve" smooth="yes"/>
      <point x="93" y="297"/>
      <point x="134" y="316"/>
      <point x="159" y="316" type="curve" smooth="yes"/>
      <point x="186" y="316"/>
      <point x="214" y="305"/>
      <point x="235" y="297" type="curve" smooth="yes"/>
      <point x="263" y="287"/>
      <point x="294" y="283"/>
      <point x="308" y="283" type="curve" smooth="yes"/>
      <point x="336" y="283"/>
      <point x="359" y="292"/>
      <point x="378" y="306" type="curve"/>
      <point x="394" y="316"/>
      <point x="407" y="326"/>
      <point x="418" y="322" type="curve" smooth="yes"/>
      <point x="423" y="320"/>
      <point x="428" y="311"/>
      <point x="415" y="295" type="curve" smooth="yes"/>
      <point x="380" y="255"/>
      <point x="319" y="212"/>
      <point x="276" y="212" type="curve" smooth="yes"/>
      <point x="258" y="212"/>
      <point x="226" y="218"/>
      <point x="196" y="228" type="curve" smooth="yes"/>
      <point x="169" y="238"/>
      <point x="144" y="246"/>
      <point x="129" y="246" type="curve" smooth="yes"/>
      <point x="99" y="246"/>
      <point x="81" y="238"/>
      <point x="55" y="222" type="curve"/>
      <point x="43" y="216"/>
      <point x="27" y="208"/>
    </contour>
  </outline>
</glyph>
<glyph name="exclamdown" format="1">
  <advance width="287"/>
  <unicode hex="00A1"/>
  <outline>
    <contour>
      <point x="131" y="-136" type="curve"/>
      <point x="125" y="-159"/>
      <point x="116" y="-166"/>
      <point x="101" y="-170" type="curve" smooth="yes"/>
      <point x="70" y="-178"/>
      <point x="40" y="-180"/>
      <point x="21" y="-180" type="curve" smooth="yes"/>
      <point x="4" y="-180"/>
      <point x="-8" y="-183"/>
      <point x="-2" y="-161" type="curve" smooth="yes"/>
      <point x="5" y="-136"/>
      <point x="63" y="-16"/>
      <point x="70" y="1" type="curve" smooth="yes"/>
      <point x="101" y="77"/>
      <point x="125" y="157"/>
      <point x="145" y="226" type="curve" smooth="yes"/>
      <point x="151" y="245"/>
      <point x="159" y="252"/>
      <point x="174" y="255" type="curve" smooth="yes"/>
      <point x="186" y="258"/>
      <point x="191" y="247"/>
      <point x="187" y="225" type="curve" smooth="yes"/>
      <point x="175" y="163"/>
      <point x="154" y="70"/>
      <point x="146" y="8" type="curve" smooth="yes"/>
      <point x="144" y="-11"/>
      <point x="136" y="-121"/>
    </contour>
    <contour>
      <point x="201" y="337" type="curve" smooth="yes"/>
      <point x="176" y="335"/>
      <point x="146" y="348"/>
      <point x="146" y="375" type="curve" smooth="yes"/>
      <point x="146" y="418"/>
      <point x="181" y="432"/>
      <point x="204" y="436" type="curve"/>
      <point x="247" y="440"/>
      <point x="264" y="416"/>
      <point x="264" y="392" type="curve" smooth="yes"/>
      <point x="264" y="359"/>
      <point x="230" y="339"/>
    </contour>
  </outline>
</glyph>
<glyph name="cent" format="1">
  <advance width="348"/>
  <unicode hex="00A2"/>
  <outline>
    <contour>
      <point x="39" y="126" type="curve" smooth="yes"/>
      <point x="43" y="229"/>
      <point x="107" y="363"/>
      <point x="216" y="417" type="curve" smooth="yes"/>
      <point x="235" y="426"/>
      <point x="240" y="428"/>
      <point x="247" y="449" type="curve" smooth="yes"/>
      <point x="256" y="474"/>
      <point x="263" y="498"/>
      <point x="271" y="523" type="curve"/>
      <point x="279" y="541"/>
      <point x="286" y="547"/>
      <point x="301" y="551" type="curve"/>
      <point x="313" y="553"/>
      <point x="318" y="543"/>
      <point x="312" y="521" type="curve"/>
      <point x="308" y="499"/>
      <point x="302" y="475"/>
      <point x="296" y="449" type="curve" smooth="yes"/>
      <point x="291" y="428"/>
      <point x="296" y="434"/>
      <point x="313" y="426" type="curve" smooth="yes"/>
      <point x="328" y="418"/>
      <point x="338" y="402"/>
      <point x="338" y="380" type="curve" smooth="yes"/>
      <point x="338" y="348"/>
      <point x="312" y="321"/>
      <point x="290" y="305" type="curve" smooth="yes"/>
      <point x="281" y="299"/>
      <point x="267" y="297"/>
      <point x="262" y="302" type="curve" smooth="yes"/>
      <point x="254" y="310"/>
      <point x="265" y="330"/>
      <point x="264" y="342" type="curve" smooth="yes"/>
      <point x="263" y="359"/>
      <point x="250" y="370"/>
      <point x="232" y="370" type="curve"/>
      <point x="185" y="367"/>
      <point x="132" y="283"/>
      <point x="128" y="164" type="curve" smooth="yes"/>
      <point x="126" y="113"/>
      <point x="134" y="64"/>
      <point x="173" y="64" type="curve" smooth="yes"/>
      <point x="199" y="64"/>
      <point x="245" y="105"/>
      <point x="263" y="123" type="curve" smooth="yes"/>
      <point x="270" y="130"/>
      <point x="284" y="135"/>
      <point x="290" y="129" type="curve" smooth="yes"/>
      <point x="296" y="123"/>
      <point x="290" y="108"/>
      <point x="279" y="96" type="curve" smooth="yes"/>
      <point x="257" y="73"/>
      <point x="218" y="35"/>
      <point x="181" y="10" type="curve" smooth="yes"/>
      <point x="160" y="-3"/>
      <point x="156" y="-3"/>
      <point x="147" y="-25" type="curve"/>
      <point x="128" y="-88" type="line" smooth="yes"/>
      <point x="122" y="-108"/>
      <point x="113" y="-114"/>
      <point x="98" y="-118" type="curve"/>
      <point x="86" y="-120"/>
      <point x="81" y="-109"/>
      <point x="86" y="-88" type="curve" smooth="yes"/>
      <point x="98" y="-27" type="line"/>
      <point x="104" y="-5"/>
      <point x="98" y="-9"/>
      <point x="82" y="2" type="curve" smooth="yes"/>
      <point x="51" y="22"/>
      <point x="36" y="66"/>
    </contour>
  </outline>
</glyph>
<glyph name="sterling" format="1">
  <advance width="581"/>
  <unicode hex="00A3"/>
  <outline>
    <contour>
      <point x="379" y="604" type="curve" smooth="yes"/>
      <point x="428" y="604"/>
      <point x="508" y="598"/>
      <point x="508" y="541" type="curve" smooth="yes"/>
      <point x="508" y="509"/>
      <point x="481" y="468"/>
      <point x="447" y="446" type="curve" smooth="yes"/>
      <point x="436" y="439"/>
      <point x="425" y="432"/>
      <point x="413" y="438" type="curve" smooth="yes"/>
      <point x="403" y="443"/>
      <point x="406" y="455"/>
      <point x="411" y="465" type="curve" smooth="yes"/>
      <point x="431" y="505"/>
      <point x="416" y="556"/>
      <point x="360" y="556" type="curve" smooth="yes"/>
      <point x="298" y="556"/>
      <point x="257" y="519"/>
      <point x="257" y="455" type="curve" smooth="yes"/>
      <point x="257" y="424"/>
      <point x="273" y="399"/>
      <point x="301" y="363" type="curve"/>
      <point x="312" y="347"/>
      <point x="320" y="337"/>
      <point x="327" y="325" type="curve" smooth="yes"/>
      <point x="333" y="313"/>
      <point x="336" y="316"/>
      <point x="348" y="316" type="curve"/>
      <point x="423" y="323" type="line" smooth="yes"/>
      <point x="450" y="326"/>
      <point x="470" y="332"/>
      <point x="469" y="313" type="curve" smooth="yes"/>
      <point x="469" y="306"/>
      <point x="456" y="288"/>
      <point x="439" y="279" type="curve"/>
      <point x="428" y="272"/>
      <point x="414" y="271"/>
      <point x="401" y="271" type="curve" smooth="yes"/>
      <point x="354" y="269" type="line" smooth="yes"/>
      <point x="338" y="269"/>
      <point x="339" y="259"/>
      <point x="338" y="256" type="curve" smooth="yes"/>
      <point x="329" y="216"/>
      <point x="265" y="180"/>
      <point x="229" y="153" type="curve" smooth="yes"/>
      <point x="200" y="131"/>
      <point x="211" y="127"/>
      <point x="233" y="136" type="curve" smooth="yes"/>
      <point x="246" y="142"/>
      <point x="258" y="146"/>
      <point x="285" y="146" type="curve" smooth="yes"/>
      <point x="307" y="146"/>
      <point x="332" y="134"/>
      <point x="347" y="123" type="curve" smooth="yes"/>
      <point x="364" y="111"/>
      <point x="376" y="106"/>
      <point x="406" y="106" type="curve" smooth="yes"/>
      <point x="434" y="106"/>
      <point x="461" y="121"/>
      <point x="465" y="143" type="curve" smooth="yes"/>
      <point x="466" y="150"/>
      <point x="476" y="173"/>
      <point x="487" y="173" type="curve" smooth="yes"/>
      <point x="504" y="174"/>
      <point x="508" y="156"/>
      <point x="508" y="141" type="curve" smooth="yes"/>
      <point x="508" y="95"/>
      <point x="452" y="-8"/>
      <point x="359" y="-8" type="curve" smooth="yes"/>
      <point x="338" y="-8"/>
      <point x="331" y="-3"/>
      <point x="318" y="8" type="curve" smooth="yes"/>
      <point x="283" y="41"/>
      <point x="253" y="50"/>
      <point x="219" y="50" type="curve" smooth="yes"/>
      <point x="163" y="50"/>
      <point x="97" y="29"/>
      <point x="74" y="10" type="curve" smooth="yes"/>
      <point x="61" y="0"/>
      <point x="33" y="-13"/>
      <point x="19" y="1" type="curve" smooth="yes"/>
      <point x="8" y="11"/>
      <point x="14" y="26"/>
      <point x="24" y="46" type="curve"/>
      <point x="33" y="70"/>
      <point x="59" y="103"/>
      <point x="72" y="109" type="curve" smooth="yes"/>
      <point x="77" y="112"/>
      <point x="91" y="118"/>
      <point x="107" y="122" type="curve" smooth="yes"/>
      <point x="142" y="132"/>
      <point x="155" y="139"/>
      <point x="186" y="163" type="curve" smooth="yes"/>
      <point x="215" y="185"/>
      <point x="249" y="215"/>
      <point x="249" y="250" type="curve" smooth="yes"/>
      <point x="249" y="256"/>
      <point x="249" y="269"/>
      <point x="232" y="269" type="curve" smooth="yes"/>
      <point x="184" y="269" type="line" smooth="yes"/>
      <point x="162" y="269"/>
      <point x="153" y="278"/>
      <point x="160" y="291" type="curve" smooth="yes"/>
      <point x="168" y="306"/>
      <point x="178" y="310"/>
      <point x="207" y="310" type="curve" smooth="yes"/>
      <point x="221" y="310"/>
      <point x="217" y="319"/>
      <point x="214" y="325" type="curve"/>
      <point x="191" y="354" type="line" smooth="yes"/>
      <point x="171" y="378"/>
      <point x="152" y="409"/>
      <point x="152" y="446" type="curve" smooth="yes"/>
      <point x="152" y="546"/>
      <point x="302" y="604"/>
    </contour>
  </outline>
</glyph>
<glyph name="currency" format="1">
  <advance width="488"/>
  <unicode hex="00A4"/>
  <outline>
    <contour>
      <point x="121" y="438" type="curve"/>
      <point x="131" y="430"/>
      <point x="142" y="423"/>
      <point x="152" y="418" type="curve" smooth="yes"/>
      <point x="157" y="415"/>
      <point x="162" y="414"/>
      <point x="168" y="418" type="curve" smooth="yes"/>
      <point x="204" y="439"/>
      <point x="244" y="449"/>
      <point x="275" y="449" type="curve" smooth="yes"/>
      <point x="319" y="449"/>
      <point x="352" y="439"/>
      <point x="380" y="421" type="curve" smooth="yes"/>
      <point x="386" y="417"/>
      <point x="390" y="418"/>
      <point x="399" y="421" type="curve" smooth="yes"/>
      <point x="408" y="425"/>
      <point x="418" y="431"/>
      <point x="428" y="438" type="curve"/>
      <point x="445" y="447"/>
      <point x="460" y="445"/>
      <point x="465" y="439" type="curve"/>
      <point x="468" y="431"/>
      <point x="465" y="420"/>
      <point x="459" y="414" type="curve"/>
      <point x="428" y="392" type="line" smooth="yes"/>
      <point x="421" y="387"/>
      <point x="419" y="383"/>
      <point x="423" y="378" type="curve" smooth="yes"/>
      <point x="431" y="369"/>
      <point x="439" y="329"/>
      <point x="437" y="303" type="curve" smooth="yes"/>
      <point x="434" y="270"/>
      <point x="424" y="247"/>
      <point x="400" y="224" type="curve" smooth="yes"/>
      <point x="397" y="222"/>
      <point x="393" y="216"/>
      <point x="397" y="213" type="curve" smooth="yes"/>
      <point x="431" y="183" type="line" smooth="yes"/>
      <point x="439" y="177"/>
      <point x="442" y="168"/>
      <point x="436" y="160" type="curve"/>
      <point x="429" y="153"/>
      <point x="412" y="151"/>
      <point x="399" y="160" type="curve" smooth="yes"/>
      <point x="386" y="168"/>
      <point x="378" y="175"/>
      <point x="368" y="180" type="curve" smooth="yes"/>
      <point x="359" y="184"/>
      <point x="358" y="186"/>
      <point x="348" y="181" type="curve"/>
      <point x="320" y="163"/>
      <point x="281" y="156"/>
      <point x="246" y="156" type="curve" smooth="yes"/>
      <point x="197" y="156"/>
      <point x="167" y="167"/>
      <point x="143" y="180" type="curve" smooth="yes"/>
      <point x="136" y="184"/>
      <point x="131" y="182"/>
      <point x="124" y="179" type="curve" smooth="yes"/>
      <point x="113" y="175"/>
      <point x="100" y="167"/>
      <point x="88" y="160" type="curve" smooth="yes"/>
      <point x="72" y="151"/>
      <point x="56" y="156"/>
      <point x="51" y="162" type="curve"/>
      <point x="46" y="170"/>
      <point x="53" y="179"/>
      <point x="61" y="185" type="curve" smooth="yes"/>
      <point x="98" y="210" type="line"/>
      <point x="104" y="216"/>
      <point x="105" y="221"/>
      <point x="101" y="226" type="curve" smooth="yes"/>
      <point x="92" y="240"/>
      <point x="82" y="258"/>
      <point x="86" y="301" type="curve" smooth="yes"/>
      <point x="88" y="330"/>
      <point x="106" y="360"/>
      <point x="118" y="375" type="curve" smooth="yes"/>
      <point x="124" y="382"/>
      <point x="123" y="387"/>
      <point x="119" y="392" type="curve" smooth="yes"/>
      <point x="109" y="402"/>
      <point x="99" y="407"/>
      <point x="92" y="414" type="curve"/>
      <point x="83" y="420"/>
      <point x="79" y="429"/>
      <point x="85" y="437" type="curve" smooth="yes"/>
      <point x="91" y="444"/>
      <point x="107" y="447"/>
    </contour>
    <contour>
      <point x="135" y="302" type="curve" smooth="yes"/>
      <point x="129" y="243"/>
      <point x="172" y="194"/>
      <point x="252" y="194" type="curve" smooth="yes"/>
      <point x="327" y="194"/>
      <point x="382" y="237"/>
      <point x="389" y="302" type="curve" smooth="yes"/>
      <point x="395" y="364"/>
      <point x="353" y="409"/>
      <point x="271" y="409" type="curve" smooth="yes"/>
      <point x="194" y="409"/>
      <point x="141" y="360"/>
    </contour>
  </outline>
</glyph>
<glyph name="yen" format="1">
  <advance width="565"/>
  <unicode hex="00A5"/>
  <outline>
    <contour>
      <point x="234" y="143" type="curve" smooth="yes"/>
      <point x="157" y="143" type="line" smooth="yes"/>
      <point x="135" y="143"/>
      <point x="126" y="153"/>
      <point x="133" y="167" type="curve" smooth="yes"/>
      <point x="141" y="181"/>
      <point x="155" y="186"/>
      <point x="176" y="186" type="curve" smooth="yes"/>
      <point x="201" y="186"/>
      <point x="224" y="186"/>
      <point x="245" y="187" type="curve" smooth="yes"/>
      <point x="263" y="187"/>
      <point x="263" y="188"/>
      <point x="268" y="205" type="curve"/>
      <point x="275" y="239" type="line" smooth="yes"/>
      <point x="276" y="245"/>
      <point x="279" y="256"/>
      <point x="258" y="256" type="curve" smooth="yes"/>
      <point x="176" y="256" type="line" smooth="yes"/>
      <point x="154" y="256"/>
      <point x="146" y="266"/>
      <point x="152" y="279" type="curve" smooth="yes"/>
      <point x="160" y="294"/>
      <point x="174" y="299"/>
      <point x="195" y="299" type="curve" smooth="yes"/>
      <point x="219" y="299"/>
      <point x="241" y="299"/>
      <point x="260" y="300" type="curve"/>
      <point x="292" y="300"/>
      <point x="277" y="327"/>
      <point x="267" y="348" type="curve" smooth="yes"/>
      <point x="246" y="397"/>
      <point x="210" y="485"/>
      <point x="181" y="522" type="curve" smooth="yes"/>
      <point x="167" y="541"/>
      <point x="146" y="560"/>
      <point x="120" y="564" type="curve" smooth="yes"/>
      <point x="98" y="567"/>
      <point x="89" y="576"/>
      <point x="91" y="585" type="curve" smooth="yes"/>
      <point x="94" y="600"/>
      <point x="114" y="601"/>
      <point x="125" y="602" type="curve" smooth="yes"/>
      <point x="158" y="603"/>
      <point x="128" y="602"/>
      <point x="232" y="602" type="curve" smooth="yes"/>
      <point x="272" y="602"/>
      <point x="280" y="593"/>
      <point x="289" y="561" type="curve" smooth="yes"/>
      <point x="312" y="476"/>
      <point x="334" y="409"/>
      <point x="361" y="351" type="curve" smooth="yes"/>
      <point x="368" y="338"/>
      <point x="380" y="334"/>
      <point x="396" y="353" type="curve" smooth="yes"/>
      <point x="404" y="364"/>
      <point x="439" y="395"/>
      <point x="460" y="412" type="curve" smooth="yes"/>
      <point x="495" y="439"/>
      <point x="528" y="469"/>
      <point x="528" y="513" type="curve" smooth="yes"/>
      <point x="528" y="538"/>
      <point x="511" y="547"/>
      <point x="491" y="546" type="curve" smooth="yes"/>
      <point x="477" y="545"/>
      <point x="456" y="539"/>
      <point x="450" y="551" type="curve" smooth="yes"/>
      <point x="445" y="562"/>
      <point x="454" y="570"/>
      <point x="470" y="580" type="curve" smooth="yes"/>
      <point x="497" y="598"/>
      <point x="531" y="607"/>
      <point x="553" y="607" type="curve" smooth="yes"/>
      <point x="604" y="607"/>
      <point x="629" y="579"/>
      <point x="629" y="546" type="curve" smooth="yes"/>
      <point x="629" y="476"/>
      <point x="558" y="428"/>
      <point x="500" y="391" type="curve"/>
      <point x="469" y="370"/>
      <point x="444" y="350"/>
      <point x="425" y="329" type="curve" smooth="yes"/>
      <point x="412" y="315"/>
      <point x="399" y="306"/>
      <point x="424" y="309" type="curve" smooth="yes"/>
      <point x="484" y="314" type="line" smooth="yes"/>
      <point x="511" y="316"/>
      <point x="530" y="323"/>
      <point x="529" y="304" type="curve" smooth="yes"/>
      <point x="529" y="296"/>
      <point x="516" y="274"/>
      <point x="499" y="265" type="curve" smooth="yes"/>
      <point x="487" y="258"/>
      <point x="474" y="258"/>
      <point x="460" y="258" type="curve" smooth="yes"/>
      <point x="403" y="258" type="line" smooth="yes"/>
      <point x="384" y="258"/>
      <point x="380" y="258"/>
      <point x="375" y="238" type="curve" smooth="yes"/>
      <point x="373" y="230"/>
      <point x="370" y="221"/>
      <point x="368" y="210" type="curve" smooth="yes"/>
      <point x="365" y="193"/>
      <point x="365" y="193"/>
      <point x="384" y="194" type="curve" smooth="yes"/>
      <point x="409" y="195"/>
      <point x="435" y="199"/>
      <point x="465" y="201" type="curve"/>
      <point x="492" y="204"/>
      <point x="511" y="210"/>
      <point x="510" y="191" type="curve" smooth="yes"/>
      <point x="510" y="184"/>
      <point x="497" y="162"/>
      <point x="480" y="152" type="curve" smooth="yes"/>
      <point x="468" y="146"/>
      <point x="455" y="146"/>
      <point x="441" y="146" type="curve"/>
      <point x="428" y="145"/>
      <point x="406" y="145"/>
      <point x="375" y="144" type="curve" smooth="yes"/>
      <point x="352" y="144"/>
      <point x="352" y="124"/>
      <point x="350" y="109" type="curve" smooth="yes"/>
      <point x="347" y="77"/>
      <point x="354" y="53"/>
      <point x="378" y="43" type="curve" smooth="yes"/>
      <point x="395" y="36"/>
      <point x="413" y="35"/>
      <point x="411" y="16" type="curve" smooth="yes"/>
      <point x="409" y="5"/>
      <point x="394" y="-4"/>
      <point x="372" y="-1" type="curve" smooth="yes"/>
      <point x="307" y="7"/>
      <point x="170" y="-2"/>
      <point x="147" y="-3" type="curve" smooth="yes"/>
      <point x="137" y="-4"/>
      <point x="129" y="0"/>
      <point x="130" y="11" type="curve"/>
      <point x="130" y="29"/>
      <point x="161" y="37"/>
      <point x="174" y="39" type="curve" smooth="yes"/>
      <point x="210" y="43"/>
      <point x="231" y="77"/>
      <point x="243" y="109" type="curve" smooth="yes"/>
      <point x="246" y="117"/>
      <point x="255" y="143"/>
    </contour>
  </outline>
</glyph>
<glyph name="brokenbar" format="1">
  <advance width="308"/>
  <unicode hex="00A6"/>
  <outline>
    <contour>
      <point x="130" y="-39" type="curve" smooth="yes"/>
      <point x="130" y="212" type="line" smooth="yes"/>
      <point x="130" y="218"/>
      <point x="130" y="224"/>
      <point x="138" y="229" type="curve"/>
      <point x="146" y="237"/>
      <point x="168" y="248"/>
      <point x="175" y="248" type="curve" smooth="yes"/>
      <point x="188" y="248"/>
      <point x="189" y="246"/>
      <point x="185" y="227" type="curve" smooth="yes"/>
      <point x="176" y="184"/>
      <point x="175" y="42"/>
      <point x="173" y="-31" type="curve" smooth="yes"/>
      <point x="173" y="-40"/>
      <point x="168" y="-46"/>
      <point x="153" y="-49" type="curve" smooth="yes"/>
      <point x="141" y="-52"/>
      <point x="130" y="-48"/>
    </contour>
    <contour>
      <point x="130" y="318" type="curve" smooth="yes"/>
      <point x="130" y="567" type="line" smooth="yes"/>
      <point x="130" y="573"/>
      <point x="130" y="579"/>
      <point x="138" y="585" type="curve"/>
      <point x="146" y="593"/>
      <point x="168" y="605"/>
      <point x="175" y="605" type="curve" smooth="yes"/>
      <point x="189" y="605"/>
      <point x="189" y="602"/>
      <point x="185" y="585" type="curve" smooth="yes"/>
      <point x="176" y="540"/>
      <point x="175" y="400"/>
      <point x="173" y="327" type="curve" smooth="yes"/>
      <point x="173" y="316"/>
      <point x="168" y="311"/>
      <point x="153" y="308" type="curve" smooth="yes"/>
      <point x="141" y="305"/>
      <point x="130" y="309"/>
    </contour>
  </outline>
</glyph>
